<svg width="32" height="32" viewBox="0 0 32 32" fill="none" xmlns="http://www.w3.org/2000/svg">
<rect width="32" height="32" fill="white"/>
<g clip-path="url(#clip0)">
<path d="M29.4054 2.5148H29.5875C29.812 2.5148 29.9959 2.44035 29.9959 2.24349C29.9959 2.09542 29.8873 1.95836 29.6022 1.95836C29.5129 1.95836 29.4522 1.95836 29.4053 1.96485V2.5148H29.4054ZM29.4054 3.47125H29.1001V1.77532C29.2417 1.75511 29.3843 1.72746 29.6086 1.72746C29.88 1.72746 30.0492 1.78265 30.1577 1.86453C30.2524 1.93898 30.3067 2.05302 30.3067 2.21679C30.3067 2.43386 30.1641 2.57543 29.9821 2.62328V2.63616C30.1301 2.66381 30.2248 2.79899 30.2589 3.05093C30.2994 3.31575 30.3334 3.41607 30.361 3.47125H30.0492C30.0086 3.41607 29.9738 3.26067 29.9397 3.03805C29.9067 2.83302 29.7917 2.75208 29.581 2.75208H29.4053V3.47125H29.4054ZM29.6832 1.32097C29.0118 1.32097 28.4692 1.8838 28.4692 2.58925C28.4692 3.2947 29.0118 3.85754 29.6896 3.85754C30.3609 3.86487 30.8971 3.2947 30.8971 2.58925C30.8971 1.8838 30.3609 1.32097 29.6896 1.32097H29.6832V1.32097ZM29.6896 1.06348C30.5293 1.06348 31.2007 1.74223 31.2007 2.58286C31.2007 3.43732 30.5293 4.11513 29.6832 4.11513C28.8361 4.11513 28.1509 3.43732 28.1509 2.58286C28.1509 1.74223 28.8361 1.06348 29.6832 1.06348H29.6896V1.06348Z" fill="black"/>
<path d="M7.91818 28.261L7.66341 26.7519C7.59074 26.3169 7.49786 25.6371 7.42707 25.1662H7.39943C7.32498 25.6407 7.221 26.3397 7.14466 26.7556L6.87052 28.261H7.91818ZM6.73366 29.2444L6.40256 30.9192H5.17941L6.70518 23.9514H8.20425L9.59024 30.9192H8.3607L8.03692 29.2444H6.73366V29.2444Z" fill="black"/>
<path d="M12.3742 27.8068C12.3742 27.7139 12.3742 27.6053 12.3558 27.5059C12.3071 27.1619 12.1241 26.8521 11.8297 26.8521C11.3248 26.8521 11.139 27.5795 11.139 28.4303C11.139 29.4079 11.4038 29.9644 11.8122 29.9644C11.9989 29.9644 12.2141 29.8687 12.331 29.4584C12.3595 29.3766 12.3742 29.2672 12.3742 29.1394V27.8068V27.8068ZM13.6296 23.7665V29.4742C13.6296 29.9266 13.6527 30.4831 13.6711 30.9181H12.5868L12.516 30.3377H12.4902C12.3081 30.6956 11.9118 30.9999 11.4381 30.9999C10.3998 30.9999 9.88478 29.854 9.88478 28.4072C9.88478 26.6442 10.6526 25.787 11.4896 25.787C11.9274 25.787 12.2107 26.0013 12.3533 26.3114H12.3744V23.7665H13.6296V23.7665Z" fill="black"/>
<path d="M16.2444 30.0371C16.7235 30.0371 16.8422 29.1339 16.8422 28.3861C16.8422 27.6752 16.7235 26.749 16.2233 26.749C15.6935 26.749 15.5821 27.6752 15.5821 28.3861C15.5821 29.2443 15.7219 30.0371 16.2333 30.0371H16.2444ZM16.2205 31C15.0635 31 14.3378 30.0711 14.3378 28.4083C14.3378 26.5937 15.2695 25.7871 16.2499 25.7871C17.3913 25.7871 18.1068 26.7612 18.1068 28.3789C18.1068 30.4575 16.9857 31 16.2306 31H16.2205V31Z" fill="black"/>
<path d="M20.064 29.1155C20.064 29.2414 20.087 29.3592 20.1137 29.4382C20.2397 29.8605 20.4531 29.9644 20.6241 29.9644C21.1097 29.9644 21.3057 29.349 21.3057 28.3649C21.3057 27.4691 21.0986 26.8521 20.6185 26.8521C20.3804 26.8521 20.1799 27.1106 20.1109 27.3883C20.0869 27.4757 20.064 27.6117 20.064 27.7055V29.1155V29.1155ZM18.8085 23.7665H20.0639V26.3968H20.0841C20.3314 26.0086 20.6607 25.787 21.139 25.787C22.0854 25.787 22.5609 26.8631 22.5609 28.2702C22.5609 30.0482 21.8517 30.9999 20.9329 30.9999C20.4951 30.9999 20.2036 30.8058 19.9405 30.3139H19.914L19.8442 30.9181H18.7663C18.7847 30.4997 18.8085 29.9266 18.8085 29.4742V23.7665V23.7665Z" fill="black"/>
<path d="M25.5694 27.9125C25.5759 27.2035 25.3679 26.7067 24.9697 26.7067C24.5153 26.7067 24.3221 27.3718 24.3084 27.9125H25.5694ZM24.3038 28.8002C24.3186 29.7134 24.7987 30.0106 25.3946 30.0106C25.7725 30.0106 26.0963 29.9267 26.3354 29.8367L26.5047 30.7399C26.1717 30.8832 25.6575 30.9734 25.1645 30.9734C23.8172 30.9734 23.0814 30.0527 23.0814 28.4801C23.0814 26.7924 23.9349 25.7788 25.0496 25.7788C26.1265 25.7788 26.7234 26.6746 26.7234 28.1369C26.7234 28.4717 26.7096 28.6603 26.6875 28.8073L24.3038 28.8002V28.8002Z" fill="black"/>
<path d="M18.6936 1H26.7244V20.2266L18.6936 1Z" fill="#ED1C24"/>
<path d="M13.0355 0.99958H5.00002V20.2262L13.0355 0.99958Z" fill="#ED1C24"/>
<path d="M12.3531 16.3583L15.8655 8.08447L20.9817 20.2255H17.6295L16.099 16.3583H12.3531Z" fill="#ED1C24"/>
</g>
<defs>
<clipPath id="clip0">
<rect width="26.2007" height="30" fill="white" transform="translate(5 1)"/>
</clipPath>
</defs>
</svg>
