<svg width="32" height="32" viewBox="0 0 32 32" fill="none" xmlns="http://www.w3.org/2000/svg">
<path d="M6.41714 1.01814e-07H25.5829C26.4256 -0.000150028 27.2601 0.165732 28.0388 0.48817C28.8174 0.810609 29.5249 1.28329 30.1208 1.8792C30.7167 2.47512 31.1894 3.1826 31.5118 3.96123C31.8343 4.73986 32.0002 5.57439 32 6.41714V25.5829C32.0002 26.4256 31.8343 27.2601 31.5118 28.0388C31.1894 28.8174 30.7167 29.5249 30.1208 30.1208C29.5249 30.7167 28.8174 31.1894 28.0388 31.5118C27.2601 31.8343 26.4256 32.0002 25.5829 32H6.41714C5.57439 32.0002 4.73986 31.8343 3.96123 31.5118C3.1826 31.1894 2.47512 30.7167 1.8792 30.1208C1.28329 29.5249 0.810609 28.8174 0.48817 28.0388C0.165732 27.2601 -0.000150028 26.4256 1.01814e-07 25.5829V6.41714C-0.000150028 5.57439 0.165732 4.73986 0.48817 3.96123C0.810609 3.1826 1.28329 2.47512 1.8792 1.8792C2.47512 1.28329 3.1826 0.810609 3.96123 0.48817C4.73986 0.165732 5.57439 -0.000150028 6.41714 1.01814e-07V1.01814e-07Z" fill="white"/>
<path d="M6.41714 1.01814e-07H25.5829C26.4256 -0.000150028 27.2601 0.165732 28.0388 0.48817C28.8174 0.810609 29.5249 1.28329 30.1208 1.8792C30.7167 2.47512 31.1894 3.1826 31.5118 3.96123C31.8343 4.73986 32.0002 5.57439 32 6.41714V25.5829C32.0002 26.4256 31.8343 27.2601 31.5118 28.0388C31.1894 28.8174 30.7167 29.5249 30.1208 30.1208C29.5249 30.7167 28.8174 31.1894 28.0388 31.5118C27.2601 31.8343 26.4256 32.0002 25.5829 32H6.41714C5.57439 32.0002 4.73986 31.8343 3.96123 31.5118C3.1826 31.1894 2.47512 30.7167 1.8792 30.1208C1.28329 29.5249 0.810609 28.8174 0.48817 28.0388C0.165732 27.2601 -0.000150028 26.4256 1.01814e-07 25.5829V6.41714C-0.000150028 5.57439 0.165732 4.73986 0.48817 3.96123C0.810609 3.1826 1.28329 2.47512 1.8792 1.8792C2.47512 1.28329 3.1826 0.810609 3.96123 0.48817C4.73986 0.165732 5.57439 -0.000150028 6.41714 1.01814e-07V1.01814e-07Z" fill="white"/>
<path fill-rule="evenodd" clip-rule="evenodd" d="M25.5828 32H21.3331V28H31.5291C31.0484 29.1819 30.2262 30.1938 29.1677 30.9062C28.1091 31.6187 26.8623 31.9995 25.5863 32H25.5828Z" fill="#FFD166"/>
<path fill-rule="evenodd" clip-rule="evenodd" d="M10.6669 28V32H6.41658C5.1406 31.9995 3.89372 31.6187 2.83518 30.9062C1.77664 30.1938 0.95449 29.1819 0.473724 28H10.6669Z" fill="#2BB793"/>
<path fill-rule="evenodd" clip-rule="evenodd" d="M10.6669 28H21.3337V32H10.6669V28Z" fill="#83BDE4"/>
<path d="M8.76171 17.2914C8.75208 17.4555 8.77983 17.6196 8.84286 17.7714C8.90643 17.8833 9.00926 17.9676 9.13143 18.008L8.66914 19.4754C8.31838 19.4602 7.97349 19.38 7.652 19.2389C7.37974 19.1016 7.15454 18.8864 7.00514 18.6206C6.80045 18.9203 6.52083 19.1612 6.1941 19.3193C5.86737 19.4774 5.50493 19.5472 5.14286 19.5217C4.873 19.5336 4.6035 19.4912 4.35034 19.397C4.09719 19.3027 3.86554 19.1586 3.66914 18.9731C3.48295 18.7887 3.33704 18.5676 3.24065 18.3239C3.14426 18.0801 3.09948 17.8191 3.10914 17.5571C3.09324 17.2522 3.15481 16.9481 3.2881 16.6733C3.42138 16.3986 3.62206 16.162 3.87143 15.9857C4.53793 15.5816 5.31251 15.3921 6.09029 15.4429H6.52914V15.2926C6.54283 15.1815 6.5335 15.0687 6.50175 14.9614C6.47 14.854 6.4165 14.7544 6.34457 14.6686C6.13417 14.5375 5.88594 14.4805 5.63943 14.5069C5.40028 14.5131 5.16226 14.542 4.92857 14.5931C4.62931 14.654 4.33409 14.7332 4.04457 14.8303L3.54743 13.3743C4.32494 13.0684 5.1509 12.9041 5.98629 12.8891C6.73467 12.8249 7.4821 13.0229 8.10057 13.4491C8.3314 13.6676 8.51039 13.9349 8.6244 14.2316C8.73841 14.5282 8.78455 14.8466 8.75943 15.1634V17.2914H8.76171ZM5.84743 17.9154C5.98359 17.9163 6.11746 17.8804 6.23486 17.8114C6.35089 17.745 6.45126 17.6544 6.52914 17.5457V16.6314H6.28686C6.03589 16.6115 5.78505 16.6715 5.57029 16.8029C5.49137 16.8659 5.42904 16.9473 5.38871 17.0399C5.34838 17.1325 5.33127 17.2336 5.33886 17.3343C5.33067 17.4873 5.38022 17.6378 5.47772 17.756C5.52402 17.8077 5.58118 17.8484 5.6451 17.8754C5.70902 17.9024 5.77811 17.9149 5.84743 17.912V17.9154ZM13.6589 12.8869C13.9974 12.8684 14.3348 12.9386 14.6379 13.0906C14.9409 13.2425 15.1991 13.4709 15.3869 13.7531C15.8158 14.4871 16.0186 15.3313 15.9697 16.18C15.9792 16.7658 15.8754 17.3479 15.664 17.8943C15.4881 18.3618 15.1897 18.7733 14.8 19.0857C14.4323 19.3726 13.9777 19.5254 13.5114 19.5189C13.2424 19.5275 12.9747 19.4772 12.7272 19.3714C12.4798 19.2655 12.2584 19.1068 12.0789 18.9063V21.68L9.79314 21.9086V13.12H11.8269L11.9194 13.7211C12.1403 13.4477 12.4224 13.23 12.7429 13.0857C13.0323 12.9581 13.3448 12.8914 13.6611 12.8897L13.6589 12.8869ZM12.76 17.8926C13.3379 17.8926 13.6269 17.3341 13.6269 16.2171C13.6372 15.8565 13.6062 15.4958 13.5343 15.1423C13.5053 14.9564 13.4183 14.7844 13.2857 14.6509C13.17 14.5662 13.0289 14.5235 12.8857 14.5297C12.7103 14.5406 12.5416 14.6005 12.3986 14.7027C12.2556 14.8048 12.1443 14.9451 12.0771 15.1074V17.4651C12.1554 17.5967 12.2619 17.7092 12.3891 17.7943C12.5009 17.8607 12.6289 17.8947 12.7589 17.8926H12.76ZM20.7429 12.8891C20.969 12.8774 21.195 12.9147 21.4053 12.9984C21.6157 13.0822 21.8055 13.2104 21.9617 13.3743C22.2786 13.7554 22.4378 14.2431 22.4069 14.7377V19.2909H20.1211V15.1537C20.1354 14.9909 20.1054 14.8272 20.0343 14.68C20.0055 14.6383 19.9665 14.6046 19.921 14.5824C19.8754 14.5602 19.8249 14.5501 19.7743 14.5531C19.5202 14.5531 19.2621 14.7571 19 15.1651V19.2909H16.7143V13.12H18.7143L18.8766 13.7554C19.1233 13.4832 19.4191 13.2598 19.7486 13.0971C20.0624 12.9547 20.404 12.8837 20.7486 12.8891H20.7429ZM28.6583 17.2891C28.6487 17.4532 28.6763 17.6172 28.7389 17.7691C28.8026 17.8811 28.9057 17.9654 29.028 18.0057L28.5657 19.4731C28.2149 19.458 27.87 19.3778 27.5486 19.2366C27.2763 19.0993 27.0511 18.8841 26.9017 18.6183C26.6971 18.9177 26.4177 19.1584 26.0913 19.3165C25.765 19.4745 25.4029 19.5445 25.0411 19.5194C24.7714 19.5313 24.5019 19.4889 24.2489 19.3947C23.9958 19.3005 23.7643 19.1563 23.568 18.9709C23.3818 18.7864 23.2359 18.5653 23.1395 18.3216C23.0431 18.0779 22.9983 17.8168 23.008 17.5549C22.9921 17.2499 23.0537 16.9458 23.1869 16.6711C23.3202 16.3963 23.5209 16.1597 23.7703 15.9834C24.4366 15.5794 25.211 15.3899 25.9886 15.4406H26.428V15.2903C26.4417 15.1791 26.4324 15.0663 26.4005 14.959C26.3687 14.8516 26.315 14.752 26.2429 14.6663C26.0327 14.5351 25.7846 14.4782 25.5383 14.5046C25.2991 14.5108 25.0611 14.5396 24.8274 14.5909C24.5282 14.6516 24.2329 14.7308 23.9434 14.828L23.4463 13.372C24.2236 13.0661 25.0494 12.9017 25.8846 12.8869C26.633 12.8226 27.3804 13.0205 27.9989 13.4469C28.2297 13.6653 28.4087 13.9326 28.5227 14.2293C28.6367 14.5259 28.6828 14.8443 28.6577 15.1611L28.6583 17.2891ZM25.744 17.9131C25.88 17.914 26.0136 17.878 26.1309 17.8091C26.2471 17.7428 26.3477 17.6522 26.4257 17.5434V16.6291H26.1829C25.9319 16.6093 25.6811 16.6693 25.4663 16.8006C25.3879 16.8639 25.326 16.9454 25.2862 17.038C25.2464 17.1306 25.2297 17.2315 25.2377 17.332C25.2292 17.485 25.2788 17.6356 25.3766 17.7537C25.4229 17.8054 25.48 17.8462 25.544 17.8731C25.6079 17.9001 25.677 17.9126 25.7463 17.9097L25.744 17.9131Z" fill="#4D3951"/>
</svg>
