<svg width="32" height="32" viewBox="0 0 32 32" fill="none" xmlns="http://www.w3.org/2000/svg">
<rect width="32" height="32" fill="#0251CB"/>
<path d="M11.1185 15.0762C11.0472 14.9829 10.9531 14.9096 10.8452 14.8633C10.7372 14.8171 10.6192 14.7994 10.5025 14.8121C10.3857 14.8248 10.2742 14.8674 10.1788 14.9357C10.0833 15.0041 10.0071 15.0959 9.95749 15.2024L4.07422 26.9652C4.02063 27.0724 3.99532 27.1916 4.00071 27.3113C4.0061 27.431 4.042 27.5474 4.10501 27.6494C4.16802 27.7513 4.25604 27.8355 4.36072 27.8938C4.4654 27.9522 4.58326 27.9829 4.70312 27.9829H12.8953C13.0265 27.9859 13.1557 27.9508 13.2674 27.8818C13.379 27.8128 13.4682 27.7129 13.5242 27.5941C15.2913 23.9425 14.2203 18.3902 11.1185 15.0762Z" fill="url(#paint0_linear_240_34)"/>
<path d="M15.4336 4.37735C13.9677 6.63297 13.1134 9.23097 12.9546 11.9164C12.7958 14.6018 13.3379 17.2824 14.5278 19.6951L18.4773 27.5941C18.5357 27.7109 18.6255 27.8092 18.7365 27.8778C18.8476 27.9465 18.9756 27.9829 19.1062 27.9829H27.2969C27.4167 27.9829 27.5346 27.9522 27.6393 27.8938C27.7439 27.8355 27.832 27.7513 27.895 27.6494C27.958 27.5474 27.9939 27.431 27.9993 27.3113C28.0047 27.1916 27.9794 27.0724 27.9258 26.9652C27.9258 26.9652 16.9066 4.92423 16.6296 4.37294C16.5749 4.26072 16.4896 4.16621 16.3836 4.10025C16.2776 4.03429 16.1551 3.99954 16.0302 4C15.9054 4.00047 15.7832 4.03611 15.6776 4.10286C15.5721 4.1696 15.4875 4.26474 15.4336 4.37735Z" fill="white"/>
<defs>
<linearGradient id="paint0_linear_240_34" x1="15.5" y1="12.5" x2="8.13407" y2="27.6456" gradientUnits="userSpaceOnUse">
<stop stop-color="white" stop-opacity="0.27"/>
<stop offset="0.923" stop-color="white"/>
</linearGradient>
</defs>
</svg>
