<svg width="32" height="32" viewBox="0 0 32 32" fill="none" xmlns="http://www.w3.org/2000/svg">
<rect width="32" height="32" fill="#FFE141"/>
<path d="M5.51796 12.7688C5.99104 12.7688 6.41347 12.8871 6.78522 13.1236C7.16034 13.3568 7.45434 13.6879 7.66722 14.117C7.87336 14.5293 7.97644 15.0141 7.97644 15.5716C7.97644 16.1123 7.87336 16.5954 7.66722 17.0211C7.46108 17.4469 7.17048 17.7797 6.79536 18.0196C6.41684 18.2629 5.99104 18.3845 5.51796 18.3845C5.17324 18.3845 4.84882 18.3136 4.54468 18.1717C4.24053 18.0298 3.98032 17.8304 3.76404 17.5736V18.2578H2V11H3.76404V13.5747C3.98032 13.3179 4.24053 13.1202 4.54468 12.9817C4.84882 12.8398 5.17324 12.7688 5.51796 12.7688ZM4.99076 16.9198C5.24083 16.9198 5.46387 16.8624 5.65987 16.7475C5.85587 16.6326 6.00963 16.4721 6.12118 16.266C6.23269 16.0632 6.28845 15.8318 6.28845 15.5716C6.28845 15.3182 6.23269 15.0885 6.12118 14.8823C6.00963 14.6762 5.85587 14.5157 5.65987 14.4008C5.46387 14.286 5.24083 14.2285 4.99076 14.2285C4.7542 14.2285 4.54299 14.286 4.35712 14.4008C4.17126 14.5123 4.02594 14.6695 3.92118 14.8722C3.81642 15.0783 3.76404 15.3114 3.76404 15.5716C3.76404 15.8318 3.81642 16.0649 3.92118 16.2711C4.02594 16.4738 4.17126 16.6326 4.35712 16.7475C4.54299 16.8624 4.7542 16.9198 4.99076 16.9198Z" fill="black"/>
<path d="M8.21796 18.2578V11H9.98199V18.2578H8.21796Z" fill="black"/>
<path d="M10.482 18.2578V12.8905H12.2359V18.2578H10.482Z" fill="black"/>
<path d="M16.046 12.7688C16.4211 12.7688 16.759 12.8567 17.0598 13.0324C17.3606 13.2047 17.5971 13.448 17.7695 13.7622C17.9351 14.0798 18.0179 14.4397 18.0179 14.8418V18.2578H16.3349V15.2371C16.3349 15.0411 16.2961 14.8671 16.2184 14.7151C16.144 14.5596 16.0376 14.4397 15.899 14.3552C15.7638 14.2708 15.605 14.2285 15.4225 14.2285C15.2502 14.2285 15.0914 14.2708 14.946 14.3552C14.8007 14.4363 14.6875 14.5478 14.6064 14.6897C14.5219 14.8249 14.4797 14.9837 14.4797 15.1662L14.4696 18.2578H12.7156V12.8905H14.4696V13.5038C14.6351 13.274 14.8565 13.0949 15.1336 12.9665C15.4107 12.8347 15.7149 12.7688 16.046 12.7688Z" fill="black"/>
<path d="M21.894 15.2371L23.8861 18.2578H21.894L20.7281 16.3572L20.1907 16.9806V18.2578H18.4267V11H20.1907V15.009L21.8838 12.8905H23.8759L21.894 15.2371Z" fill="black"/>
<path d="M10.481 11.0006H12.2407V12.3765H10.481V11.0006Z" fill="black"/>
<path d="M24.166 18.2417V12.8744H25.9199V18.2417H24.166Z" fill="#0C831F"/>
<path d="M29.6285 16.7263L29.9782 17.8565C29.8194 18.0086 29.6183 18.1319 29.375 18.2265C29.1351 18.3211 28.9002 18.3684 28.6704 18.3684C28.3392 18.3684 28.0435 18.2958 27.7833 18.1505C27.5231 18.0018 27.3203 17.7957 27.175 17.5322C27.0297 17.2754 26.9571 16.9797 26.9571 16.6452V14.2783H26.2524V12.8744H26.9571V11.0006H28.64V12.8744H29.7501V14.2783H28.64V16.3208C28.64 16.4931 28.6856 16.6334 28.7769 16.7415C28.8681 16.8496 28.9847 16.9037 29.1266 16.9037C29.228 16.9037 29.3226 16.8885 29.4105 16.8581C29.4984 16.8277 29.571 16.7837 29.6285 16.7263Z" fill="#0C831F"/>
<path d="M24.1521 11.0006H25.9118V12.3765H24.1521V11.0006Z" fill="#0C831F"/>
<path d="M13.3968 19.628V19.7901H13.7009V19.9209H13.3968V20.9741H13.2548V19.9209H13.0625V19.7901H13.2548V19.628C13.2548 19.5705 13.2664 19.5191 13.2895 19.4737C13.3133 19.4274 13.3465 19.3909 13.389 19.3641C13.4307 19.338 13.4777 19.325 13.5299 19.325C13.6096 19.325 13.6827 19.3503 13.749 19.401L13.6763 19.5061C13.642 19.4725 13.5962 19.4558 13.5388 19.4558C13.512 19.4558 13.4877 19.4632 13.4661 19.4781C13.4445 19.493 13.4274 19.5135 13.4147 19.5396C13.4028 19.5657 13.3968 19.5951 13.3968 19.628Z" fill="#232323"/>
<path d="M14.4992 21.002C14.3919 21.002 14.2905 20.9737 14.1951 20.9171C14.1004 20.8604 14.0255 20.784 13.9704 20.6879C13.9137 20.5954 13.8854 20.4933 13.8854 20.3815C13.8854 20.272 13.913 20.1698 13.9681 20.0752C14.0233 19.9798 14.099 19.9037 14.1951 19.8471C14.2875 19.7912 14.3889 19.7632 14.4992 19.7632C14.6066 19.7632 14.7072 19.7912 14.8011 19.8471C14.8957 19.9022 14.9714 19.9779 15.0281 20.0741C15.0832 20.1694 15.1108 20.272 15.1108 20.3815C15.1108 20.4903 15.0832 20.5928 15.0281 20.689C14.9729 20.7844 14.8984 20.8604 14.8044 20.9171C14.712 20.9737 14.6103 21.002 14.4992 21.002ZM14.4992 20.8712C14.5812 20.8712 14.658 20.8492 14.7295 20.8052C14.8011 20.7605 14.8581 20.7002 14.9006 20.6242C14.9416 20.5474 14.9621 20.4665 14.9621 20.3815C14.9621 20.2951 14.9412 20.2145 14.8995 20.14C14.8585 20.0647 14.8022 20.0047 14.7307 19.96C14.6576 19.9153 14.5805 19.8929 14.4992 19.8929C14.4165 19.8929 14.3393 19.9149 14.2678 19.9589C14.1962 20.0029 14.1399 20.0625 14.099 20.1378C14.0557 20.2123 14.0341 20.2936 14.0341 20.3815C14.0341 20.468 14.055 20.5488 14.0967 20.6242C14.1384 20.6994 14.1955 20.7594 14.2678 20.8041C14.3408 20.8489 14.418 20.8712 14.4992 20.8712Z" fill="#232323"/>
<path d="M15.5524 19.7901V20.0327C15.574 19.979 15.6072 19.9321 15.6519 19.8918C15.6974 19.8508 15.751 19.8191 15.8129 19.7968C15.8748 19.7744 15.9407 19.7632 16.0108 19.7632V19.8929C15.9236 19.8929 15.8453 19.9108 15.776 19.9466C15.7067 19.9824 15.6519 20.0319 15.6117 20.0953C15.5722 20.1594 15.5524 20.2317 15.5524 20.3122V20.9741H15.4104V19.7901H15.5524Z" fill="#232323"/>
<path d="M17.5079 19.7632C17.5869 19.7632 17.6581 19.7822 17.7214 19.8202C17.7848 19.8582 17.8343 19.9116 17.8701 19.9801C17.9051 20.0539 17.9226 20.1318 17.9226 20.2138V20.9741H17.7807V20.2317C17.7807 20.1668 17.7684 20.1087 17.7438 20.0573C17.7192 20.0051 17.6845 19.9645 17.6398 19.9354C17.5943 19.9071 17.5436 19.8929 17.4877 19.8929C17.4237 19.8929 17.3662 19.9063 17.3155 19.9332C17.2656 19.96 17.2265 19.998 17.1982 20.0472C17.1699 20.0957 17.1557 20.1512 17.1557 20.2138V20.9741H17.0137V20.2317C17.0137 20.1668 17.0014 20.1087 16.9768 20.0573C16.9522 20.0051 16.9179 19.9645 16.8739 19.9354C16.83 19.9071 16.7797 19.8929 16.723 19.8929C16.6589 19.8929 16.6015 19.9063 16.5508 19.9332C16.5009 19.96 16.4618 19.998 16.4334 20.0472C16.4051 20.0957 16.3909 20.1512 16.3909 20.2138V20.9741H16.249V19.7901H16.3909V19.9645C16.4193 19.9011 16.4644 19.8519 16.5262 19.8169C16.5881 19.7811 16.6596 19.7632 16.7409 19.7632C16.8281 19.7632 16.9049 19.786 16.9712 19.8314C17.0375 19.8761 17.0867 19.9388 17.1188 20.0193C17.1345 19.9686 17.1609 19.9239 17.1982 19.8851C17.2362 19.8463 17.2824 19.8161 17.3368 19.7945C17.3897 19.7737 17.4468 19.7632 17.5079 19.7632Z" fill="#232323"/>
<path d="M18.7993 20.8712C18.8753 20.8712 18.9498 20.8578 19.0229 20.831C19.0959 20.8034 19.1526 20.7672 19.1928 20.7225L19.2822 20.8187C19.2509 20.8537 19.2085 20.8854 19.1548 20.9137C19.1019 20.9413 19.0437 20.9629 18.9804 20.9786C18.9178 20.9942 18.8574 21.002 18.7993 21.002C18.6949 21.002 18.5969 20.9748 18.5052 20.9204C18.4143 20.8653 18.342 20.79 18.2883 20.6946C18.2332 20.5992 18.2056 20.4941 18.2056 20.3793C18.2056 20.2675 18.2317 20.1642 18.2839 20.0696C18.336 19.9749 18.4076 19.8993 18.4985 19.8426C18.5895 19.7897 18.6867 19.7632 18.7903 19.7632C18.9036 19.7632 19.0024 19.7908 19.0866 19.846C19.1716 19.9004 19.2375 19.9787 19.2845 20.0808C19.3285 20.1858 19.3504 20.3051 19.3504 20.4385H18.3498C18.358 20.5198 18.3826 20.5936 18.4236 20.6599C18.4653 20.7262 18.5187 20.7777 18.5835 20.8142C18.6483 20.8522 18.7202 20.8712 18.7993 20.8712ZM18.7948 19.8929C18.7188 19.8929 18.6487 19.9104 18.5846 19.9455C18.5213 19.9805 18.4691 20.0293 18.4281 20.0919C18.3878 20.1545 18.3625 20.2265 18.3521 20.3077H19.2085C19.2025 20.225 19.182 20.1523 19.147 20.0897C19.112 20.0271 19.0642 19.9787 19.0039 19.9444C18.9442 19.9101 18.8746 19.8929 18.7948 19.8929Z" fill="#232323"/>
<path d="M19.7921 19.7901V20.0327C19.8137 19.979 19.8469 19.9321 19.8916 19.8918C19.937 19.8508 19.9907 19.8191 20.0526 19.7968C20.1145 19.7744 20.1804 19.7632 20.2505 19.7632V19.8929C20.1633 19.8929 20.085 19.9108 20.0157 19.9466C19.9464 19.9824 19.8916 20.0319 19.8513 20.0953C19.8118 20.1594 19.7921 20.2317 19.7921 20.3122V20.9741H19.6501V19.7901H19.7921Z" fill="#232323"/>
<path d="M20.4886 20.9741V19.373H20.6306V20.9741H20.4886Z" fill="#232323"/>
<path d="M21.1338 21.3866C21.0697 21.3866 21.007 21.3736 20.9459 21.3475L20.9828 21.2212C21.0261 21.2443 21.0749 21.2558 21.1293 21.2558C21.174 21.2558 21.2116 21.2469 21.2422 21.229C21.2735 21.2111 21.3 21.1835 21.3216 21.1462L21.392 20.992L20.8721 19.7901H21.0287L21.4658 20.8231L21.8806 19.7901H22.0338L21.4882 21.1205C21.4524 21.2107 21.4055 21.2771 21.3473 21.3196C21.2899 21.3628 21.2187 21.3852 21.1338 21.3866Z" fill="#232323"/>
<path d="M24.3543 20.2958V20.8943H24.0418L24.0393 19.6129H24.3541V19.7456C24.3686 19.7211 24.4607 19.6002 24.7222 19.615V19.9232C24.7222 19.9232 24.3686 19.8961 24.3541 20.2637C24.3543 20.2637 24.3543 20.2859 24.3543 20.2958Z" fill="black"/>
<path d="M28.5195 20.2958V20.8943H28.2071L28.2046 19.6129H28.5195V19.7456C28.5341 19.7211 28.6262 19.6002 28.8877 19.615V19.9232C28.8877 19.9232 28.5341 19.8961 28.5195 20.2637C28.5195 20.2637 28.5195 20.2859 28.5195 20.2958Z" fill="black"/>
<path d="M25.8427 20.727C25.7165 20.8555 25.5602 20.9197 25.3785 20.9197C25.1943 20.9197 25.0404 20.8555 24.9143 20.727C24.7881 20.5985 24.7251 20.4419 24.7251 20.2543C24.7251 20.0668 24.7881 19.9101 24.9143 19.7816C25.0404 19.6531 25.1943 19.589 25.3785 19.589C25.5626 19.589 25.7165 19.6531 25.8427 19.7816C25.9689 19.9101 26.0343 20.0668 26.0343 20.2543C26.0346 20.4419 25.9689 20.5985 25.8427 20.727ZM25.1388 20.5035C25.2018 20.5676 25.2826 20.6011 25.3785 20.6011C25.4743 20.6011 25.5552 20.5676 25.6182 20.5035C25.6811 20.4394 25.714 20.3545 25.714 20.2543C25.714 20.1542 25.6811 20.0693 25.6182 20.0052C25.555 19.941 25.4743 19.9076 25.3785 19.9076C25.2826 19.9076 25.2045 19.941 25.1388 20.0052C25.0756 20.0693 25.0429 20.1542 25.0429 20.2543C25.0429 20.3545 25.0756 20.4391 25.1388 20.5035Z" fill="black"/>
<path d="M27.1323 20.3888C27.1751 20.5478 27.2909 20.6246 27.4797 20.6246C27.6005 20.6246 27.6936 20.5835 27.7566 20.4991L28.0133 20.6504C27.8926 20.8299 27.7112 20.9197 27.4745 20.9197C27.2705 20.9197 27.107 20.8556 26.9835 20.73C26.8602 20.6045 26.7972 20.4455 26.7972 20.2531C26.7972 20.0634 26.8577 19.9045 26.981 19.7789C27.1017 19.6534 27.2604 19.5892 27.4518 19.5892C27.6331 19.5892 27.7815 19.6534 27.9 19.7814C28.0183 19.9097 28.0763 20.066 28.0763 20.2556C28.0763 20.2967 28.0713 20.3429 28.0636 20.389H27.1323V20.3888ZM27.1273 20.135H27.7566C27.7389 20.0503 27.7013 19.9864 27.6433 19.9428C27.5853 19.9017 27.5225 19.8786 27.4495 19.8786C27.3639 19.8786 27.2934 19.9017 27.2381 19.9453C27.1826 19.994 27.1448 20.0556 27.1273 20.135Z" fill="black"/>
<path d="M29.3368 19.9783C29.3368 20.0116 29.3594 20.0399 29.4023 20.0605C29.4451 20.081 29.4979 20.099 29.5609 20.117C29.6239 20.1324 29.6869 20.153 29.7498 20.1786C29.8128 20.2042 29.8656 20.2427 29.9085 20.3018C29.9513 20.3583 29.9739 20.4301 29.9739 20.5173C29.9739 20.6456 29.9261 20.7455 29.8303 20.8147C29.7347 20.884 29.6162 20.92 29.4752 20.92C29.2208 20.92 29.047 20.8198 28.9564 20.6198L29.2334 20.4608C29.2688 20.5711 29.3517 20.6248 29.4752 20.6248C29.5885 20.6248 29.6465 20.5889 29.6465 20.5171C29.6465 20.4837 29.6239 20.4555 29.581 20.435C29.5382 20.4144 29.4854 20.3939 29.4224 20.3784C29.3594 20.3604 29.2965 20.3399 29.2334 20.3143C29.1705 20.2887 29.1177 20.2501 29.0748 20.1938C29.032 20.1401 29.0093 20.0706 29.0093 19.9887C29.0093 19.8655 29.0547 19.7656 29.1453 19.6964C29.2359 19.6246 29.3468 19.5886 29.4802 19.5886C29.581 19.5886 29.6717 19.6117 29.7548 19.6578C29.838 19.704 29.9035 19.7707 29.9513 19.8554L29.6794 20.0067C29.639 19.922 29.5735 19.8784 29.4804 19.8784C29.4401 19.8784 29.4049 19.8886 29.3771 19.9066C29.3519 19.9218 29.3368 19.9474 29.3368 19.9783Z" fill="black"/>
<path d="M23.8898 19.6125H23.5801L23.5803 19.7109C23.4715 19.6305 23.348 19.5902 23.2048 19.5902H23.2023C23.1973 19.5902 23.1923 19.5902 23.1851 19.5902C23.0541 19.5902 22.9381 19.6254 22.8391 19.6984C22.6687 19.8115 22.5575 20.0077 22.5575 20.2317C22.5575 20.3073 22.5697 20.3801 22.5945 20.4455C22.6242 20.5412 22.676 20.6292 22.7502 20.7046C22.8737 20.8303 23.0244 20.8932 23.2048 20.8932C23.348 20.8932 23.474 20.853 23.5803 20.7726V20.8229C23.5803 20.9211 23.5505 20.9991 23.4938 21.052C23.437 21.1049 23.3578 21.1324 23.2566 21.1324C23.1034 21.1324 22.9946 21.0746 22.9329 20.9563L22.6612 21.1148C22.7155 21.2154 22.7947 21.291 22.8959 21.3439C22.9971 21.3968 23.1133 21.4218 23.2468 21.4218C23.4248 21.4218 23.5755 21.3714 23.7014 21.2683C23.8274 21.1652 23.8892 21.0168 23.8892 20.8229L23.8898 19.6125ZM22.9676 20.4834C22.9084 20.4205 22.8786 20.34 22.8786 20.2418C22.8786 20.1436 22.9107 20.0606 22.9726 19.9978C23.0343 19.9349 23.1133 19.9021 23.2073 19.9021C23.3013 19.9021 23.3803 19.9347 23.442 19.9978C23.5038 20.0606 23.536 20.1436 23.536 20.2418C23.536 20.3398 23.504 20.423 23.442 20.4859C23.3803 20.5488 23.3013 20.5816 23.2073 20.5816C23.1925 20.5816 23.1801 20.5816 23.1653 20.5791C23.0861 20.5689 23.0194 20.5335 22.9676 20.4834Z" fill="black"/>
<path d="M26.2132 19.9349L26.2179 20.8943H26.5304L26.5256 19.9349H26.7844V19.6131H26.5304C26.5428 19.4831 26.6275 19.4217 26.7846 19.434V19.1309C26.5957 19.1186 26.4528 19.158 26.3585 19.2492C26.2695 19.3324 26.2236 19.4545 26.2158 19.6131H26.0383V19.9347L26.2132 19.9349Z" fill="black"/>
</svg>
