<svg width="32" height="32" viewBox="0 0 32 32" fill="none" xmlns="http://www.w3.org/2000/svg">
<rect width="32" height="32" fill="white"/>
<path fill-rule="evenodd" clip-rule="evenodd" d="M30 16C30 23.7322 23.7322 30 16 30C8.26805 30 2 23.7322 2 16C2 8.26805 8.26805 2 16 2C23.7322 2 30 8.26805 30 16Z" fill="#ECB360"/>
<path fill-rule="evenodd" clip-rule="evenodd" d="M26.2667 14.6C26.2667 21.5587 20.8341 27.2 14.1333 27.2C7.43233 27.2 2 21.5587 2 14.6C2 7.64126 7.43233 2 14.1333 2C20.8341 2 26.2667 7.64126 26.2667 14.6" fill="#D76835"/>
<path fill-rule="evenodd" clip-rule="evenodd" d="M27.2 13.1999C27.2 19.3856 22.3945 24.4 16.4663 24.4C10.5388 24.4 5.73334 19.3856 5.73334 13.1999C5.73334 7.01444 10.5388 2 16.4663 2C22.3945 2 27.2 7.01444 27.2 13.1999" fill="#D33A41"/>
<path fill-rule="evenodd" clip-rule="evenodd" d="M26.2667 14.1335C26.2667 19.8033 21.8789 24.4 16.4665 24.4C11.0541 24.4 6.66666 19.8033 6.66666 14.1335C6.66666 8.46309 11.0541 3.86667 16.4665 3.86667C21.8789 3.86667 26.2667 8.46309 26.2667 14.1335" fill="#B6CB46"/>
<path fill-rule="evenodd" clip-rule="evenodd" d="M25.3333 15.0665C25.3333 20.2212 21.1545 24.4 15.9999 24.4C10.8454 24.4 6.66666 20.2212 6.66666 15.0665C6.66666 9.91185 10.8454 5.73333 15.9999 5.73333C21.1545 5.73333 25.3333 9.91185 25.3333 15.0665Z" fill="#66AD4A"/>
<path fill-rule="evenodd" clip-rule="evenodd" d="M21.6 13.2C21.6 17.3237 18.257 20.6667 14.1333 20.6667C10.0094 20.6667 6.66666 17.3237 6.66666 13.2C6.66666 9.07628 10.0094 5.73333 14.1333 5.73333C18.257 5.73333 21.6 9.07628 21.6 13.2" fill="#AED7DC"/>
<path fill-rule="evenodd" clip-rule="evenodd" d="M22.5333 12.2667C22.5333 15.8748 19.6084 18.8 15.9999 18.8C12.3914 18.8 9.46667 15.8748 9.46667 12.2667C9.46667 8.65825 12.3914 5.73333 15.9999 5.73333C19.6084 5.73333 22.5333 8.65825 22.5333 12.2667Z" fill="#5BB1CF"/>
<path fill-rule="evenodd" clip-rule="evenodd" d="M22.5333 12.7332C22.5333 16.0837 20.0262 18.8 16.9333 18.8C13.8405 18.8 11.3333 16.0837 11.3333 12.7332C11.3333 9.38294 13.8405 6.66666 16.9333 6.66666C20.0262 6.66666 22.5333 9.38294 22.5333 12.7332Z" fill="#25A8C3"/>
<path fill-rule="evenodd" clip-rule="evenodd" d="M15.9999 18.8C13.4228 18.8 11.3333 16.5016 11.3333 13.6665C11.3333 10.8314 13.4228 8.53333 15.9999 8.53333C18.5772 8.53333 20.6667 10.8314 20.6667 13.6665C20.6667 16.5016 18.5772 18.8 15.9999 18.8Z" fill="#1B1A18"/>
<path fill-rule="evenodd" clip-rule="evenodd" d="M18.5463 12.1865C18.1024 12.9292 17.2295 13.3587 16.5964 13.1452C15.9633 12.932 15.81 12.1567 16.2537 11.4137C16.6976 10.6707 17.5705 10.2415 18.2036 10.4547C18.8367 10.6679 18.99 11.4433 18.5463 12.1865Z" fill="#FFFFFE"/>
</svg>
