<svg width="32" height="32" viewBox="0 0 32 32" fill="none" xmlns="http://www.w3.org/2000/svg">
<rect width="32" height="32" fill="#3842F8"/>
<path d="M2 14.5607V14.5523C2 13.7434 2.59764 13.0737 3.42942 13.0737C3.94197 13.0737 4.24904 13.2575 4.53151 13.5269L4.31358 13.764C4.07539 13.535 3.80884 13.3715 3.42537 13.3715C2.79965 13.3715 2.33138 13.8864 2.33138 14.5439V14.5523C2.33138 15.2139 2.8037 15.7328 3.42537 15.7328C3.81289 15.7328 4.06729 15.5818 4.33789 15.3204L4.54772 15.5285C4.25309 15.8307 3.93011 16.0309 3.41726 16.0309C2.60169 16.0312 2 15.3818 2 14.5607ZM8.48463 15.9823V13.1226H8.80356V15.9823H8.48463ZM9.631 13.1226H9.92967L11.7102 15.4142V13.1226H12.021V15.982H11.7666L9.94154 13.6372V15.982H9.63071V13.1226H9.631ZM15.1794 13.1226H15.8453L16.4308 15.0588L17.0646 13.1139H17.5977L18.2315 15.0588L18.817 13.1226H19.467L18.5021 16.0029H17.9612L17.3234 14.1318L16.6855 16.0029H16.1446L15.1794 13.1226ZM19.9559 15.9823V13.1226H20.5778V15.9823H19.9559ZM21.9421 13.7026H21.0823V13.1226H23.4242V13.7026H22.5644V15.982H21.9424L21.9421 13.7026ZM7.45084 14.5607V14.5523C7.45084 13.9029 6.98256 13.3715 6.3363 13.3715C5.69004 13.3715 5.23016 13.8945 5.23016 14.5439V14.5523C5.23016 15.2021 5.69843 15.7328 6.3444 15.7328C6.99038 15.7331 7.45084 15.2102 7.45084 14.5607ZM4.89907 14.5607V14.5523C4.89907 13.764 5.48426 13.0737 6.3444 13.0737C7.20454 13.0737 7.78164 13.7559 7.78164 14.5442V14.5526C7.78164 15.341 7.19615 16.0315 6.3363 16.0315C5.47645 16.0315 4.89907 15.3488 4.89907 14.5607ZM23.6543 14.5607V14.5523C23.6543 13.7394 24.26 13.0737 25.128 13.0737C25.6611 13.0737 25.98 13.2531 26.2422 13.5148L25.8466 13.9764C25.6287 13.7761 25.4067 13.6537 25.1239 13.6537C24.6476 13.6537 24.3043 14.0542 24.3043 14.5442V14.5526C24.3043 15.0429 24.6395 15.4512 25.1239 15.4512C25.4469 15.4512 25.6446 15.3207 25.8669 15.1161L26.2628 15.5207C25.9722 15.8353 25.6492 16.0312 25.104 16.0312C24.2719 16.0312 23.6543 15.3818 23.6543 14.5607ZM26.7591 13.1226H27.3811V14.2542H28.5275V13.1226H29.1494V15.982H28.5275V14.8342H27.3811V15.982H26.7591V13.1226ZM13.378 15.7629C13.3763 15.7641 13.3752 15.7656 13.3734 15.7664C13.3569 15.7792 13.3393 15.7899 13.3205 15.7991H13.3202C13.2817 15.8185 13.2397 15.8307 13.1951 15.835C13.1839 15.8362 13.1729 15.8382 13.1613 15.8382C13.159 15.8382 13.1564 15.8382 13.154 15.8382C12.9567 15.8341 12.7998 15.6692 12.8039 15.4692C12.8079 15.2718 12.9671 15.1149 13.161 15.1149C13.1636 15.1149 13.1659 15.1149 13.1685 15.1149C13.3587 15.119 13.5097 15.2727 13.517 15.4622C13.5173 15.4698 13.5187 15.4764 13.5184 15.4837C13.5181 15.5077 13.5152 15.5308 13.5103 15.5531C13.5083 15.5627 13.5045 15.5716 13.5019 15.5806C13.4982 15.5928 13.495 15.6055 13.4901 15.6171C13.4848 15.6295 13.4782 15.6408 13.4715 15.6524C13.4675 15.6599 13.4637 15.6674 13.4594 15.6747C13.4504 15.6883 13.4403 15.701 13.4296 15.7132C13.4264 15.7166 13.4235 15.7207 13.42 15.7245C13.407 15.7389 13.3928 15.7511 13.378 15.7629ZM14.0559 13.4925C14.0527 13.4731 14.0506 13.4528 14.0512 13.432C14.0515 13.4103 14.0547 13.3895 14.0588 13.3686C14.0599 13.3631 14.0611 13.3573 14.0625 13.3518C14.0669 13.3342 14.0724 13.3171 14.079 13.3009C14.0819 13.2939 14.0851 13.2876 14.0883 13.2809C14.0941 13.2691 14.1004 13.2575 14.1074 13.2468C14.1129 13.2381 14.1184 13.2297 14.1244 13.2216C14.1288 13.2158 14.1334 13.2106 14.1381 13.2051C14.1525 13.188 14.1684 13.1724 14.1861 13.1585C14.1884 13.1565 14.1907 13.1545 14.1933 13.1527C14.2046 13.1443 14.2159 13.1362 14.2283 13.129C14.2816 13.0974 14.3424 13.0783 14.4084 13.0783C14.411 13.0783 14.4133 13.0783 14.4159 13.0783C14.6133 13.0824 14.7698 13.2474 14.7658 13.4473C14.762 13.6444 14.6029 13.8016 14.4087 13.8016C14.4061 13.8016 14.4037 13.8016 14.4011 13.8016C14.2431 13.7984 14.1126 13.6907 14.0683 13.5457C14.0631 13.5281 14.0585 13.5104 14.0559 13.4925ZM14.0229 14.2192C14.593 14.3819 14.9117 14.5969 14.9018 15.095V15.1034C14.8946 15.4738 14.7068 15.7337 14.4081 15.8668L14.4084 15.8674C14.1797 15.9971 13.6293 16.013 13.3422 16.0118C13.5575 15.936 13.7155 15.7305 13.7201 15.4889C13.7204 15.4773 13.7196 15.466 13.719 15.4547C13.8327 15.4449 13.9496 15.4261 14.0671 15.3908V15.3905C14.2014 15.3526 14.2804 15.2698 14.2828 15.152V15.1436C14.2859 14.9841 14.1904 14.9008 13.7207 14.7685C13.1546 14.6099 12.7902 14.4432 12.8015 13.8757V13.8673C12.8082 13.535 12.9827 13.2789 13.2588 13.1406L13.2585 13.1397C13.4675 13.0123 13.8362 12.9967 14.0564 13.0005C13.9329 13.1024 13.8521 13.256 13.8486 13.4277C13.8478 13.4702 13.8518 13.5113 13.8599 13.5512C13.7679 13.5599 13.6788 13.5787 13.5702 13.6193C13.4738 13.6618 13.422 13.7359 13.4203 13.823V13.8311C13.4171 14.0186 13.5369 14.0826 14.0229 14.2192Z" fill="white"/>
<path d="M2.28943 18.7182H17.8744" stroke="white" stroke-width="0.25" stroke-miterlimit="10"/>
<path d="M19.5449 18.7043H19.3878V19.598H18.9586V17.458H19.3878V18.3324H19.5082L20.0945 17.458H20.625L19.8844 18.4531L20.6823 19.598H20.1356L19.5449 18.7043Z" fill="white"/>
<path d="M22.8133 17.4578V18.8582C22.8133 19.0993 22.7334 19.288 22.5736 19.424C22.4139 19.5604 22.2066 19.6284 21.952 19.6284C21.6981 19.6284 21.4921 19.5604 21.3341 19.424C21.1757 19.2877 21.0967 19.0993 21.0967 18.8582V17.4578H21.5274V18.8582C21.5274 19.0012 21.5656 19.1106 21.642 19.1859C21.7184 19.2614 21.8217 19.299 21.952 19.299C22.0842 19.299 22.189 19.2614 22.2666 19.1859C22.3438 19.1103 22.3826 19.0012 22.3826 18.8582V17.4578H22.8133Z" fill="white"/>
<path d="M23.426 19.5977V17.4578H24.1269C24.3787 17.4578 24.5752 17.507 24.7162 17.6054C24.8571 17.7038 24.9277 17.8502 24.9277 18.0441C24.9277 18.1422 24.9023 18.2299 24.8513 18.3072C24.8004 18.3845 24.726 18.4429 24.6279 18.482C24.761 18.5066 24.8615 18.5642 24.9292 18.6554C24.9969 18.7465 25.0305 18.8527 25.0305 18.9743C25.0305 19.1792 24.9628 19.334 24.8276 19.4394C24.6924 19.5447 24.5009 19.5974 24.2528 19.5974L23.426 19.5977ZM23.8552 18.3544H24.1417C24.2563 18.3544 24.3446 18.3309 24.4062 18.2837C24.4679 18.2366 24.4988 18.1683 24.4988 18.078C24.4988 17.979 24.4676 17.9061 24.4056 17.8589C24.3434 17.8117 24.2505 17.7883 24.1272 17.7883H23.8555V18.3544H23.8552ZM23.8552 18.6513V19.2686H24.2534C24.3671 19.2686 24.4537 19.244 24.5136 19.1945C24.5732 19.145 24.6033 19.0718 24.6033 18.9749C24.6033 18.871 24.5738 18.7911 24.515 18.7352C24.4563 18.6794 24.3674 18.6516 24.2491 18.6516H23.8552V18.6513Z" fill="white"/>
<path d="M26.8075 18.6571H26.0139V19.2686H26.9574V19.598H25.5847V17.458H26.9545V17.7888H26.0139V18.3269H26.8075V18.6571V18.6571Z" fill="white"/>
<path d="M27.9287 18.7425V19.5977H27.4995V17.4578H28.2401C28.4841 17.4578 28.6748 17.5133 28.8126 17.6245C28.9503 17.7356 29.0189 17.8907 29.0189 18.0895C29.0189 18.1992 28.9897 18.2942 28.9315 18.374C28.8733 18.4539 28.7882 18.5185 28.6765 18.5674C28.803 18.6047 28.8939 18.6669 28.9492 18.754C29.0044 18.8412 29.0322 18.9491 29.0322 19.0773V19.2345C29.0322 19.2944 29.0403 19.3566 29.0565 19.4217C29.0727 19.4868 29.1002 19.5352 29.1396 19.5664V19.5974H28.6971C28.658 19.5661 28.6325 19.514 28.6213 19.4417C28.61 19.3693 28.6045 19.299 28.6045 19.2316V19.0805C28.6045 18.9737 28.5752 18.8906 28.5171 18.8313C28.4589 18.772 28.3761 18.7425 28.2693 18.7425H27.9287ZM27.9287 18.4117H28.2329C28.3533 18.4117 28.443 18.3862 28.5017 18.3353C28.5605 18.2843 28.59 18.2088 28.59 18.1089C28.59 18.0111 28.5605 17.933 28.5011 17.8754C28.4418 17.8175 28.355 17.7886 28.2404 17.7886H27.9287V18.4117Z" fill="white"/>
</svg>
