<svg width="32" height="32" viewBox="0 0 32 32" fill="none" xmlns="http://www.w3.org/2000/svg">
<rect width="32" height="32" fill="black"/>
<g clip-path="url(#clip0)">
<path d="M7.78558 15.9267V16.8526H7.62866C7.47173 16.1904 7.36188 16.1025 6.81734 16.1025H6.21787V17.5148C6.97113 17.5038 7.08568 17.3846 7.10608 16.9609H7.27714V18.2383H7.10451C7.08568 17.8224 6.96328 17.7016 6.21787 17.6969V19.3179H6.31673C7.478 19.3179 7.61139 19.048 7.6977 18.4234H7.87032L7.78245 19.4937H5.22137V19.3179H5.67647V16.0962H5.22137V15.9267H7.78558V15.9267ZM25.065 14.6744H30.8305V14.8518H25.0634L25.065 14.6744ZM24.4702 13L20.4591 14.6838H1V14.8565H20.4952L24.5393 13.1648L24.4702 13.0078V13ZM3.21583 19.3917C2.90274 19.4743 2.57888 19.5087 2.25543 19.4937H1V19.3179H1.45509V16.0962H1V15.9267H2.25543C2.57767 15.9113 2.9004 15.9446 3.21269 16.0256C3.91887 16.2359 4.2798 16.8102 4.2798 17.711C4.2798 18.6118 3.91887 19.1861 3.21269 19.3964L3.21583 19.3917ZM3.08715 16.2264C2.82118 16.1287 2.53854 16.0845 2.25543 16.0962H1.99806V19.3179H2.25543C2.53801 19.332 2.82059 19.2904 3.08715 19.1955C3.50301 19.0025 3.67877 18.5678 3.67877 17.7094C3.67877 16.851 3.51085 16.421 3.09029 16.2264H3.08715ZM19.6196 19.4968L20.1798 17.099H20.5297V16.9232H19.5568V17.099H19.9883L19.5489 18.9586L19.4454 18.5349L19.0452 17.1664H18.6811L18.168 18.9633L18.0817 18.5317L17.7411 17.099H18.1287V16.9232H16.9361V17.099H17.275L17.851 19.4953H18.215L18.7329 17.6545L18.8506 18.1253L19.2539 19.4937H19.6148L19.6196 19.4968ZM29.8073 16.8808C30.6155 16.8808 31 17.2936 31 18.2147C31 19.1359 30.6155 19.5486 29.8073 19.5486C28.9992 19.5486 28.6194 19.1202 28.6194 18.2069C28.6194 17.2936 28.9992 16.873 29.8073 16.873V16.8808ZM29.8073 17.0456C29.5155 17.0456 29.153 17.1837 29.153 18.2069C29.153 19.2301 29.517 19.3682 29.8073 19.3682C30.0977 19.3682 30.4664 19.2269 30.4664 18.2069C30.4664 17.1868 30.1008 17.0378 29.8073 17.0378V17.0456ZM28.2082 16.0319C27.8861 15.9176 27.5455 15.8644 27.2039 15.8749C26.0112 15.8749 25.4102 16.5152 25.4102 17.711C25.4102 18.8785 26.0065 19.5471 27.2039 19.5471C27.5469 19.5512 27.8871 19.4849 28.2035 19.3525L28.282 18.4313H28.1094C27.9948 19.0229 27.681 19.3603 27.1678 19.3603C27.0414 19.3694 26.9144 19.3532 26.7942 19.3128C26.6741 19.2724 26.5632 19.2085 26.4679 19.1249C26.198 18.866 26.0536 18.403 26.0536 17.7126C26.0536 17.0221 26.2011 16.5246 26.4977 16.2688C26.6688 16.1258 26.8869 16.0514 27.1097 16.0601C27.659 16.0601 27.9572 16.4022 28.0513 16.8447H28.2082V16.0287V16.0319ZM11.1815 16.0444C10.8953 15.9344 10.5904 15.8811 10.2839 15.8875C9.53534 15.8875 9.10692 16.2484 9.10692 16.8181C9.10692 17.3281 9.38311 17.587 9.85704 17.7847L10.3435 17.9888C10.3435 17.9888 10.8457 18.3811 10.8457 18.7106C10.8457 19.1343 10.6072 19.3697 10.1552 19.3697C9.70325 19.3697 9.33917 19.0355 9.20265 18.4282H9.04572L9.12418 19.3587C9.42053 19.4895 9.74191 19.5538 10.0658 19.5471C10.83 19.5471 11.34 19.1547 11.34 18.4799C11.34 17.9071 11.0262 17.6796 10.5554 17.485L10.0846 17.2904C9.75503 17.157 9.6138 16.9891 9.6138 16.6282C9.6138 16.2672 9.88058 16.0632 10.2211 16.0632C10.6636 16.0632 10.9147 16.3347 11.0152 16.8573H11.1831V16.0413L11.1815 16.0444ZM14.0251 17.598C14.0251 17.0801 13.6955 16.8604 13.3189 16.8604C13.1476 16.855 12.9781 16.8959 12.8281 16.9788C12.6782 17.0616 12.5533 17.1834 12.4668 17.3312V15.9189H11.6241V16.0962H11.974V19.3195H11.6241V19.4953H12.8371V19.3179H12.4715V17.9056C12.4676 17.7365 12.5094 17.5696 12.5923 17.4222C12.6469 17.3257 12.7257 17.245 12.8209 17.1881C12.916 17.1311 13.0244 17.0999 13.1353 17.0974C13.3911 17.0974 13.5323 17.2763 13.5323 17.5996V19.3258H13.1667V19.4984H14.375V19.3164H14.0251V17.5902V17.598ZM16.6301 18.7028V17.5729C16.6301 17.055 16.2566 16.8699 15.6791 16.8699C15.1016 16.8699 14.7061 17.0739 14.7061 17.4426C14.7065 17.5121 14.7339 17.5786 14.7826 17.6281C14.8312 17.6776 14.8972 17.7062 14.9666 17.7079H14.998C15.0431 17.7126 15.0887 17.7065 15.131 17.6902C15.1733 17.6738 15.2111 17.6476 15.2413 17.6137V17.4944C15.2413 17.1994 15.3856 17.0346 15.6728 17.0346C15.7338 17.0268 15.7957 17.0327 15.854 17.0522C15.9123 17.0716 15.9655 17.1039 16.0096 17.1468C16.0536 17.1896 16.0874 17.2419 16.1085 17.2996C16.1295 17.3574 16.1372 17.4192 16.131 17.4803V17.8648L15.2805 18.1363C15.0451 18.221 14.6528 18.3607 14.6528 18.8189C14.6528 19.3305 15.0074 19.5518 15.4719 19.5518C15.8486 19.5518 16.0996 19.4199 16.2283 19.1359C16.2989 19.4498 16.605 19.5753 16.9565 19.5047V19.3478C16.7807 19.2928 16.6426 19.0778 16.6426 18.7043L16.6301 18.7028ZM16.1483 18.7043C16.1483 19.1218 15.9788 19.3164 15.6618 19.3164C15.3793 19.3164 15.2224 19.1281 15.2224 18.8142C15.2224 18.3701 15.4531 18.2901 15.756 18.1865L16.1483 18.0531V18.7043ZM23.9006 19.0417C24.0559 18.8776 24.1763 18.6836 24.2545 18.4716C24.3327 18.2596 24.3671 18.034 24.3557 17.8083C24.352 17.5951 24.3171 17.3836 24.2521 17.1806H23.4094V17.3375C23.5061 17.3315 23.6032 17.3447 23.6948 17.3765C23.7863 17.4083 23.8707 17.458 23.9429 17.5227C24.0081 17.5945 24.058 17.6789 24.0895 17.7706C24.1211 17.8623 24.1337 17.9595 24.1265 18.0562C24.1261 18.3775 24.0026 18.6864 23.7813 18.9193C23.7452 18.8817 23.6824 18.8205 23.6463 18.7812C23.1241 18.2573 22.6783 17.6625 22.3219 17.0142C22.2448 16.8728 22.2019 16.7154 22.1963 16.5544C22.1912 16.4857 22.2009 16.4166 22.2249 16.3519C22.2488 16.2872 22.2864 16.2285 22.3351 16.1796C22.3838 16.1308 22.4424 16.093 22.507 16.0689C22.5716 16.0447 22.6407 16.0348 22.7095 16.0397C23.0422 16.0397 23.3011 16.2359 23.4125 16.8243H23.5694V16.0397C23.3185 15.9258 23.0445 15.8721 22.7691 15.8828C22.1728 15.8828 21.7538 16.1652 21.7538 16.7365C21.7598 16.9268 21.8052 17.1138 21.8872 17.2857C21.6807 17.3566 21.5025 17.4921 21.379 17.6722C21.2555 17.8522 21.1933 18.0672 21.2014 18.2853C21.2014 18.9036 21.6722 19.5675 22.6137 19.5675C22.9382 19.5765 23.2592 19.4979 23.5428 19.3399C23.8011 19.4719 24.0847 19.5468 24.3745 19.5596L24.4247 19.4215C24.2368 19.3205 24.0614 19.1978 23.9021 19.0559L23.9006 19.0417ZM22.8821 19.3462C22.7229 19.3493 22.5646 19.3208 22.4165 19.2623C22.2683 19.2039 22.1332 19.1166 22.019 19.0056C21.789 18.7654 21.6637 18.4437 21.6706 18.1112C21.66 17.978 21.6784 17.8441 21.7244 17.7187C21.7705 17.5932 21.8431 17.4793 21.9374 17.3846C22.2688 18.005 22.6951 18.5699 23.2007 19.059C23.2617 19.1207 23.3267 19.1783 23.3953 19.2316C23.2363 19.3081 23.0615 19.3457 22.8852 19.3415L22.8821 19.3462Z" fill="white"/>
</g>
<defs>
<clipPath id="clip0">
<rect width="30" height="6.55176" fill="white" transform="translate(1 13)"/>
</clipPath>
</defs>
</svg>
