<svg width="32" height="32" viewBox="0 0 32 32" fill="none" xmlns="http://www.w3.org/2000/svg">
<rect width="32" height="32" fill="white"/>
<path d="M17.6209 15.9669C17.8764 15.7191 17.9684 15.2822 17.9684 14.9219V8.65174C17.9684 8.20971 17.9096 7.88265 17.6184 7.59648C17.3603 7.34353 17.0052 7.22344 16.5581 7.22344H15.2807V16.3374H16.5607C17.0078 16.3374 17.3603 16.2148 17.6209 15.9669Z" fill="#DF2228"/>
<path d="M18.8779 24.1637C23.791 20.9136 26.1261 19.2196 27.1813 18.1541C30.1373 15.1595 30.03 13.0286 29.9866 8.9839C29.9866 8.82548 29.9866 7.60671 29.9866 7.60671L29.5012 7.28221C29.4271 7.23367 28.1113 6.35727 26.5605 5.77982V8.12283C27.0945 8.36557 27.5722 8.62874 27.8992 8.82293C27.8992 8.87147 27.9018 8.93024 27.9018 9.00945C27.9325 11.7511 27.9708 13.5524 27.1915 15.2975C26.7521 16.294 26.19 16.8331 25.6995 17.408C24.0797 19.2962 17.2275 24.2838 17.2275 24.2838V24.0768C17.2275 24.0768 21.5478 20.4026 22.2938 19.6463C25.4363 16.4575 25.6918 13.6239 25.7353 11.7536V11.7511V3.79196C25.7353 3.79196 21.3383 1.95486 16.019 2.00085C9.51939 2.05451 6.24913 3.79196 6.24913 3.79196V11.7511C6.29257 13.6214 6.53272 16.4064 9.67523 19.5952C10.4136 20.3464 14.7135 24.0768 14.7135 24.0768V24.2838C14.7135 24.2838 7.78973 19.3627 6.18271 17.4642C5.48011 16.6389 4.96913 15.8647 4.66766 15.0982C4.10814 13.9357 4.06726 11.6412 4.09536 9.00689C4.09536 8.92769 4.09536 8.86636 4.09792 8.82037C4.42494 8.62619 4.90015 8.36557 5.42646 8.12539V5.77982C3.88075 6.35983 2.56754 7.23367 2.49345 7.28221L2.00802 7.60671C2.00802 7.60671 2.00802 8.82548 2.00802 8.9839C1.9697 13.026 1.95437 15.3256 4.81329 18.1541C5.74837 19.0739 9.53727 21.7619 13.0579 24.1611C13.9393 24.7718 14.4861 25.1525 14.4861 25.1525C14.4503 25.1729 12.2787 26.9461 12.0666 27.125C11.341 27.7331 11.1315 28.0934 11.1187 28.4894V29.4782H20.8478V28.4894C20.8171 28.0244 20.6306 27.7331 19.8999 27.1276C19.5218 26.8107 19.0185 26.407 18.2111 25.7376L13.5459 27.8966V27.7995L18.8779 24.1637ZM10.899 18.867L12.0487 17.6329V6.04044L10.899 4.80122H15.2244C17.9045 4.80122 18.3414 4.89321 18.906 5.0925C19.4656 5.28924 19.8284 5.52431 20.1988 5.86925C20.5718 6.21674 20.8452 6.61533 21.0266 7.06758C21.2054 7.51728 21.2949 8.00019 21.2949 8.5061V15.0573C21.2949 15.5658 21.2029 16.0462 21.0266 16.5035C20.8452 16.9634 20.5693 17.3697 20.1988 17.7223C19.8284 18.0749 19.3531 18.333 18.7962 18.5552C17.7206 18.9896 15.4033 18.8721 14.9409 18.8721C14.8872 18.8721 10.899 18.867 10.899 18.867Z" fill="#DF2228"/>
</svg>
