<svg width="32" height="32" viewBox="0 0 32 32" fill="none" xmlns="http://www.w3.org/2000/svg">
<path d="M27.6112 0H4.40605C1.96976 0 0 1.98704 0 4.45789V27.5249C0 29.9957 1.96976 32 4.40605 32H27.6112C30.0475 32 32 29.9957 32 27.5249V4.45789C32 2.00432 30.0302 0 27.6112 0ZM16 18.7646C10.1598 18.7473 5.28726 14.1685 4.82073 8.24191C4.73434 6.94601 5.68466 5.8229 6.946 5.73651C8.20734 5.63283 9.31317 6.56588 9.41685 7.8445C9.41685 7.86178 9.41685 7.86178 9.41685 7.87906C9.6933 11.5767 12.8726 14.3585 16.5184 14.0821C19.784 13.8229 22.3758 11.1966 22.6177 7.87906C22.7214 6.58316 23.8272 5.61556 25.0886 5.71923C26.3499 5.8229 27.3002 6.96329 27.2138 8.24191C26.73 14.1858 21.8575 18.7473 16 18.7646Z" fill="#146EB4"/>
<path d="M27.1792 8.13825C26.7473 13.9439 21.8229 18.4881 16 18.4881C10.1598 18.4709 5.28722 13.9611 4.8207 8.13825C4.73431 6.87691 5.68463 5.77108 6.94597 5.66741C8.20731 5.56373 9.31314 6.4795 9.41681 7.74084C9.41681 7.75812 9.41681 7.75812 9.41681 7.7754C9.69327 11.4212 12.8725 14.1512 16.5183 13.8748C19.784 13.6329 22.3758 11.0411 22.6177 7.7754C22.7214 6.51406 23.8272 5.58101 25.0713 5.68469C26.3153 5.78836 27.2829 6.87691 27.1792 8.13825Z" fill="white"/>
</svg>
