<svg width="32" height="32" viewBox="0 0 32 32" fill="none" xmlns="http://www.w3.org/2000/svg">
<rect width="32" height="32" fill="black"/>
<path d="M3.07166 28.3275C4.042 26.8971 10.362 18.1508 11.5786 16.4732C11.7519 16.2339 12.1469 16.0245 12.5067 16.3412C12.5243 16.3571 12.8428 16.6491 12.8595 16.6641C14.4826 18.1033 15.657 19.0807 17.2784 20.5217C17.354 20.5886 17.4306 20.6537 17.5089 20.7188C17.6743 20.856 17.9223 20.8234 18.0429 20.6466C18.0869 20.5824 18.1256 20.5173 18.1695 20.4566C19.4979 18.625 20.8219 16.7899 22.1468 14.9556C23.8007 12.6666 25.4537 10.3775 27.1093 8.09023L27.112 8.08671C27.2747 7.86238 27.6152 7.89757 27.7339 8.14741C27.7392 8.15797 27.7436 8.16853 27.7489 8.17908C28.2319 9.13799 28.5239 10.162 28.7527 11.2054C29.1274 12.9138 29.0412 14.6196 28.728 16.3298C28.2196 19.1036 26.9976 21.5272 25.1863 23.6676C23.411 25.7667 21.238 27.3167 18.664 28.2783C17.1667 28.8378 15.6131 29.1554 14.0032 29.1545C10.749 29.1527 7.49493 29.1571 4.24082 29.1563C4.07279 29.1563 3.90388 29.1483 3.73849 29.1219C3.44906 29.0771 3.2177 28.9548 3.0699 28.7331C2.98721 28.6108 2.98809 28.4498 3.07166 28.3275Z" fill="#00FFA8"/>
<path d="M17.1219 15.4061C17.0876 15.4676 16.9459 15.6849 16.6609 15.4747C16.5078 15.3612 16.5615 15.4105 16.4383 15.3058C14.8047 13.907 13.4077 12.7035 11.7758 11.3012C11.3148 10.8851 10.8644 11.076 10.6401 11.5828C9.58 13.7698 8.68093 15.5952 7.62262 17.7831C6.18163 20.7619 4.73976 23.7406 3.29613 26.7185C3.16417 27.0194 2.98207 26.9437 3.00142 26.8065C3.21168 25.3637 3.42369 23.921 3.63659 22.4791C3.95593 20.315 4.27527 18.1517 4.59461 15.9876C4.91395 13.8234 5.23153 11.6602 5.54999 9.49604C5.83854 7.53601 6.12621 5.57509 6.41651 3.61506C6.4517 3.37489 6.48425 3.13297 6.54232 2.8972C6.65492 2.44238 6.91796 2.12832 7.40709 2.05794C7.59095 2.03155 7.77745 2.00779 7.96307 2.00779C11.1802 2.00515 14.3965 1.98932 17.6137 2.01219C19.4901 2.02539 21.2847 2.4327 22.9606 3.30275C22.9721 3.30891 22.9835 3.31507 22.9949 3.32123C22.8902 3.55172 19.1215 11.2793 17.1219 15.4061Z" fill="#00FFA8"/>
</svg>
