<svg width="32" height="32" viewBox="0 0 32 32" fill="none" xmlns="http://www.w3.org/2000/svg">
<rect width="32" height="32" fill="white"/>
<path d="M18.3752 12.7518L17.8114 11.1562L13.0296 4.76525L13.8886 4.55217L22.1335 11.6796L26.9859 10.2921C27.5563 10.1444 28.204 10.1125 28.6973 10.1159C27.1721 6.82732 24.3819 4.12767 20.6973 2.8156C13.4138 0.219977 5.40545 4.02533 2.81486 11.3122C2.01285 13.5655 1.82157 15.891 2.15882 18.1024L13.7829 14.0639L18.3752 12.7518Z" fill="#072F54"/>
<path d="M29.2079 11.3754C28.7818 11.6522 28.1559 12.0147 27.5351 12.2143L22.6727 13.6019L19.4278 24.018L18.5855 24.2914L19.2701 16.3368L18.8875 14.6841L14.3305 15.9844L2.28695 18.82C3.23996 23.4559 6.52182 27.4928 11.3054 29.1975C18.5906 31.7931 26.5955 27.9861 29.1861 20.7042C30.3036 17.565 30.2314 14.2898 29.2079 11.3754Z" fill="#072F54"/>
<path d="M18.8872 14.6852L19.2715 16.3362L18.5852 24.2909L19.4275 24.0174L22.6725 13.603L27.5348 12.2154C28.1557 12.0158 28.7815 11.65 29.2077 11.3765C29.0583 10.9487 28.8872 10.5275 28.6976 10.1164C28.2043 10.1131 27.5567 10.1466 26.9862 10.2909L22.1339 11.6819L13.8873 4.55104L13.0299 4.7658L17.8101 11.1567L18.3755 12.7507L13.7816 14.0661L2.15914 18.1013C2.19605 18.3429 2.238 18.5828 2.28666 18.8211L14.3319 15.9855L18.8872 14.6852Z" fill="#FBC108"/>
</svg>
