<svg width="32" height="32" viewBox="0 0 32 32" fill="none" xmlns="http://www.w3.org/2000/svg">
<rect width="32" height="32" fill="white"/>
<path d="M29.9814 6.81027C29.9696 6.77101 29.9577 6.73176 29.9421 6.6925C20.6428 6.69643 11.3474 6.6925 2.05194 6.69643C2.02839 6.72391 2.01269 6.75139 2.00876 6.78671C2.00876 13.9977 2.00876 21.2048 2.00476 28.4158C2.06364 28.8005 2.27562 29.1499 2.55832 29.4129C2.5701 29.4168 2.59758 29.4206 2.60936 29.4246C2.7546 29.5776 2.96264 29.6523 3.15892 29.723C3.30416 29.7152 3.44547 29.7779 3.59071 29.7622H15.1315C15.2414 29.7583 15.3551 29.7779 15.4611 29.7348C15.4651 29.7192 15.469 29.6916 15.4729 29.6759C15.4769 29.6563 15.4808 29.6131 15.4847 29.5896C15.7321 28.2079 15.9714 26.8222 16.2345 25.4404L16.2581 25.2638C15.1904 25.2598 14.1187 25.2638 13.051 25.2598C12.7919 25.252 12.5251 25.2598 12.266 25.2283C11.8224 25.2087 11.3749 25.2244 10.9313 25.1813C10.3818 25.1813 9.83615 25.1302 9.28659 25.1302C8.85479 25.087 8.41907 25.1028 7.98335 25.0831C7.70079 25.0479 7.41024 25.0635 7.12376 25.0517C6.65663 25.0007 6.18165 25.0361 5.71453 24.985C5.21992 24.989 4.72532 24.9458 4.23072 24.9339C4.23464 24.93 4.23857 24.9143 4.23857 24.9104C4.40343 24.9143 4.56438 24.9026 4.72924 24.8987C5.09431 24.8515 5.4633 24.8829 5.82837 24.8319C6.20913 24.8319 6.58597 24.7809 6.96674 24.7809C7.30433 24.7337 7.64584 24.7613 7.98335 24.7141C8.37989 24.7141 8.76843 24.6631 9.16498 24.6592C9.49079 24.616 9.82053 24.6395 10.1463 24.5964C10.5271 24.6003 10.9039 24.5414 11.2847 24.5454C11.6576 24.5021 12.0383 24.5138 12.4112 24.4746C12.376 24.3295 12.3484 24.1842 12.3171 24.0389C12.2896 23.9486 12.1797 23.9682 12.1091 23.9564C11.2572 23.8347 10.4093 23.7131 9.56145 23.5953C9.61641 23.5521 9.69099 23.5717 9.7538 23.5639C10.4133 23.5128 11.0688 23.4539 11.7283 23.4069C11.8775 23.3991 12.0227 23.3715 12.1719 23.3676C12.1051 23.1635 12.0659 22.9397 11.9756 22.7514C10.5664 22.5355 9.15713 22.3431 7.75183 22.1115C8.11689 22.0526 8.48588 22.0252 8.85095 21.9859L8.88235 21.9741C10.0482 21.8523 11.218 21.7149 12.3838 21.6012C13.8636 21.5934 15.3397 21.5972 16.8196 21.6012C16.8666 21.5934 16.9491 21.6168 16.957 21.5501C17.0786 20.9142 17.1964 20.2783 17.318 19.6423C17.4868 18.7592 17.7537 17.8877 18.1659 17.083C18.8136 15.7876 19.8381 14.6885 21.0864 13.9584C22.2522 13.2754 23.6026 12.9456 24.9451 12.8828C25.3809 12.8436 25.8205 12.8554 26.2523 12.9103C26.5349 12.977 26.8254 13.0555 27.0492 13.2479C27.2337 13.3971 27.3436 13.6169 27.426 13.8367C27.6067 14.3588 27.7086 14.9005 27.795 15.4461C27.7989 15.666 27.8382 15.9133 27.7204 16.1135C27.6105 16.3097 27.3908 16.4039 27.1827 16.4628C26.425 16.6591 25.6321 16.4746 24.8745 16.6591C24.2504 16.7926 23.6694 17.138 23.2729 17.6365C22.8058 18.2175 22.5585 18.9397 22.4211 19.662C22.3151 20.3058 22.1816 20.9495 22.0756 21.5972C22.8215 21.6012 23.5713 21.5933 24.321 21.6012C24.6193 21.6012 24.9255 21.7661 25.0472 22.0487C25.2042 22.4098 25.1689 22.8181 25.1178 23.1989C25.055 23.6267 24.953 24.0506 24.7606 24.4432C24.5996 24.7768 24.3328 25.0831 23.9677 25.2008C23.7793 25.2754 23.5752 25.2597 23.375 25.2597C22.7154 25.2597 22.0559 25.2675 21.3965 25.2597C21.2906 25.7426 21.2199 26.2371 21.1257 26.7278C20.953 27.6817 20.7842 28.6395 20.6115 29.5973C20.6075 29.6288 20.6036 29.6954 20.6036 29.7308C20.9137 29.7465 21.2238 29.7308 21.5339 29.7386C23.8342 29.7386 26.1385 29.7346 28.4427 29.7386C28.69 29.7465 28.9412 29.6876 29.1571 29.5659C29.2867 29.5188 29.3652 29.4049 29.479 29.3422C29.5889 29.2794 29.6203 29.1499 29.7145 29.0674C29.8166 28.8868 29.9226 28.6985 29.9304 28.4864C29.9422 28.4864 29.9736 28.4825 29.9893 28.4786C29.9774 21.2559 29.9892 14.0331 29.9814 6.81027Z" fill="url(#paint0_linear_248_77)" stroke="#FCD109" stroke-width="0.094"/>
<path d="M5.66728 2.0605C6.00094 1.95451 6.3503 2.02517 6.6919 2.00162C13.1021 2.00554 19.5124 2.00162 25.9225 2.00162C26.3033 1.98592 26.6369 2.20182 26.9902 2.31173C27.2728 2.42557 27.5673 2.51585 27.8499 2.63754C27.9088 2.66109 27.9519 2.71212 27.995 2.7553C27.9911 3.27346 27.995 3.79554 27.995 4.31762C27.9991 4.45501 27.9754 4.59633 28.0225 4.72979C28.105 4.74157 28.1481 4.80438 28.2032 4.85541C28.4623 4.97317 28.682 5.16552 28.9175 5.32253C29.2708 5.57376 29.6477 5.79359 29.9931 6.05266C30.0088 6.15472 29.997 6.26071 29.9656 6.35492C29.9304 6.46483 29.9538 6.5826 29.9421 6.69251C20.6427 6.69643 11.3473 6.69251 2.05188 6.69643C2.03225 6.56689 2.06758 6.43736 2.01263 6.31567C2.00477 6.21361 1.96945 6.08014 2.06758 6.00948C2.46012 5.7347 2.87622 5.4874 3.26083 5.19692C3.50036 5.04383 3.73189 4.88681 3.96349 4.72979C4.01059 4.65128 3.99489 4.55315 3.99489 4.46679C3.99489 3.8976 3.99489 3.32841 3.99882 2.75923C4.13228 2.58651 4.36396 2.56688 4.54838 2.48052C4.92145 2.33921 5.29829 2.20182 5.66728 2.0605V2.0605ZM5.69083 2.12723C5.18838 2.31958 4.682 2.50407 4.17954 2.69642C4.11281 2.7082 4.0774 2.76708 4.04215 2.81811C4.04608 2.84951 4.05 2.90447 4.05 2.93587C4.046 3.40692 4.05 3.87798 4.046 4.34903C4.05 4.46679 4.03422 4.58455 4.0774 4.69054C4.02637 4.74157 3.97149 4.7926 3.90861 4.83185C3.33942 5.20085 2.78986 5.60124 2.22067 5.9663C2.12254 6.02519 2.01263 6.10369 2.04403 6.23323C2.0244 6.30389 2.05973 6.36277 2.13431 6.34315C3.3669 6.33529 4.59556 6.351 5.82822 6.33137C7.6614 6.33137 9.49065 6.33529 11.3238 6.33137L11.3513 6.31959C11.4337 6.33922 11.5161 6.33137 11.6025 6.33137C14.9234 6.33137 18.2443 6.33529 21.5691 6.33137C22.6133 6.33529 23.6614 6.33137 24.7094 6.33137C26.4366 6.33137 28.1678 6.34707 29.895 6.33922C29.946 6.32744 29.9617 6.29211 29.9421 6.22931C29.9381 6.1665 29.9617 6.08014 29.895 6.04089C29.6202 5.91135 29.3847 5.71115 29.1216 5.55413C29.0275 5.47563 28.9057 5.43245 28.8351 5.32646C28.5642 5.17337 28.313 4.98495 28.046 4.81615C27.995 4.78475 27.9557 4.73372 27.9126 4.69054C27.9362 4.60811 27.944 4.51782 27.944 4.43146C27.9401 3.93293 27.944 3.4344 27.9401 2.93587C27.9519 2.85736 27.9479 2.76708 27.8772 2.71605C27.4062 2.54725 26.9391 2.36668 26.4719 2.19397C26.3267 2.12331 26.1657 2.08405 26.0087 2.0605H5.94583C5.85963 2.06443 5.77719 2.10761 5.69083 2.12723V2.12723Z" fill="#F8F3B5" stroke="#F8F3B5" stroke-width="0.094"/>
<path d="M4.04999 2.93587C4.39543 3.08111 4.76434 3.16354 5.11379 3.30486C5.30221 3.37944 5.36109 3.58356 5.44352 3.74843C5.36101 3.83087 5.26287 3.8976 5.16474 3.9604C4.8036 4.20378 4.43461 4.43931 4.07739 4.69053C4.03421 4.58455 4.04999 4.46679 4.04599 4.34902C4.04999 3.87797 4.04607 3.40692 4.04999 2.93587V2.93587ZM26.8763 3.30486C27.2257 3.16747 27.5907 3.07326 27.9402 2.93587C27.9441 3.4344 27.9402 3.93293 27.9441 4.43146C27.9441 4.51782 27.9362 4.6081 27.9127 4.69053C27.6065 4.47856 27.2964 4.27836 26.9902 4.07032C26.841 3.9604 26.6762 3.87797 26.5427 3.74451C26.6251 3.57964 26.688 3.37944 26.8763 3.30486V3.30486Z" fill="#F7B402" stroke="#F7B402" stroke-width="0.094"/>
<path d="M10.0402 3.4658C10.472 3.36374 10.9548 3.74843 10.9195 4.19986C10.9234 4.64343 10.4562 5.00457 10.0284 4.90251C9.85573 4.84363 9.69078 4.75334 9.58487 4.60025C9.44748 4.3922 9.416 4.1135 9.52599 3.88582C9.6045 3.666 9.81647 3.51683 10.0402 3.4658V3.4658ZM21.2395 3.7131C21.42 3.51291 21.7066 3.39907 21.9735 3.46973C22.1737 3.52861 22.37 3.65815 22.4564 3.85442C22.6291 4.19201 22.4956 4.64736 22.158 4.824C21.8596 4.98887 21.4828 4.91036 21.2552 4.67091C21.0236 4.40791 21.0078 3.97611 21.2395 3.7131V3.7131Z" fill="#BDA727" stroke="#BDA727" stroke-width="0.094"/>
<path d="M5.16482 3.96041C5.26295 3.8976 5.36109 3.83087 5.4436 3.74843L5.471 3.77591C5.49848 3.98003 5.47885 4.18808 5.4867 4.3922C5.47493 5.00457 5.49848 5.62086 5.471 6.23323C4.3287 6.23323 3.18648 6.22538 2.0441 6.23323C2.0127 6.10369 2.12261 6.02518 2.22075 5.9663C2.78993 5.60124 3.33949 5.20084 3.90868 4.83185C3.97157 4.7926 4.02644 4.74157 4.07747 4.69054C4.43469 4.43931 4.80368 4.20378 5.16482 3.96041V3.96041ZM26.5034 3.8819C26.5034 3.83087 26.5152 3.78769 26.5426 3.74451C26.6761 3.87797 26.841 3.96041 26.9901 4.07032C27.2963 4.27837 27.6064 4.47856 27.9126 4.69054C27.9558 4.73372 27.995 4.78475 28.046 4.81615C28.313 4.98494 28.5642 5.17336 28.8351 5.32646C28.9057 5.43244 29.0274 5.47562 29.1216 5.55413C29.3846 5.71115 29.6202 5.91134 29.8949 6.04088C29.9617 6.08014 29.9381 6.1665 29.9421 6.2293C28.7997 6.23323 27.6613 6.22538 26.5191 6.23323C26.4995 6.07621 26.5112 5.9192 26.5073 5.7661C26.5074 5.13803 26.4995 4.50997 26.5034 3.8819V3.8819Z" fill="#F7E62D" stroke="#F7E62D" stroke-width="0.094"/>
<path d="M29.9421 6.22931C28.7998 6.23323 27.6614 6.22538 26.5192 6.23323C26.4995 6.07622 26.5113 5.9192 26.5074 5.76611C26.5074 5.13804 26.4995 4.50997 26.5034 3.8819C26.5034 3.83087 26.5152 3.78769 26.5426 3.74451C26.6252 3.57964 26.6879 3.37945 26.8763 3.30486C27.2257 3.16747 27.5907 3.07326 27.9402 2.93587C27.952 2.85736 27.948 2.76708 27.8773 2.71605C27.4062 2.54725 26.9392 2.36668 26.472 2.19397C26.3267 2.12331 26.1658 2.08405 26.0088 2.0605H5.94591C5.85955 2.06443 5.77712 2.10761 5.69076 2.12723C5.1883 2.31958 4.68192 2.50407 4.17947 2.69642C4.11274 2.7082 4.07733 2.76708 4.04208 2.81811C4.046 2.84951 4.04993 2.90447 4.04993 2.93587C4.39537 3.08111 4.76428 3.16355 5.11372 3.30486C5.30214 3.37945 5.36102 3.58357 5.44346 3.74844L5.47086 3.77591C5.49833 3.98004 5.47871 4.18808 5.48656 4.39221C5.47478 5.00457 5.49833 5.62087 5.47086 6.23323C4.32856 6.23323 3.18633 6.22538 2.04396 6.23323C2.02433 6.30389 2.05966 6.36277 2.13424 6.34315C3.36683 6.33529 4.59548 6.351 5.82815 6.33137C7.66132 6.33137 9.49057 6.33529 11.3238 6.33137L11.3512 6.31959C11.4337 6.33922 11.516 6.33137 11.6024 6.33137C14.9233 6.33137 18.2442 6.33529 21.569 6.33137C22.6132 6.33529 23.6613 6.33137 24.7094 6.33137C26.4365 6.33137 28.1677 6.34707 29.8949 6.33922C29.9461 6.32744 29.9618 6.29212 29.9421 6.22931V6.22931ZM9.52598 3.88583C9.60449 3.666 9.81639 3.51684 10.0402 3.46581C10.472 3.36374 10.9548 3.74844 10.9195 4.19986C10.9234 4.64343 10.4562 5.00457 10.0284 4.90251C9.85572 4.84363 9.69077 4.75335 9.58486 4.60025C9.44747 4.39221 9.41607 4.1135 9.52598 3.88583ZM21.2395 3.71311C21.42 3.51291 21.7066 3.39907 21.9735 3.46973C22.1737 3.52861 22.37 3.65815 22.4563 3.85442C22.6291 4.19201 22.4956 4.64736 22.158 4.824C21.8596 4.98887 21.4828 4.91036 21.2552 4.67091C21.0236 4.40791 21.0078 3.97611 21.2395 3.71311Z" fill="url(#paint1_radial_248_77)" stroke="#FCD109" stroke-width="0.094"/>
<path d="M22.24 7.95438C22.2949 7.96615 21.9539 7.62676 22.0206 7.61106C22.0834 7.61891 22.3216 7.43406 22.6094 7.58488C22.8973 7.73569 22.8259 8.08863 22.7932 8.2195C22.7544 8.37526 22.6552 8.47465 22.5767 8.55316C22.5335 8.58849 22.4367 8.64345 22.3778 8.63952C22.4132 8.44717 22.2993 8.41577 22.2915 8.2195L22.24 7.95438Z" fill="url(#paint2_linear_248_77)" stroke="#FCD109" stroke-width="0.094"/>
<path d="M9.69147 8.16717C9.68362 8.36344 9.56971 8.39485 9.60512 8.58719C9.54623 8.59112 9.44935 8.53616 9.40621 8.50083C9.32771 8.42232 9.22867 8.32293 9.18973 8.16717C9.15707 8.03634 9.08566 7.6834 9.37351 7.53255C9.66137 7.38169 9.89952 7.56654 9.96233 7.55873C10.0291 7.57443 9.6881 7.91382 9.74298 7.90205L9.69147 8.16717Z" fill="url(#paint3_linear_248_77)" stroke="#FCD109" stroke-width="0.094"/>
<path d="M21.7261 10.469C21.7851 10.4177 21.8244 10.4177 21.9029 10.4177C21.4318 11.4384 20.8823 12.459 20.056 13.2536C19.9676 13.3325 19.8743 13.4056 19.7765 13.4725C19.6819 13.5418 19.5892 13.6067 19.497 13.6728C19.4067 13.7355 19.317 13.7986 19.2296 13.8643C19.0059 13.986 18.8096 14.1548 18.5623 14.2294C18.1109 14.4453 17.6242 14.5905 17.1335 14.6926C16.9412 14.724 16.7449 14.7711 16.5486 14.775C16.3052 14.8457 16.0462 14.7946 15.7989 14.8103C15.6615 14.8339 15.5397 14.7554 15.4063 14.7711C15.2905 14.7547 15.175 14.7351 15.0602 14.7122C14.9437 14.6884 14.8279 14.6609 14.7131 14.6298C12.9136 14.0684 11.1472 12.6945 10.6326 10.8364C10.6094 10.7113 10.5977 10.5843 10.5976 10.457C10.6525 10.5669 10.7095 10.676 10.7684 10.7841C11.5005 12.3805 12.9529 13.6366 14.6688 14.0154C14.808 14.0789 14.9588 14.0566 15.0923 14.1116C15.214 14.1116 15.3317 14.1076 15.4495 14.1469C15.8538 14.1547 16.2581 14.1508 16.6625 14.1508C16.7173 14.1547 16.7684 14.1273 16.8234 14.1155C17.4972 14.0926 18.1575 13.9089 18.7723 13.6302C18.8953 13.5744 19.0164 13.5149 19.1355 13.4521C19.2397 13.3972 19.3414 13.3378 19.4404 13.2739C19.5376 13.2113 19.6321 13.1445 19.7237 13.0739C20.4505 12.4982 21.0785 11.7524 21.505 10.8947C21.5862 10.7404 21.6605 10.5974 21.7261 10.469Z" fill="#BDA727" stroke="#BDA727" stroke-width="0.094"/>
<path d="M21.0863 13.9585C22.2521 13.2755 23.6026 12.9457 24.9451 12.8829C25.3808 12.8437 25.8204 12.8554 26.2522 12.9104C26.5349 12.9771 26.8253 13.0556 27.0491 13.248C26.9353 13.2558 26.8253 13.2048 26.7115 13.1891C26.3896 13.1263 26.056 13.1498 25.7302 13.142C24.784 13.142 23.8302 13.2166 22.9156 13.4757C22.4367 13.6209 21.9578 13.7897 21.5221 14.0409C20.7684 14.457 20.0893 15.0066 19.5397 15.666C18.5584 16.7927 17.9814 18.2215 17.7026 19.6779C17.5692 20.459 17.416 21.2362 17.2944 22.0212C17.0981 22.0409 16.8979 22.0291 16.7017 22.0291C15.8381 22.0252 14.9745 22.0212 14.1109 22.0135C13.9264 22.0212 13.7457 21.9782 13.5613 21.9899C11.9911 21.9977 10.421 21.9859 8.8508 21.9859L8.8822 21.9741C10.0481 21.8524 11.2178 21.715 12.3837 21.6012C13.8635 21.5934 15.3395 21.5972 16.8194 21.6012C16.8664 21.5934 16.949 21.6168 16.9568 21.5501C17.0785 20.9143 17.1963 20.2784 17.3179 19.6424C17.4867 18.7593 17.7537 17.8878 18.1658 17.0831C18.8135 15.7877 19.8381 14.6886 21.0863 13.9585Z" fill="#0D69B3" stroke="#0D69B3" stroke-width="0.094"/>
<path d="M22.9156 13.4757C23.8302 13.2166 24.7841 13.142 25.7302 13.142C26.056 13.1498 26.3896 13.1263 26.7115 13.1891C26.8253 13.2048 26.9352 13.2558 27.0491 13.248C27.2336 13.3972 27.3435 13.617 27.4259 13.8368C27.6066 14.3589 27.7086 14.9006 27.7949 15.4462C27.7989 15.6661 27.8381 15.9134 27.7203 16.1135C27.6104 16.3098 27.3907 16.404 27.1826 16.4629C26.425 16.6592 25.6321 16.4746 24.8744 16.6592C24.2503 16.7926 23.6693 17.138 23.2728 17.6366C22.8057 18.2175 22.5584 18.9397 22.421 19.6621C22.3151 20.3059 22.1816 20.9496 22.0756 21.5973C22.0285 21.7426 22.001 21.8996 21.9735 22.0528C22.7153 22.0646 23.4573 22.0528 24.1992 22.0606C24.4818 22.0528 24.7644 22.0684 25.0471 22.0488C25.2041 22.4099 25.1688 22.8182 25.1178 23.199C25.055 23.6268 24.9529 24.0507 24.7606 24.4433C24.5995 24.7769 24.3327 25.0832 23.9676 25.2009C23.7792 25.2755 23.5751 25.2598 23.3749 25.2598C22.7153 25.2598 22.0559 25.2676 21.3965 25.2598C21.2905 25.7427 21.2198 26.2372 21.1256 26.7279C20.953 27.6818 20.7841 28.6396 20.6114 29.5974C20.6075 29.6288 20.6035 29.6955 20.6035 29.7309V29.7348C18.8881 29.7348 17.1766 29.7388 15.4612 29.7348C15.4652 29.7192 15.4691 29.6916 15.473 29.6759C15.477 29.6563 15.4809 29.6131 15.4848 29.5896C15.4888 29.621 15.4926 29.6799 15.4966 29.7074C15.6026 29.7192 15.795 29.774 15.8224 29.621C16.0894 28.1764 16.3367 26.724 16.6115 25.2794C16.5055 25.2559 16.3956 25.2559 16.2856 25.2755C16.27 25.3305 16.2542 25.3854 16.2346 25.4403L16.2582 25.2637C15.1905 25.2597 14.1188 25.2637 13.0512 25.2597C12.792 25.252 12.5252 25.2597 12.2661 25.2283C11.8225 25.2087 11.375 25.2244 10.9314 25.1812C10.3819 25.1812 9.83624 25.1302 9.28668 25.1302C8.85488 25.087 8.41916 25.1027 7.98344 25.083C7.70089 25.0478 7.41032 25.0634 7.12385 25.0517C6.65672 25.0006 6.18174 25.0361 5.71462 24.9849C5.22001 24.9889 4.72541 24.9456 4.2308 24.9339C4.23473 24.93 4.23866 24.9143 4.23866 24.9104C4.40352 24.9143 4.56447 24.9025 4.72933 24.8985C5.0944 24.8515 5.46339 24.8828 5.82845 24.8319C6.20922 24.8319 6.58606 24.7808 6.96683 24.7808C7.30442 24.7337 7.64593 24.7612 7.98344 24.7141C8.37998 24.7141 8.76852 24.663 9.16507 24.6591C9.49088 24.616 9.82062 24.6395 10.1464 24.5963C10.5272 24.6003 10.904 24.5414 11.2848 24.5453C11.6577 24.502 12.0384 24.5138 12.4113 24.4746C12.3761 24.3294 12.3485 24.1842 12.3172 24.0388C12.2897 23.9485 12.1798 23.9681 12.1091 23.9564C11.2573 23.8346 10.4094 23.713 9.56154 23.5952C9.6165 23.552 9.69108 23.5716 9.75388 23.5639C10.4134 23.5127 11.0689 23.4538 11.7284 23.4068C11.8775 23.399 12.0228 23.3715 12.1719 23.3676C12.1052 23.1634 12.066 22.9397 11.9757 22.7513C10.5665 22.5354 9.15722 22.343 7.75192 22.1114C8.11698 22.0526 8.48597 22.0251 8.85104 21.9858C10.4212 21.9858 11.9914 21.9976 13.5616 21.9897C13.746 21.978 13.9266 22.0212 14.1111 22.0134C14.9747 22.0212 15.8383 22.0252 16.7019 22.029C16.8982 22.029 17.0984 22.0408 17.2946 22.0212C17.4163 21.2361 17.5694 20.4588 17.7029 19.6777C17.9816 18.2213 18.5586 16.7925 19.54 15.666C20.0895 15.0065 20.7686 14.4569 21.5223 14.0408C21.9578 13.7897 22.4367 13.6209 22.9156 13.4757Z" fill="#107BD4" stroke="#107BD4" stroke-width="0.094"/>
<path d="M22.0756 21.5973C22.8214 21.6013 23.5712 21.5934 24.3209 21.6013C24.6192 21.6013 24.9254 21.7662 25.0471 22.0487C24.7645 22.0684 24.4819 22.0527 24.1992 22.0606C23.4573 22.0527 22.7153 22.0646 21.9735 22.0527C22.001 21.8996 22.0284 21.7426 22.0756 21.5973V21.5973ZM16.2856 25.2755C16.3955 25.2559 16.5055 25.2559 16.6114 25.2794C16.3366 26.724 16.0893 28.1764 15.8224 29.621C15.7949 29.774 15.6025 29.7192 15.4965 29.7073C15.4925 29.6799 15.4887 29.621 15.4848 29.5896C15.7321 28.2079 15.9714 26.8221 16.2345 25.4404C16.2542 25.3854 16.2699 25.3305 16.2856 25.2755Z" fill="#0D69B3" stroke="#0D69B3" stroke-width="0.094"/>
<path d="M22.4189 8.06429C22.3875 8.00541 22.3836 7.93475 22.3836 7.86802L22.3522 7.87194C22.3051 7.69922 22.1599 7.53436 21.9714 7.5265C21.8301 7.51473 21.6534 7.51865 21.5711 7.65212C21.4141 7.86409 21.4886 8.13495 21.4808 8.3744C21.4808 8.3901 21.4847 8.41758 21.4847 8.43328C21.4847 8.59422 21.4651 8.75124 21.4376 8.90826C21.4141 8.95536 21.4023 9.00639 21.4023 9.06135C21.3356 9.43034 21.2021 9.7954 21.0216 10.1291C20.9863 10.1762 20.9587 10.2272 20.947 10.2822C20.8293 10.4863 20.6879 10.6747 20.5427 10.8631C20.5191 10.8827 20.4995 10.9063 20.4799 10.9299C20.3778 11.0555 20.2679 11.1615 20.154 11.2714C20.1266 11.2871 20.1069 11.3067 20.0833 11.3224C19.9499 11.4519 19.8007 11.5736 19.6398 11.6718C19.6201 11.6835 19.6005 11.6992 19.5769 11.7149C18.572 12.3783 17.3512 12.6531 16.1618 12.6649C15.153 12.6963 14.1362 12.4804 13.2255 12.0447C13.2099 12.0368 13.1707 12.0211 13.1549 12.0133C13.0018 11.9308 12.8448 11.8602 12.7035 11.7581C12.6721 11.7424 12.6406 11.7228 12.6053 11.7071C12.4601 11.6207 12.3227 11.5265 12.1931 11.4166C12.15 11.3774 12.1029 11.3459 12.0558 11.3106C11.9144 11.1968 11.7692 11.0751 11.6476 10.9377C11.6162 10.9024 11.5847 10.871 11.5534 10.8396C11.1256 10.396 10.7919 9.85428 10.6153 9.26547C10.4464 8.79834 10.47 8.28804 10.4504 7.79736C10.309 7.58146 10.0108 7.45977 9.77524 7.59324C9.67711 7.6639 9.66533 7.79343 9.59075 7.88372C9.46906 9.17911 10.0225 10.4706 10.9058 11.4048C10.9058 11.4362 10.9215 11.4559 10.949 11.4676C11.106 11.6129 11.2591 11.762 11.4161 11.9034C11.4435 11.9308 11.475 11.9583 11.5103 11.9819C11.6673 12.1114 11.8361 12.2292 12.001 12.3509C12.0324 12.3744 12.0638 12.394 12.0991 12.4137C12.315 12.5393 12.519 12.6884 12.7507 12.7748C12.7664 12.7866 12.7939 12.8062 12.8096 12.8141C13.5554 13.1713 14.3601 13.4147 15.1845 13.4932C15.2748 13.4932 15.3651 13.501 15.4553 13.5206C15.8479 13.5442 16.2404 13.5324 16.633 13.5246C17.8458 13.4186 19.0981 13.1242 20.1109 12.4097L20.1227 12.4254C20.1541 12.398 20.1816 12.3744 20.213 12.3509C20.374 12.2331 20.531 12.1075 20.688 11.9779C20.7233 11.9505 20.7625 11.9191 20.7979 11.8837C20.9706 11.6953 21.1708 11.5226 21.3161 11.3067L21.3396 11.3185C21.3514 11.2988 21.371 11.2596 21.3829 11.24C21.5163 11.0594 21.6381 10.871 21.7558 10.6826C21.7636 10.6708 21.7832 10.6511 21.7911 10.6394L21.7754 10.6237C21.7872 10.608 21.8147 10.5766 21.8265 10.5609C22.0424 10.1212 22.2346 9.66194 22.3014 9.17519C22.3289 9.16341 22.3447 9.13986 22.3447 9.11238C22.3486 8.95536 22.4035 8.8062 22.3879 8.64918C22.4228 8.45683 22.4267 8.26056 22.4189 8.06429V8.06429Z" fill="white" stroke="white" stroke-width="0.094"/>
<path d="M22.5047 7.85318C21.889 7.89004 21.3113 7.67936 20.7514 7.48682M9.28915 7.93169C9.60735 8.03151 10.3384 7.78036 10.5453 8.01019L9.28915 7.93169ZM9.47235 8.89993C9.77728 8.79383 10.4311 8.5426 10.7023 8.69059L9.47235 8.89993ZM9.78639 9.86822C9.93379 9.91595 10.2243 9.65699 10.3687 9.58111C10.5834 9.46818 10.8037 9.38162 11.0425 9.34484L9.78639 9.86822ZM10.2574 10.8888C10.4095 10.6728 10.5915 10.4933 10.8111 10.3399C11.0288 10.1878 11.6244 9.78147 11.8799 9.92054L10.2574 10.8888ZM10.7023 11.6216C10.8749 11.4844 10.9451 11.2417 11.1263 11.0976C11.3455 10.9232 11.6814 10.8919 11.9061 10.7841L10.7023 11.6216ZM11.4416 12.1646C11.4932 11.785 11.8786 11.3271 12.2463 11.3598L11.4416 12.1646ZM12.0108 12.6945C12.2051 12.6751 12.3695 12.2401 12.5009 12.0927C12.6978 11.8719 12.9017 11.804 13.1622 11.7262L12.0108 12.6945ZM13.136 13.1656C13.1235 12.891 13.4072 12.1036 13.738 12.145L13.136 13.1656ZM13.9735 13.4273C13.9597 13.1027 14.1275 12.1265 14.523 12.0926L13.9735 13.4273ZM14.8371 13.9507C14.7621 13.4968 14.7669 12.8402 15.1249 12.5113L14.8371 13.9507ZM15.9101 14.0554C15.8701 13.677 15.4942 12.9122 15.9101 12.616V14.0554ZM17.0615 13.7936C16.882 13.5856 16.7777 12.7648 16.8521 12.5375L17.0615 13.7936ZM18.1606 13.6104C18.0222 13.3591 17.8506 13.1231 17.7982 12.8313C17.7669 12.6569 17.8218 12.4085 17.7942 12.2758L18.1606 13.6104ZM19.0765 13.2179C18.7763 13.0215 18.693 12.2997 18.7887 11.988L19.0765 13.2179ZM19.9663 12.8254C19.7527 12.3672 19.525 12.012 19.5214 11.4907L19.9663 12.8254ZM20.8299 11.988C20.498 11.7647 20.0745 11.3589 20.1233 10.915L20.8299 11.988ZM21.7458 11.2814C21.2416 11.1697 20.6365 10.7185 20.3327 10.3131L21.7458 11.2814ZM22.1645 10.4178C21.8008 10.3398 20.5989 9.87089 20.6729 9.39717L22.1645 10.4178ZM22.5571 9.50186C22.0503 9.31607 21.313 9.14904 20.9084 8.79528L22.5571 9.50186ZM22.8187 8.66441C22.4995 8.69173 22.0422 8.53718 21.7178 8.48121C21.3575 8.41907 21.0234 8.29765 20.6729 8.2195L22.8187 8.66441Z" stroke="#D1D1D1" stroke-width="0.1"/>
<defs>
<linearGradient id="paint0_linear_248_77" x1="15.997" y1="6.69247" x2="15.997" y2="29.7648" gradientUnits="userSpaceOnUse">
<stop stop-color="#F7E830"/>
<stop offset="1" stop-color="#FDCB06"/>
</linearGradient>
<radialGradient id="paint1_radial_248_77" cx="0" cy="0" r="1" gradientUnits="userSpaceOnUse" gradientTransform="translate(15.8767 17.2157) scale(18.7667)">
<stop offset="0.596" stop-color="#F29405"/>
<stop offset="0.736" stop-color="#F7D01E"/>
<stop offset="1" stop-color="#FDCB06"/>
</radialGradient>
<linearGradient id="paint2_linear_248_77" x1="22.4171" y1="7.52517" x2="22.4236" y2="8.61773" gradientUnits="userSpaceOnUse">
<stop stop-color="#FADA1C"/>
<stop offset="1" stop-color="#FDCB06"/>
</linearGradient>
<linearGradient id="paint3_linear_248_77" x1="9.56582" y1="7.47284" x2="9.55927" y2="8.56541" gradientUnits="userSpaceOnUse">
<stop stop-color="#FADA1C"/>
<stop offset="1" stop-color="#FDCB06"/>
</linearGradient>
</defs>
</svg>
