<svg width="32" height="32" viewBox="0 0 32 32" fill="none" xmlns="http://www.w3.org/2000/svg">
<rect width="32" height="32" fill="white"/>
<path d="M29.6276 26.5103C28.755 25.8693 27.6688 24.9967 27.5619 23.4652C27.5085 22.6461 27.74 21.729 27.9715 21.0612C28.114 20.7496 28.2386 20.429 28.3544 20.1085V20.0996C30.8563 13.0388 27.1613 5.28361 20.0916 2.78164C13.022 0.279667 5.28456 3.98366 2.78259 11.0444C0.280613 18.1051 3.9757 25.8603 11.0453 28.3623C14.9452 29.7424 19.2636 29.2705 22.7717 27.0713C23.1278 26.9021 23.4305 26.8042 23.5997 26.8754C25.3983 27.6322 27.366 27.8637 29.2893 27.5254C29.6276 27.4719 30.4913 27.1514 29.6276 26.5103V26.5103Z" fill="#0ABE51"/>
<path d="M11.5707 9.41499H20.6882C21.534 9.41499 22.2196 10.1006 22.2196 10.9465V11.0088C22.2196 11.8546 21.534 12.5402 20.6882 12.5402H11.5707C10.7248 12.5402 10.0392 11.8546 10.0392 11.0088V10.9465C10.0392 10.1006 10.7248 9.41499 11.5707 9.41499Z" fill="white"/>
<path d="M11.5707 14.0539H17.3314C18.1773 14.0539 18.8629 14.7395 18.8629 15.5854V15.6566C18.8629 16.5024 18.1773 17.188 17.3314 17.188H11.5707C10.7248 17.188 10.0392 16.5024 10.0392 15.6566V15.5854C10.0392 14.7395 10.7248 14.0539 11.5707 14.0539V14.0539Z" fill="white"/>
<path d="M11.5707 18.6126H12.6124C13.4583 18.6126 14.1439 19.2982 14.1439 20.1441V20.2064C14.1439 21.0523 13.4583 21.7379 12.6124 21.7379H11.5707C10.7248 21.7379 10.0392 21.0523 10.0392 20.2064V20.1441C10.0392 19.2982 10.7248 18.6126 11.5707 18.6126Z" fill="white"/>
</svg>
