<svg width="32" height="32" viewBox="0 0 32 32" fill="none" xmlns="http://www.w3.org/2000/svg">
<rect width="32" height="32" fill="white"/>
<path d="M28.7237 16.2925C28.7237 15.4367 28.6479 14.6242 28.5179 13.8333H16.2762V18.7192H23.2854C22.9712 20.3225 22.0504 21.6767 20.6854 22.5975V25.8475H24.8671C27.3154 23.5833 28.7237 20.2467 28.7237 16.2925Z" fill="#4285F4"/>
<path d="M16.2762 29C19.7862 29 22.7221 27.83 24.8671 25.8475L20.6854 22.5975C19.5154 23.3775 18.0312 23.8542 16.2762 23.8542C12.8854 23.8542 10.0146 21.5683 8.9854 18.4808H4.67374V21.8283C6.8079 26.075 11.1954 29 16.2762 29Z" fill="#34A853"/>
<path d="M8.98541 18.4808C8.71458 17.7008 8.57374 16.8667 8.57374 16C8.57374 15.1333 8.72541 14.2992 8.98541 13.5192V10.1717H4.67374C3.78541 11.9267 3.27625 13.8983 3.27625 16C3.27625 18.1017 3.78541 20.0733 4.67374 21.8283L8.98541 18.4808Z" fill="#FBBC05"/>
<path d="M16.2762 8.14583C18.1937 8.14583 19.9054 8.80667 21.2596 10.0958L24.9646 6.39083C22.7221 4.28917 19.7862 3 16.2762 3C11.1954 3 6.8079 5.925 4.67374 10.1717L8.9854 13.5192C10.0146 10.4317 12.8854 8.14583 16.2762 8.14583Z" fill="#EA4335"/>
</svg>
