<svg width="32" height="32" viewBox="0 0 32 32" fill="none" xmlns="http://www.w3.org/2000/svg">
<rect width="32" height="32" fill="white"/>
<path d="M6.46949 5.84724C8.87903 3.49507 12.1491 2.2903 15.4192 2.00345C20.4678 1.88871 25.459 4.64247 27.9832 9.00259C24.6558 12.0432 21.5004 15.1412 18.3451 18.2392C15.4766 17.3212 12.6654 16.1738 9.85432 15.1412C7.44478 16.7475 4.97787 18.2965 2.56833 19.8455C1.01935 14.9117 2.74044 9.28944 6.46949 5.84724Z" fill="#5367FF" stroke="#5367FF" stroke-width="0.09375"/>
<path d="M27.9832 9.00259C28.3848 9.86314 28.729 10.7237 29.1306 11.5842C25.3442 14.2233 22.7626 18.3539 18.7467 20.7634C15.8782 20.4192 13.4113 18.4113 10.4854 18.0671C8.01848 19.2718 5.95316 21.1077 3.37151 22.0256C3.08466 21.3371 2.79781 20.5913 2.56833 19.8455C4.97787 18.2965 7.44478 16.7475 9.85432 15.1412C12.6654 16.1738 15.4766 17.3212 18.3451 18.2392C21.5004 15.1412 24.6558 12.0432 27.9832 9.00259Z" fill="#00FFC4" stroke="#00FFC4" stroke-width="0.09375"/>
<path d="M18.7467 20.7634C22.7626 18.3539 25.3442 14.2233 29.1306 11.5842C29.3601 12.5595 29.5322 13.5348 29.7617 14.5675C26.3769 16.9197 23.451 19.9029 20.5251 22.7714C20.0088 23.173 19.4925 23.7467 18.804 23.9188C15.8782 23.7467 13.4113 21.6814 10.4854 21.4519C8.47745 22.1977 6.81372 23.6319 5.03525 24.722C4.46155 23.8614 3.88785 22.9435 3.37152 22.0256C5.95317 21.1077 8.01849 19.2718 10.4854 18.0671C13.4113 18.4113 15.8782 20.4192 18.7467 20.7634Z" fill="#00EBB4" stroke="#00EBB4" stroke-width="0.09375"/>
<path d="M20.5251 22.7714C23.451 19.9029 26.3769 16.9196 29.7617 14.5675C29.8191 15.7149 29.7617 16.8623 29.7043 18.0097C26.6637 20.1324 23.91 22.5993 21.3857 25.353C20.5825 26.0988 19.8367 27.0168 18.804 27.361C15.9929 27.1315 13.6407 25.2957 10.887 24.8367C9.39537 25.1235 8.13323 25.9267 6.81372 26.6152C6.24002 25.9841 5.60895 25.353 5.03525 24.722C6.81372 23.6319 8.47745 22.1977 10.4854 21.4519C13.4113 21.6813 15.8782 23.7467 18.804 23.9188C19.4925 23.7467 20.0088 23.173 20.5251 22.7714Z" fill="#00D8A5" stroke="#00D8A5" stroke-width="0.09375"/>
<path d="M21.3857 25.353C23.91 22.5993 26.6637 20.1324 29.7043 18.0097C28.8438 24.6646 22.7052 30 15.9929 30C12.6655 30 9.39537 28.6805 6.81372 26.6152C8.13323 25.9267 9.39537 25.1236 10.887 24.8367C13.6407 25.2957 15.9929 27.1315 18.804 27.361C19.8367 27.0168 20.5825 26.0988 21.3857 25.353Z" fill="#00C798" stroke="#00C798" stroke-width="0.09375"/>
</svg>
