<svg width="32" height="32" viewBox="0 0 32 32" fill="none" xmlns="http://www.w3.org/2000/svg">
<rect width="32" height="32" fill="#131A28"/>
<path d="M15.0799 15.3428L15.1034 15.3461C15.2837 15.3696 15.4606 15.4029 15.5963 15.464C15.7218 15.5194 15.7954 15.5896 15.8625 15.7141C15.9646 15.9025 15.9713 16.1684 15.879 16.3689C15.8101 16.5183 15.6587 16.6435 15.5204 16.71C15.3794 16.7758 15.2283 16.8168 15.0732 16.8309C14.7831 16.8587 14.4903 16.8067 14.2277 16.6798C14.0766 16.6066 13.892 16.4797 13.7993 16.3165C13.7288 16.1946 13.7355 16.0428 13.8161 15.9277C13.949 15.7464 14.2327 15.7067 14.4473 15.7141C14.6105 15.7205 14.9039 15.7712 15.059 15.8259C15.102 15.8414 15.2605 15.9025 15.288 15.931C15.3092 15.9498 15.3183 15.9784 15.3115 16.0056C15.2763 16.1137 15.013 16.1704 14.9372 16.1822C14.7337 16.2131 14.6283 16.1365 14.3966 16.0452C14.3352 16.0197 14.2707 16.0019 14.2045 15.9925C14.0998 15.9824 13.9729 16.0116 13.9527 16.1261C13.9427 16.1852 14.0122 16.2403 14.0649 16.2634C14.174 16.3121 14.2922 16.3373 14.412 16.3373C14.7723 16.3433 15.1779 16.2839 15.4727 16.0754C15.513 16.0469 15.5529 16.0049 15.5533 15.9515C15.5543 15.8444 15.3663 15.7789 15.3663 15.7789C15.1675 15.6963 14.7992 15.656 14.6105 15.6406C14.412 15.6235 14.0998 15.5976 14.0246 15.5869C13.9463 15.5781 13.8698 15.5593 13.7966 15.5305C13.7234 15.4969 13.668 15.4341 13.6442 15.3576C13.6099 15.2222 13.6542 15.0564 13.7291 14.9486C13.9262 14.6659 14.3879 14.5584 14.7327 14.5158C15.0668 14.4745 15.6067 14.4748 15.9344 14.6488C15.9847 14.6756 16.0109 14.7011 16.0002 14.7549C15.9787 14.8563 15.9025 14.9217 15.8098 14.9503C15.7124 14.9812 15.512 14.9933 15.4237 14.9986C15.0285 15.0208 14.5497 15.009 14.174 15.1118C14.1444 15.1202 14.0934 15.1336 14.077 15.1521C14.0182 15.2159 14.1864 15.234 14.2223 15.2417C14.2304 15.2437 14.2381 15.2451 14.2458 15.2457L15.0785 15.3434L15.0799 15.3428V15.3428ZM12.7279 13.5848C12.7279 13.5848 12.7924 13.4884 12.8461 13.4159C12.9683 13.2591 13.1053 13.1144 13.2557 12.9841C13.2963 12.9495 13.3447 12.9102 13.3447 12.9102C13.3447 12.9102 13.2691 12.9176 13.2265 12.9263C13.1254 12.9461 12.9763 13.0438 12.9021 13.1083C12.7796 13.2131 12.645 13.3836 12.7057 13.5347C12.7145 13.5562 12.7282 13.5848 12.7282 13.5848H12.7279ZM13.4095 13.7667C13.6009 13.7533 13.7862 13.6979 13.9531 13.6042C14.1183 13.5119 14.3627 13.3316 14.3372 13.1194C14.3298 13.0549 14.2878 12.9995 14.2274 12.975C14.1535 12.9428 14.1152 12.9482 14.0209 12.975C13.9631 12.9901 13.9077 13.0133 13.8564 13.0442C13.6663 13.1543 13.397 13.39 13.2507 13.578C13.2171 13.6227 13.1828 13.6727 13.1563 13.7063C13.1395 13.7271 13.1261 13.7466 13.1278 13.7516C13.1335 13.7731 13.3333 13.7708 13.4091 13.7657L13.4098 13.7667H13.4095ZM12.9166 14.1283C12.8964 14.1492 12.8753 14.2002 12.8535 14.2368C12.841 14.2579 12.8249 14.2764 12.8065 14.2922C12.7558 14.3291 12.7131 14.3308 12.6644 14.2882C12.5963 14.225 12.5563 14.1371 12.5536 14.0441C12.5526 14.0044 12.5593 13.9611 12.5519 13.9266C12.5395 13.8701 12.4828 13.8124 12.4526 13.7583C12.414 13.6821 12.3904 13.5992 12.3837 13.5139C12.3713 13.2916 12.4888 13.0865 12.6416 12.925C12.8041 12.7564 12.9992 12.6228 13.2157 12.5332C13.4226 12.4459 13.7258 12.3871 13.9527 12.4653C14.0407 12.4969 14.1193 12.5499 14.1817 12.6195C14.1901 12.6329 14.2005 12.6446 14.2129 12.6547C14.2314 12.6614 14.2509 12.6661 14.2704 12.6681C14.3503 12.6863 14.4248 12.7219 14.4899 12.7715C14.5752 12.8451 14.6222 12.9156 14.6437 13.0177C14.6874 13.2235 14.5688 13.4491 14.4335 13.5864C14.2019 13.8221 13.9735 13.9893 13.6781 14.1048C13.5478 14.1552 13.345 14.2029 13.1976 14.1895C13.1516 14.1854 13.1046 14.1737 13.0599 14.1706C13.0207 14.1643 12.9817 14.1545 12.9444 14.1408C12.9334 14.1324 12.9193 14.1247 12.9166 14.1277V14.1283V14.1283ZM13.1805 14.5836C13.1926 14.5863 13.204 14.5897 13.2154 14.5937C13.3195 14.6333 13.3621 14.729 13.3876 14.8344C13.4471 15.0789 13.4723 15.6201 13.4823 15.8316C13.4894 15.9905 13.4934 16.1473 13.5001 16.304C13.5055 16.437 13.5166 16.614 13.4887 16.7385C13.4776 16.7889 13.4477 16.8332 13.4054 16.8624C13.3561 16.8936 13.2439 16.8963 13.1822 16.8836C13.0301 16.852 12.9807 16.7546 12.9589 16.6049C12.9075 16.2466 12.932 15.5446 12.9629 15.2478C12.973 15.1501 13.0099 14.8361 13.061 14.7058C13.0784 14.6612 13.116 14.5719 13.1808 14.585V14.5836H13.1805ZM8.55577 15.1793C8.55577 15.1793 8.32947 15.1954 8.17367 15.2125C7.97558 15.234 7.60289 15.2981 7.38834 15.3747C7.32387 15.3982 7.19293 15.4519 7.18151 15.5184C7.16976 15.5845 7.21207 15.6403 7.25974 15.696C7.28694 15.7279 7.4424 15.877 7.48604 15.9132C7.66836 16.0653 8.03803 16.2993 8.31066 16.4135C8.40501 16.4518 8.55912 16.5075 8.55912 16.5075C8.55912 16.5075 8.54737 16.0677 8.54972 15.6356C8.54972 15.4072 8.55577 15.1809 8.55577 15.1809V15.1793ZM12.7047 15.3542C12.7175 15.472 12.6873 15.696 12.6812 15.7252C12.6648 15.8081 12.6423 15.8897 12.6137 15.969C12.5761 16.0549 12.5342 16.1385 12.4882 16.2201C12.3901 16.3803 12.2706 16.5267 12.1329 16.6549C11.7434 16.9907 11.1408 17.1821 10.623 17.2438C10.2476 17.2888 9.86791 17.2788 9.49589 17.2136C9.36763 17.1901 9.17725 17.1465 9.17725 17.1465C9.17725 17.1465 9.17725 17.2227 9.17188 17.2761C9.16517 17.3133 9.15442 17.3499 9.13998 17.3852C9.11447 17.4389 9.0631 17.4752 9.00434 17.4822C8.92644 17.4967 8.84351 17.5014 8.77166 17.4705C8.65347 17.4211 8.61083 17.3106 8.59035 17.1837C8.57356 17.0817 8.5561 16.9051 8.5561 16.9051C8.5561 16.9051 8.4678 16.8627 8.39427 16.8265C8.17334 16.7167 7.96248 16.5881 7.76405 16.4414C7.71234 16.4024 7.48806 16.2154 7.4387 16.1691C7.29903 16.0365 7.17513 15.9058 7.08011 15.7383C7.00625 15.6074 6.98577 15.4908 7.04117 15.3522C7.11839 15.1591 7.39673 15.0131 7.58677 14.9305C7.72645 14.8687 8.16058 14.7273 8.34088 14.7011C8.42616 14.6887 8.55845 14.6652 8.56617 14.6602C8.56953 14.6578 8.57188 14.6555 8.57423 14.6525C8.5786 14.6468 8.58531 14.4554 8.58431 14.3855C8.58263 14.3154 8.63534 13.8641 8.65246 13.7684C8.66119 13.717 8.69947 13.5176 8.74043 13.4656C8.76662 13.4303 8.81329 13.433 8.85123 13.4562C9.05772 13.5844 9.12051 14.0296 9.13596 14.2559C9.14502 14.3943 9.14972 14.6018 9.14972 14.6018C9.14972 14.6018 9.38609 14.5944 9.53282 14.5984C9.68223 14.6051 9.83097 14.6219 9.97837 14.6478C10.1674 14.6776 10.534 14.7576 10.7449 14.8643C10.9185 14.9516 11.0807 15.0997 11.1334 15.2562C11.1824 15.3999 11.175 15.4989 11.1005 15.6288C11.0169 15.7746 10.8587 15.8833 10.6976 15.8924C10.6506 15.8951 10.4703 15.8713 10.4145 15.8286C10.3944 15.8108 10.392 15.7806 10.4095 15.7601C10.4545 15.7316 10.5011 15.7057 10.5492 15.6822C10.5727 15.6695 10.5941 15.654 10.614 15.6362C10.6553 15.6 10.6925 15.5603 10.6882 15.5133C10.6825 15.4529 10.6173 15.4153 10.5569 15.3915C10.2691 15.2773 9.69466 15.1826 9.41698 15.1665C9.30853 15.1598 9.15375 15.1544 9.15375 15.1544L9.18665 16.6835C9.18665 16.6835 9.31424 16.707 9.41497 16.7244C9.47272 16.7331 9.71749 16.7546 9.78262 16.7567C10.2789 16.7701 10.8309 16.7254 11.2855 16.5115C11.4852 16.4172 11.6682 16.301 11.8069 16.1432C11.9949 15.9236 12.0866 15.6372 12.0601 15.3495C12.0322 15.0231 11.8019 14.636 11.6182 14.4003C11.1327 13.7771 10.3004 13.2648 9.56807 12.9646C8.82034 12.6581 8.08134 12.4815 7.28828 12.4519C7.08347 12.4445 6.63759 12.4549 6.41196 12.517C6.38006 12.5261 6.34749 12.5369 6.31794 12.5439C6.29276 12.5499 6.26892 12.56 6.24676 12.5731C6.24273 12.5765 6.23904 12.5798 6.23568 12.5839C6.24441 12.5889 6.25348 12.5933 6.26288 12.5973C6.28638 12.6074 6.38711 12.6141 6.43949 12.6231C6.48649 12.6322 6.5335 12.6567 6.55365 12.6906C6.57312 12.7249 6.57379 12.7484 6.5523 12.7752C6.50127 12.8374 6.30888 12.8269 6.22427 12.8135C6.13932 12.8001 6.02651 12.7726 6.0067 12.6957C5.98319 12.6057 6.02584 12.5174 6.07217 12.4365C6.16517 12.2733 6.29847 12.188 6.49388 12.135C6.78431 12.0577 7.08213 12.0111 7.38263 11.9959C7.97491 11.9724 8.53529 12.0769 9.10943 12.2508C9.47641 12.3646 9.835 12.5036 10.1828 12.6671C10.4511 12.7998 10.712 12.9465 10.9645 13.1066C11.0276 13.1479 11.3966 13.4182 11.454 13.4659C11.5736 13.5633 11.7297 13.7036 11.8428 13.8158C12.0621 14.0323 12.3347 14.3644 12.4673 14.6283C12.4992 14.6911 12.5237 14.7532 12.5647 14.8264C12.5979 14.8969 12.6262 14.9701 12.6493 15.0446C12.6594 15.0876 12.6742 15.1504 12.6762 15.1527C12.6792 15.1762 12.7081 15.3048 12.7047 15.3542V15.3542ZM20.1515 15.0161C19.8738 15.0799 19.1442 15.1155 19.1442 15.1155L19.0525 15.4029C19.0525 15.4029 19.4172 15.3717 19.6824 15.3995C19.6824 15.3995 19.7684 15.3894 19.7781 15.4969C19.7798 15.5657 19.7771 15.6352 19.7697 15.7041C19.7697 15.7041 19.7643 15.7692 19.672 15.7856C19.572 15.8024 18.8863 15.8286 18.8863 15.8286L18.7755 16.2033C18.7755 16.2033 18.7339 16.2899 18.8266 16.2654C18.9125 16.2419 19.6307 16.1076 19.7241 16.1271C19.8244 16.152 19.9356 16.2852 19.9034 16.4068C19.8651 16.5579 19.1472 17.0138 18.7111 16.9819C18.7111 16.9819 18.4818 16.9967 18.288 16.6878C18.1071 16.3934 18.3562 15.836 18.3562 15.836C18.3562 15.836 18.242 15.5755 18.325 15.4875C18.325 15.4875 18.374 15.4428 18.5177 15.4328L18.694 15.0691C18.694 15.0691 18.4935 15.0826 18.3743 14.9358C18.2635 14.7965 18.2541 14.7324 18.3394 14.6941C18.43 14.6491 19.2641 14.4973 19.8379 14.5165C19.8379 14.5165 20.037 14.497 20.2099 14.8422C20.2099 14.8422 20.2938 14.9818 20.1515 15.0151V15.0161ZM17.9932 16.4108C17.9194 16.5834 17.7256 16.7677 17.4842 16.6532C17.2425 16.5387 16.8664 15.7638 16.8664 15.7638C16.8664 15.7638 16.7227 15.4751 16.6949 15.4825C16.6949 15.4825 16.6636 15.426 16.6445 15.7417C16.6254 16.0573 16.6485 16.669 16.5226 16.7654C16.4048 16.8621 16.2597 16.8235 16.1848 16.7107C16.117 16.5992 16.0885 16.3336 16.1257 15.8703C16.1694 15.4046 16.2775 14.9093 16.4162 14.7552C16.5548 14.6008 16.6653 14.7129 16.7086 14.7535C16.7086 14.7535 16.894 14.9207 17.1988 15.4116L17.2525 15.5029C17.2525 15.5029 17.5299 15.9666 17.5598 15.9659C17.5598 15.9659 17.5823 15.9871 17.6024 15.9717C17.6316 15.9636 17.6199 15.8145 17.6199 15.8145C17.6199 15.8145 17.5625 15.3089 17.3093 14.4527C17.2871 14.3862 17.2828 14.315 17.2972 14.2462C17.3227 14.1451 17.4245 14.1925 17.4245 14.1925C17.4245 14.1925 17.8163 14.3889 18.0063 15.0255C18.1964 15.6624 18.0684 16.2372 17.9939 16.4108H17.9932V16.4108ZM22.2124 16.0297C22.0337 16.3403 21.5298 16.9907 20.8603 16.8369C20.6393 17.3718 20.454 17.913 20.3472 18.7222C20.3472 18.7222 20.3237 18.8793 20.1928 18.8249C20.0632 18.7793 19.8493 18.564 19.8056 18.2659C19.7586 17.8744 19.9339 17.2126 20.2912 16.4538C20.1871 16.2849 20.1159 16.0435 20.1767 15.6997C20.1767 15.6997 20.2663 15.0617 20.9086 14.4866C20.9086 14.4866 20.9858 14.4201 21.0305 14.4406C21.0795 14.4614 21.0567 14.6689 21.0177 14.7706C20.9788 14.8724 20.6914 15.3649 20.6914 15.3649C20.6914 15.3649 20.5134 15.6987 20.5631 15.9616C20.9002 15.4452 21.6661 14.4027 22.1405 14.7317C22.3 14.8452 22.3735 15.093 22.3739 15.3596C22.3739 15.5939 22.3168 15.8431 22.2127 16.0297H22.2124V16.0297ZM22.0737 15.2105C22.0737 15.2105 22.0468 15.0053 21.8457 15.2316C21.6728 15.4224 21.3605 15.7803 21.1091 16.2661C21.3726 16.2369 21.6275 16.0939 21.704 16.021C21.8293 15.9102 22.1204 15.61 22.0734 15.2105H22.0737ZM25.9 15.1635H24.6731C24.6489 14.7475 24.5976 14.3342 24.5193 13.9245C24.5113 13.8816 24.4733 13.8503 24.4294 13.8503H24.146C24.1211 13.8503 24.0976 13.8618 24.0822 13.8806C24.0661 13.9 24.0597 13.9252 24.0644 13.9494C24.1443 14.3503 24.1967 14.7559 24.2209 15.1638H23.04C23.0135 15.1638 22.988 15.1739 22.9695 15.1927C22.9507 15.2112 22.9403 15.2363 22.9403 15.2632V15.517C22.9403 15.5436 22.9503 15.5691 22.9692 15.5875C22.988 15.6063 23.0135 15.6168 23.0397 15.6168H24.2373C24.2373 15.6799 24.2386 15.7359 24.2386 15.789C24.2407 16.1264 24.2235 16.4639 24.1873 16.7996C24.1849 16.8258 24.1937 16.8517 24.2108 16.8708C24.2282 16.8903 24.2531 16.9017 24.2793 16.9024H24.5415C24.5929 16.9024 24.6355 16.8638 24.6406 16.8131C24.6761 16.4733 24.6933 16.1315 24.6916 15.79C24.6916 15.7373 24.6916 15.6809 24.6902 15.6181H25.9003C25.9268 15.6181 25.952 15.6074 25.9708 15.5889C25.9896 15.5701 26 15.5449 26 15.5184V15.2642C26 15.2373 25.9893 15.2122 25.9708 15.1937C25.952 15.1749 25.9265 15.1645 25.9003 15.1645V15.1635H25.9Z" fill="white"/>
<path d="M24.3531 13.2534C23.174 10.3615 20.4886 8.35634 17.3751 8.04275C14.2613 7.72915 11.2287 9.15847 9.49386 11.7566C9.4764 11.7821 9.47203 11.8143 9.48244 11.8439C9.49252 11.8727 9.51535 11.8959 9.54456 11.9056L9.76448 11.9795C9.77724 11.9839 9.79067 11.9862 9.8041 11.9862C9.84473 11.9862 9.883 11.9661 9.9055 11.9322C11.3946 9.74302 13.8741 8.43189 16.5266 8.4329C19.7425 8.43323 22.6458 10.3538 23.8992 13.3084C23.9173 13.3511 23.9593 13.3789 24.0056 13.3789H24.2682C24.2984 13.3789 24.3269 13.3638 24.3441 13.3386C24.3609 13.3135 24.3642 13.2816 24.3531 13.2534V13.2534Z" fill="url(#paint0_radial_224_12)"/>
<path fill-rule="evenodd" clip-rule="evenodd" d="M22.9849 20.2761C23.5894 20.2761 24.0969 20.5002 24.4179 20.9701H24.4327V20.3879H25.2088V24.5221H24.4322V23.881H24.4174C24.127 24.3732 23.6042 24.6274 23.0151 24.6274C21.8062 24.6274 20.8209 23.7168 20.8209 22.5228C20.8209 21.2021 21.7686 20.2761 22.9849 20.2761ZM10.6464 20.2761C11.788 20.2761 12.8623 21.1714 12.8475 22.4852C12.8326 23.6109 11.8711 24.667 10.5089 24.6254C9.35389 24.5903 8.37205 23.5976 8.3854 22.4421C8.40024 21.1952 9.38703 20.2761 10.6464 20.2761ZM16.9 20.2761C17.5865 20.2761 18.1465 20.754 18.1687 21.485H17.3921C17.355 21.1868 17.1839 20.9854 16.8629 20.9854C16.5641 20.9854 16.3781 21.1868 16.3781 21.4257C16.3781 21.7759 16.7363 21.8807 17.1463 22.0074C17.7285 22.1864 18.2657 22.5371 18.2657 23.3058C18.2657 24.1041 17.6835 24.6264 16.8777 24.6264C16.1313 24.6264 15.4151 24.1194 15.4151 23.1638H16.1917C16.2288 23.6644 16.482 23.9176 16.8926 23.9176C17.2507 23.9176 17.4896 23.6866 17.4896 23.3508C17.4896 23.0669 17.2734 22.8809 16.7882 22.7236C15.7732 22.4031 15.6016 21.9628 15.6016 21.4924C15.6016 20.7614 16.2209 20.2761 16.9 20.2761ZM4 19C4.42885 19 4.77657 19.3477 4.77657 19.7766V20.8286H4.79141C5.03774 20.4626 5.43295 20.2761 5.94786 20.2761C6.93316 20.2761 7.67165 20.9028 7.67165 22.037V24.5221H6.89557V22.2764C6.89557 21.3881 6.5523 20.9854 5.86624 20.9854C5.18711 20.9854 4.77657 21.4776 4.77657 22.2839V24.5221H4V19ZM14.5045 19V20.3879H15.1836V21.0972H14.5045V24.5221C14.0761 24.5221 13.7284 24.1748 13.7284 23.746V21.0972H13.4079V20.3879H13.7284V19.0005L14.5045 19ZM19.896 19V20.3879H20.5746V21.0972H19.8955V24.5221C19.4671 24.5221 19.1194 24.1748 19.1194 23.746V21.0972H18.7989V20.3879H19.1194V19.0005L19.896 19ZM28 20.2761V21.075C27.3283 21.0972 26.985 21.5073 26.985 22.2013V23.746C26.985 24.1748 26.6378 24.5226 26.2089 24.5226V20.3879H26.9326V20.7614H26.9474C27.1344 20.4854 27.4549 20.3058 28 20.2761ZM10.6088 20.985C9.71942 20.985 8.96659 21.8486 9.20649 22.8106C9.36972 23.4631 9.96426 23.9354 10.6365 23.9171C11.4303 23.8954 12.0719 23.2612 12.0719 22.4402C12.0719 21.6339 11.4219 20.985 10.6088 20.985ZM23.0077 20.985C22.1881 20.985 21.5268 21.7249 21.6029 22.5994C21.6658 23.3201 22.2549 23.9028 22.978 23.9171C23.7981 23.9339 24.4476 23.2558 24.4476 22.4629C24.4476 21.6567 23.8654 20.985 23.0077 20.985Z" fill="white"/>
<defs>
<radialGradient id="paint0_radial_224_12" cx="0" cy="0" r="1" gradientUnits="userSpaceOnUse" gradientTransform="translate(12.7557 13.3679) scale(14.1688 14.1677)">
<stop offset="0.01" stop-color="white"/>
<stop offset="0.04" stop-color="#C6FFFF"/>
<stop offset="0.09" stop-color="#80FFFF"/>
<stop offset="0.13" stop-color="#49FFFF"/>
<stop offset="0.17" stop-color="#21FFFF"/>
<stop offset="0.2" stop-color="#09FFFF"/>
<stop offset="0.22" stop-color="#00FFFF"/>
<stop offset="0.28" stop-color="#01F6FF" stop-opacity="0.96"/>
<stop offset="0.39" stop-color="#04DEFF" stop-opacity="0.87"/>
<stop offset="0.53" stop-color="#08B6FF" stop-opacity="0.71"/>
<stop offset="0.69" stop-color="#0E7FFF" stop-opacity="0.5"/>
<stop offset="0.87" stop-color="#1639FF" stop-opacity="0.22"/>
<stop offset="1" stop-color="#1C00FF" stop-opacity="0"/>
</radialGradient>
</defs>
</svg>
