<svg width="32" height="32" viewBox="0 0 32 32" fill="none" xmlns="http://www.w3.org/2000/svg">
<rect width="32" height="32" fill="white"/>
<path fill-rule="evenodd" clip-rule="evenodd" d="M10.3464 18.9384L4.20374 28.1167C3.95429 28.4894 3.93232 28.9674 4.14655 29.3609C4.36077 29.7544 4.77656 30 5.22895 30H17.5171C17.9695 30 18.3853 29.7544 18.5995 29.3609C18.8137 28.9674 18.7918 28.4894 18.5423 28.1167L12.3997 18.9356C12.1709 18.596 11.7852 18.3922 11.3723 18.3928C10.9593 18.3934 10.5742 18.5982 10.3464 18.9384Z" fill="#E31C79"/>
<path d="M10.3464 13.0644L4.20374 3.88331C3.95429 3.51056 3.93232 3.03261 4.14655 2.63908C4.36077 2.24555 4.77656 2 5.22895 2H17.5171C17.9695 2 18.3853 2.24555 18.5995 2.63908C18.8137 3.03261 18.7918 3.51056 18.5423 3.88331L12.3997 13.0644C12.1723 13.4056 11.7865 13.6109 11.373 13.6109C10.9595 13.6109 10.5737 13.4056 10.3464 13.0644Z" fill="#E31C79"/>
<path d="M10.3464 13.0644L4.20374 3.88331C3.95429 3.51056 3.93232 3.03261 4.14655 2.63908C4.36077 2.24555 4.77656 2 5.22895 2H17.5171C17.9695 2 18.3853 2.24555 18.5995 2.63908C18.8137 3.03261 18.7918 3.51056 18.5423 3.88331L12.3997 13.0644C12.1723 13.4056 11.7865 13.6109 11.373 13.6109C10.9595 13.6109 10.5737 13.4056 10.3464 13.0644Z" fill="white" fill-opacity="0.8"/>
<path d="M19.3464 4.51863L13.2038 13.6998C12.9546 14.0734 12.9331 14.5519 13.1478 14.9459C13.3625 15.3399 13.7788 15.5856 14.2318 15.5859H26.5171C26.9696 15.5846 27.385 15.3384 27.599 14.9447C27.813 14.5509 27.7913 14.073 27.5423 13.6998L21.3997 4.51863C21.1714 4.17877 20.786 3.97446 20.373 3.97446C19.9601 3.97446 19.5747 4.17877 19.3464 4.51863Z" fill="#E31C79"/>
<path d="M19.3464 4.51863L13.2038 13.6998C12.9546 14.0734 12.9331 14.5519 13.1478 14.9459C13.3625 15.3399 13.7788 15.5856 14.2318 15.5859H26.5171C26.9696 15.5846 27.385 15.3384 27.599 14.9447C27.813 14.5509 27.7913 14.073 27.5423 13.6998L21.3997 4.51863C21.1714 4.17877 20.786 3.97446 20.373 3.97446C19.9601 3.97446 19.5747 4.17877 19.3464 4.51863Z" fill="white" fill-opacity="0.6"/>
<path d="M21.3997 27.5891L27.5423 18.408C27.7913 18.0348 27.813 17.5569 27.599 17.1631C27.385 16.7694 26.9696 16.5232 26.5171 16.5219H14.2318C13.7788 16.5221 13.3625 16.7679 13.1478 17.1619C12.9331 17.5558 12.9546 18.0344 13.2038 18.408L19.3464 27.5891C19.5747 27.929 19.9601 28.1333 20.373 28.1333C20.786 28.1333 21.1714 27.929 21.3997 27.5891Z" fill="#E31C79"/>
<path d="M21.3997 27.5891L27.5423 18.408C27.7913 18.0348 27.813 17.5569 27.599 17.1631C27.385 16.7694 26.9696 16.5232 26.5171 16.5219H14.2318C13.7788 16.5221 13.3625 16.7679 13.1478 17.1619C12.9331 17.5558 12.9546 18.0344 13.2038 18.408L19.3464 27.5891C19.5747 27.929 19.9601 28.1333 20.373 28.1333C20.786 28.1333 21.1714 27.929 21.3997 27.5891Z" fill="white" fill-opacity="0.3"/>
</svg>
