<svg width="32" height="32" viewBox="0 0 32 32" fill="none" xmlns="http://www.w3.org/2000/svg">
<rect width="32" height="32" fill="white"/>
<path d="M20.978 18.3142C20.9346 18.2709 20.913 18.2059 20.913 18.1409V13.3312C20.913 13.2662 20.9346 13.2012 20.978 13.1579C21.0213 13.1145 21.0863 13.0929 21.1513 13.0929H21.9832C22.0482 13.0929 22.0916 13.1145 22.1349 13.1579C22.1999 13.2012 22.2216 13.2662 22.2216 13.3529V18.1583C22.2216 18.2233 22.1999 18.2882 22.1349 18.3532C22.0916 18.3966 22.0266 18.4182 21.9832 18.4182H21.1513C21.0906 18.4009 21.043 18.3792 20.978 18.3142ZM20.9346 12.1743C20.8913 12.1309 20.8696 12.0659 20.8696 12.0009V11.26C20.8696 11.195 20.8913 11.13 20.9346 11.0867C20.978 11.0433 21.043 11 21.1079 11H22.0482C22.1132 11 22.1782 11.0217 22.2216 11.065C22.2649 11.1083 22.2865 11.1733 22.2865 11.2383V11.9793C22.2865 12.0443 22.2649 12.1093 22.2216 12.1526C22.1782 12.1959 22.1132 12.2176 22.0482 12.2176H21.1079C21.043 12.2393 20.978 12.2176 20.9346 12.1743Z" fill="#92C039"/>
<path d="M3.065 20.7581C3.02167 20.7148 3 20.6498 3 20.5631V19.9521C3 19.8872 3.02167 19.8222 3.065 19.7572C3.10833 19.7138 3.17332 19.6705 3.23832 19.6705H3.50264C3.78862 19.6705 3.98361 19.5838 4.07027 19.4322C4.15693 19.2805 4.22193 19.0379 4.22193 18.7346V13.3182C4.22193 13.2315 4.2436 13.1665 4.28693 13.1232C4.33026 13.0799 4.39525 13.0582 4.46025 13.0582H5.36153C5.42653 13.0582 5.49152 13.0799 5.53485 13.1232C5.57818 13.1665 5.59985 13.2315 5.59985 13.3182V18.7476C5.59985 19.4018 5.42653 19.9045 5.09721 20.2771C4.7679 20.6498 4.28693 20.8231 3.63263 20.8231H3.23832C3.17332 20.8231 3.10833 20.8014 3.065 20.7581ZM6.97777 17.8766C6.62679 17.4606 6.45347 16.9147 6.45347 16.1954V13.3572C6.45347 13.2922 6.47513 13.2272 6.51846 13.1839C6.56179 13.1405 6.62679 13.1189 6.69179 13.1189H7.58874C7.65373 13.1189 7.69706 13.1405 7.74039 13.1839C7.80539 13.2272 7.82705 13.2922 7.82705 13.3789V16.1737C7.82705 17.0057 8.17804 17.4173 8.87566 17.4173C9.22664 17.4173 9.48663 17.309 9.68595 17.088C9.88094 16.8713 9.9936 16.5637 9.9936 16.1694V13.3529C9.9936 13.2879 10.0153 13.2229 10.0586 13.1795C10.1019 13.1362 10.1669 13.1145 10.2319 13.1145H11.1289C11.1939 13.1145 11.2589 13.1362 11.3022 13.1795C11.3455 13.2229 11.3672 13.2879 11.3672 13.3529V18.1583C11.3672 18.2232 11.3455 18.2882 11.3022 18.3316C11.2589 18.3749 11.1939 18.3966 11.1289 18.3966H10.3402C10.2752 18.3966 10.2103 18.3749 10.1669 18.3316C10.1236 18.2882 10.1019 18.2232 10.1019 18.1583V17.7423C9.72928 18.2449 9.18331 18.5049 8.44235 18.5049C7.82706 18.4876 7.32442 18.2926 6.97777 17.8766ZM12.3508 18.3142C12.3075 18.2709 12.2858 18.2059 12.2858 18.1409V13.3312C12.2858 13.2662 12.3075 13.2012 12.3508 13.1579C12.3941 13.1145 12.4591 13.0929 12.5241 13.0929H13.3127C13.3777 13.0929 13.4427 13.1145 13.4861 13.1579C13.5294 13.2012 13.5511 13.2662 13.5511 13.3312V13.6822C13.902 13.2229 14.383 13.0062 14.994 13.0062C15.7349 13.0062 16.2376 13.3139 16.5452 13.9032C16.6969 13.6388 16.9395 13.4222 17.2212 13.2489C17.5028 13.0755 17.8321 13.0106 18.1615 13.0106C18.7074 13.0106 19.1451 13.2055 19.4961 13.5782C19.847 13.9508 20.0204 14.4968 20.0204 15.2161V18.1019C20.0204 18.1669 19.9987 18.2319 19.9554 18.2752C19.912 18.3186 19.847 18.3402 19.782 18.3402H18.9717C18.9717 18.3402 18.8418 18.3402 18.7984 18.2969C18.7551 18.2536 18.7334 18.1886 18.7334 18.1236V15.2854C18.7118 14.8478 18.6251 14.5445 18.4474 14.3668C18.2741 14.1718 18.0315 14.0808 17.7498 14.0808C17.4855 14.0808 17.2688 14.1675 17.0955 14.3668C16.9222 14.5618 16.8095 14.8694 16.8095 15.2854V18.1236C16.8095 18.1886 16.7879 18.2536 16.7445 18.2969C16.7012 18.3402 16.5712 18.3836 16.5712 18.3836H15.7176C15.6526 18.3836 15.5876 18.3619 15.5443 18.3186C15.5009 18.2752 15.4793 18.2103 15.4793 18.1453V15.3071C15.4793 14.8911 15.3926 14.5878 15.215 14.3885C15.0416 14.1935 14.799 14.1025 14.5173 14.1025C14.253 14.1025 14.0364 14.1891 13.8414 14.3885C13.6464 14.5835 13.5554 14.8911 13.5554 15.3071V18.1453C13.5554 18.2103 13.5337 18.2752 13.4904 18.3186C13.4471 18.3619 13.3821 18.3836 13.3171 18.3836H12.4635C12.4591 18.4009 12.3941 18.3792 12.3508 18.3142ZM23.6428 17.8766C23.2268 17.4606 22.9885 16.9147 22.9452 16.1954V15.7577V15.3201C22.9885 14.6008 23.2095 14.0548 23.6428 13.6388C24.0805 13.2229 24.6698 13.0279 25.454 13.0279C26.2167 13.0279 26.8103 13.2229 27.2436 13.6388C27.6812 14.0548 27.8979 14.6008 27.9412 15.3201C27.9412 15.4067 27.9412 15.5584 27.9412 15.7577C27.9412 15.9744 27.9412 16.1304 27.9412 16.1954C27.8979 16.9147 27.6769 17.4823 27.2436 17.8766C26.8276 18.2926 26.2167 18.4876 25.4324 18.4876C24.6698 18.4659 24.0588 18.2709 23.6428 17.8766ZM26.2643 17.1096C26.4593 16.893 26.5503 16.5637 26.572 16.126C26.572 16.061 26.572 15.931 26.572 15.7317C26.572 15.5367 26.572 15.4024 26.572 15.3374C26.5503 14.8998 26.4636 14.5748 26.2643 14.3538C26.065 14.1328 25.805 14.0028 25.454 14.0028C25.1031 14.0028 24.8214 14.1112 24.6438 14.3538C24.4488 14.5705 24.3361 14.9214 24.3361 15.3374V15.7317V16.126C24.3578 16.5637 24.4444 16.8887 24.6438 17.1096C24.8387 17.3263 25.1031 17.439 25.454 17.439C25.805 17.439 26.091 17.3306 26.2643 17.1096ZM4.42125 12.2393C4.35626 12.2393 4.31292 12.2176 4.26959 12.1743C4.2046 12.1309 4.16127 12.0659 4.16127 12.0009V11.26C4.16127 11.195 4.18293 11.13 4.22626 11.0867C4.26959 11.0433 4.33459 11 4.42125 11H5.36153C5.42653 11 5.49152 11.0217 5.53485 11.065C5.57818 11.1083 5.59985 11.1733 5.59985 11.2383V11.9793C5.59985 12.0443 5.57818 12.1093 5.53485 12.1526C5.49152 12.1959 5.40486 12.2393 5.33987 12.2393H4.42125ZM28.5392 17.4173C28.8035 17.4173 29.0202 17.634 28.9985 17.9199C28.9985 18.1843 28.7602 18.4009 28.4959 18.3792C28.2575 18.3576 28.0582 18.1626 28.0582 17.8983C28.0582 17.634 28.2532 17.4173 28.5392 17.4173ZM28.5175 17.5256C28.3442 17.5256 28.2099 17.634 28.1665 17.8116C28.1016 18.0976 28.2749 18.3142 28.5392 18.3142C28.7342 18.3142 28.9118 18.1409 28.9118 17.9199C28.9118 17.6989 28.7342 17.5256 28.5175 17.5256ZM28.4525 18.1799H28.3442V17.6773C28.4092 17.6773 28.4525 17.6556 28.5175 17.6556C28.6042 17.6556 28.6475 17.6773 28.6692 17.6989C28.6909 17.7206 28.7125 17.7639 28.7125 17.8073C28.7125 17.8723 28.6475 17.9156 28.6475 17.9156C28.6475 17.9156 28.6909 17.9806 28.6909 18.0456C28.7125 18.1106 28.7125 18.1539 28.7342 18.1756H28.6475C28.6259 18.1539 28.6259 18.1106 28.6042 18.0456C28.5825 17.9806 28.5609 17.9589 28.4959 17.9589H28.4525V18.1799ZM28.4525 17.8983H28.5175C28.5825 17.8983 28.6475 17.8766 28.6475 17.8116C28.6475 17.7683 28.6259 17.7249 28.5392 17.7249C28.4959 17.7249 28.4742 17.7249 28.4742 17.7249L28.4525 17.8983Z" fill="black"/>
</svg>
