<svg width="32" height="32" viewBox="0 0 32 32" fill="none" xmlns="http://www.w3.org/2000/svg">
<rect width="32" height="32" fill="white"/>
<path fill-rule="evenodd" clip-rule="evenodd" d="M25.5656 23.4408C22.8302 25.9531 19.7489 28.0604 16.4156 29.6985L16.0036 29.9005C15.871 29.966 15.7251 30 15.5772 30C15.4293 30 15.2833 29.966 15.1507 29.9005L14.7387 29.6985C11.4054 28.0604 8.32412 25.9531 5.58869 23.4408C5.08838 22.9802 4.68891 22.4209 4.41548 21.7982C4.14205 21.1756 4.00058 20.503 4 19.823V9.23027C4 9.14115 4.01166 9.05624 4.03313 8.97552C3.99799 8.83315 3.99528 8.6847 4.0252 8.54114C4.08958 8.25886 4.28788 8.0265 4.5403 7.8884L15.1134 2.11825C15.2556 2.04066 15.4151 2 15.5772 2C15.7392 2 15.8987 2.04066 16.0409 2.11825L24.7902 6.89319L26.6453 7.90519C26.7998 7.98995 26.9286 8.11474 27.0183 8.26645C27.1079 8.41816 27.1551 8.59121 27.1548 8.76743V19.823C27.1542 20.5031 27.0127 21.1757 26.7392 21.7983C26.4657 22.421 26.0661 22.9803 25.5656 23.4408V23.4408ZM6.89977 21.9921C9.49437 24.3746 12.4164 26.3737 15.5772 27.9288C18.7381 26.3739 21.6602 24.3746 24.2545 21.9916C24.5547 21.7156 24.7945 21.3805 24.9586 21.0072C25.1227 20.6339 25.2077 20.2307 25.2082 19.823V10.2637L22.9122 11.3033V16.7921C22.9122 17.7252 22.5184 18.6225 21.8316 19.2528C20.1631 20.7849 18.2838 22.0701 16.2509 23.0694L16.0036 23.1902C15.871 23.2559 15.7249 23.2901 15.5769 23.2901C15.4289 23.2901 15.2829 23.2559 15.1502 23.1902L14.9034 23.0694C12.8705 22.0701 10.9912 20.7849 9.3227 19.2528C8.98238 18.9395 8.71066 18.5591 8.52467 18.1356C8.33869 17.7121 8.24248 17.2546 8.24211 16.7921V11.3033L5.94609 10.2759V19.823C5.94609 20.6446 6.29369 21.4359 6.89977 21.9921V21.9921ZM15.4642 14.4816C15.367 14.4718 15.2718 14.4472 15.182 14.4088L10.1887 12.1744V16.7921C10.1887 17.1751 10.3506 17.5437 10.6338 17.8036C12.0849 19.1343 13.7099 20.2621 15.4642 21.156V14.4816ZM15.5772 4.09513L7.17552 8.68018L15.5772 12.4403L23.9592 8.66991L23.8631 8.61719L15.5772 4.09513Z" fill="#443EFF"/>
</svg>
