<svg width="32" height="32" viewBox="0 0 32 32" fill="none" xmlns="http://www.w3.org/2000/svg">
<rect width="32" height="32" fill="white"/>
<path fill-rule="evenodd" clip-rule="evenodd" d="M27.1169 3H4.95991C3.9001 3 3 3.83819 3 4.87076V27.128C3 28.1618 3.59057 29 4.65038 29H26.8073C27.8684 29 29 28.1618 29 27.128V4.87076C29 3.83819 28.1779 3 27.1169 3ZM12.9048 12.9048H16.4049V14.6889H16.4432C16.9769 13.7269 18.553 12.75 20.5017 12.75C24.242 12.75 25.2857 14.7359 25.2857 18.4143V25.2857H21.5714V19.0915C21.5714 17.4449 20.914 16 19.3763 16C17.5092 16 16.619 17.2641 16.619 19.3391V25.2857H12.9048V12.9048ZM6.71429 25.2857H10.4286V12.9048H6.71429V25.2857ZM10.8929 8.57143C10.8929 9.8541 9.8541 10.8929 8.57143 10.8929C7.28876 10.8929 6.25 9.8541 6.25 8.57143C6.25 7.28876 7.28876 6.25 8.57143 6.25C9.8541 6.25 10.8929 7.28876 10.8929 8.57143Z" fill="#0A66C2"/>
</svg>
