<svg width="32" height="32" viewBox="0 0 32 32" fill="none" xmlns="http://www.w3.org/2000/svg">
<rect width="32" height="32" fill="#CF381E"/>
<path d="M23.1383 29C24.7111 28.9796 26.202 28.3669 27.2844 27.2639C28.3874 26.161 29 24.6702 29 23.1178V8.92303C29 7.35045 28.3873 5.85935 27.3049 4.73612C26.202 3.63311 24.711 3 23.1383 3H8.86177C7.28911 3.02048 5.7981 3.63311 4.71565 4.73612C3.61272 5.85944 3 7.35054 3 8.92303V23.1383C3.02039 26.3654 5.63472 28.9796 8.86177 29" fill="#CF381E"/>
<path d="M19.0943 16.8068C18.5428 18.645 19.4414 20.4831 21.3409 19.748C20.7894 21.0755 19.8702 23.0566 19.8702 25.1195C19.8702 25.1195 19.8702 26.5083 20.8914 26.8556C20.8914 26.8556 22.3213 27.2028 22.0151 25.9365C21.7904 25.1399 21.7292 24.3231 21.8312 23.5061C22.1783 21.8108 22.7095 20.1565 23.404 18.5634C23.404 18.5634 25.5894 14.0087 26.8556 11.8847C26.8556 11.8847 27.3865 10.8022 26.304 10.8022C25.9773 10.8022 25.6708 10.9656 25.4668 11.231L22.3829 16.7251C21.9128 17.583 21.4637 17.8486 21.1163 17.8486C20.3404 17.8486 20.5036 16.6027 20.6263 16.1531C20.9733 14.6213 21.5249 13.1511 22.2602 11.7415C22.8117 10.5366 21.7086 10.4345 21.7086 10.4345C21.0141 10.2507 20.4833 11.3945 20.4833 11.3945L19.2578 13.8862C18.4612 15.2751 17.583 16.6027 16.6435 17.8894C16.6435 17.8894 16.4799 18.0936 16.3575 18.012C16.2349 17.9098 16.296 17.7057 16.296 17.7057C16.5004 16.0103 16.8476 14.3355 17.3173 12.6812C17.3378 12.5789 17.3582 12.4974 17.3582 12.3953C17.3788 12.1706 17.3173 11.9459 17.1744 11.7824C17.0314 11.5986 16.8274 11.4965 16.6026 11.4965C16.0511 11.4353 15.7855 11.7008 15.2956 12.293C14.2131 13.6207 12.9466 15.6221 12.3339 16.5209C12.2728 16.623 12.1502 16.6026 12.1502 16.4596C12.1502 16.051 13.5799 11.6394 13.5799 11.6394C13.5799 11.6394 13.7431 11.0268 13.2532 10.8225C13.2532 10.8225 12.4976 10.3528 11.8846 11.2718L8.94359 15.2751C8.71896 15.5815 8.59645 15.4794 8.59645 15.4794V15.2138L9.06619 12.5996C9.43388 10.5981 8.73944 10.4959 8.29009 10.4142C7.96326 10.4142 7.61612 10.5162 7.33006 10.7002C6.41107 11.1494 5.71663 12.9673 5.71663 12.9673C5.71663 12.9673 5.51238 13.6208 5.96164 13.8862C6.10471 13.9678 6.26809 14.0292 6.43146 14.0088C7.08505 13.9679 7.20764 12.7629 7.67738 12.7629C7.75911 12.7629 7.7591 12.8651 7.7591 12.8856L6.2477 19.2375C6.14558 19.6051 6.30895 19.9931 6.6154 20.1974C6.81964 20.32 7.04427 20.3404 7.26889 20.2994C7.47322 20.2383 7.65698 20.0953 7.77949 19.9115L8.33087 19.0537C9.12752 17.6443 10.5981 15.6223 10.7411 15.6223C10.8022 15.6223 10.8229 15.6223 10.8229 15.6835L10.2712 19.4213C10.2099 19.7481 10.3938 20.0952 10.7002 20.2382C10.9861 20.3402 11.2925 20.3198 11.5578 20.1768C11.8643 19.9318 12.1299 19.6254 12.3137 19.2782C12.6199 18.788 14.0905 17.0519 14.989 15.4589C15.0506 15.3567 15.1117 15.4589 15.0914 15.5202C14.9077 16.3575 14.7643 18.5837 14.744 19.1352C14.7032 20.2177 15.5405 20.3402 15.5612 20.3402C16.1127 20.3811 16.6436 20.1359 16.95 19.6867" fill="white"/>
</svg>
