<svg width="32" height="32" viewBox="0 0 32 32" fill="none" xmlns="http://www.w3.org/2000/svg">
<rect width="32" height="32" fill="white"/>
<path fill-rule="evenodd" clip-rule="evenodd" d="M12.2142 22.5255H19.7857V8.85845H12.2142V22.5255Z" fill="#FF5F00"/>
<path fill-rule="evenodd" clip-rule="evenodd" d="M12.695 15.692C12.695 12.9193 13.9874 10.4499 16 8.85851C14.528 7.69452 12.671 7.00013 10.6524 7.00013C5.87371 7.00013 2 10.8917 2 15.692C2 20.4924 5.87371 24.3839 10.6524 24.3839C12.671 24.3839 14.528 23.6896 16 22.5256C13.9874 20.934 12.695 18.4648 12.695 15.692Z" fill="#EB001B"/>
<path fill-rule="evenodd" clip-rule="evenodd" d="M29.7298 21.078V20.7407H29.6421L29.5414 20.9727L29.4404 20.7407H29.3527V21.078H29.4145V20.8235L29.5092 21.043H29.5734L29.6681 20.823V21.078H29.7298ZM29.1744 21.078V20.7982H29.2868V20.7412H29.0008V20.7982H29.1131V21.078H29.1744ZM30 15.6919C30 20.4923 26.1261 24.3838 21.3476 24.3838C19.329 24.3838 17.4717 23.6894 16 22.5254C18.0126 20.9341 19.305 18.4646 19.305 15.6919C19.305 12.9194 18.0126 10.45 16 8.85838C17.4717 7.69439 19.329 7 21.3476 7C26.1261 7 30 10.8916 30 15.6919Z" fill="#F79E1B"/>
</svg>
