<svg width="32" height="32" viewBox="0 0 32 32" fill="none" xmlns="http://www.w3.org/2000/svg">
<rect width="32" height="32" fill="#E94555"/>
<path fill-rule="evenodd" clip-rule="evenodd" d="M2 11.0843L2.00339 9.34415L4.75473 9.34839L9.12289 9.35601L9.1212 10.2935V10.3634V10.3761L9.11993 10.8042C9.67384 10.193 10.2926 9.74125 10.9749 9.44883C11.667 9.14877 12.4468 9.00171 13.3139 9.00638C13.8886 9.00722 14.4099 9.07546 14.8837 9.21065C15.3541 9.345 15.7737 9.54715 16.1364 9.81542C16.2599 9.90298 16.3753 10.0013 16.4814 10.1091C16.5879 10.2164 16.6837 10.3338 16.7675 10.4596C16.8673 10.6117 16.9579 10.7696 17.0387 10.9326C17.4914 10.4795 17.9516 10.1117 18.4237 9.82686C18.8941 9.54079 19.3942 9.33016 19.924 9.19751C20.4538 9.06359 21.0382 8.99875 21.6743 9.00002C23.2517 9.00595 24.4418 9.43654 25.2385 10.2969C26.0348 11.1572 26.4341 12.4299 26.4307 14.1183L26.4274 16.0007C24.5349 16.0394 23.0035 17.5938 23 19.495C22.9965 21.4106 24.5458 22.9771 26.458 22.9998L22.0036 22.9915C22.0463 22.6577 22.0809 22.323 22.1074 21.9875C22.1341 21.6646 22.1558 21.3149 22.168 20.9356C22.1803 20.5589 22.1846 20.1207 22.1846 19.6223L22.193 15.0253C22.1939 14.4713 22.1405 14.0217 22.0227 13.6793C21.9057 13.336 21.7222 13.0868 21.4658 12.9342C21.2085 12.7774 20.8733 12.699 20.4554 12.702C20.0787 12.7012 19.7083 12.7991 19.3811 12.9859C19.0391 13.1749 18.7293 13.4462 18.453 13.8022C18.1762 14.1556 17.9482 14.5828 17.7605 15.0846L17.752 19.6371C17.7501 20.0451 17.7543 20.4532 17.7647 20.8611C17.7851 21.5708 17.8376 22.2793 17.9219 22.9843L13.3338 22.9758C13.3792 22.6449 13.4122 22.3113 13.4385 21.9723C13.4678 21.612 13.4883 21.2511 13.5 20.8899C13.5111 20.4623 13.5168 20.0347 13.5169 19.607L13.5245 15.01C13.5254 14.7019 13.5139 14.4379 13.4927 14.2255C13.4707 14.0141 13.4309 13.8314 13.3758 13.6822C13.3203 13.5296 13.2478 13.3919 13.1529 13.269C13.0278 13.0906 12.863 12.952 12.6532 12.8558C12.443 12.7583 12.2086 12.71 11.9399 12.7092C11.3411 12.7117 10.7973 12.9194 10.3138 13.3305C9.82895 13.7432 9.42634 14.3298 9.11272 15.0918L9.10425 19.5994C9.10382 20.0643 9.10637 20.4801 9.11696 20.8526C9.12756 21.2285 9.14875 21.5815 9.17417 21.9206C9.19969 22.2708 9.23304 22.6204 9.27419 22.9691L4.731 22.9606C4.7755 22.6224 4.80856 22.2846 4.83483 21.9422C4.86354 21.5818 4.88389 21.2207 4.89586 20.8594C4.90771 20.4369 4.91336 20.0144 4.91281 19.5918L4.9251 12.7189C4.92595 12.1608 4.92341 11.6814 4.91324 11.2831L4.90688 11.0894L2 11.0843ZM26.5288 22.9999C26.517 23 26.5053 23 26.4935 23C26.4816 23 26.4698 22.9999 26.458 22.9998L26.5288 22.9999ZM26.5288 22.9999C26.5496 22.9997 26.5704 22.9994 26.5912 22.9988C26.5912 22.9992 26.5912 22.9996 26.5913 23L26.5288 22.9999ZM26.5912 22.9988C26.5487 22.6578 26.5149 22.3158 26.4896 21.9731C26.4627 21.6165 26.4439 21.2592 26.4332 20.9017C26.4231 20.4855 26.419 20.0691 26.4209 19.6528L26.4274 16.0007C26.4535 16.0002 26.4797 16 26.506 16C28.4335 16.0035 30.003 17.58 30 19.5075C29.9966 21.4023 28.4739 22.9502 26.5912 22.9988Z" fill="white"/>
<path fill-rule="evenodd" clip-rule="evenodd" d="M26.4935 23C28.421 23.0035 29.9965 21.435 30 19.5075C30.003 17.58 28.4335 16.0035 26.506 16C24.5775 15.9965 23.0035 17.5675 23 19.495C22.9965 21.4225 24.565 22.9965 26.4935 23Z" fill="#E94555"/>
<path fill-rule="evenodd" clip-rule="evenodd" d="M26.8269 22.7C28.3964 22.7028 29.6793 21.4256 29.6821 19.8561C29.6846 18.2866 28.4066 17.0029 26.837 17C25.2667 16.9972 23.985 18.2764 23.9822 19.8459C23.9793 21.4155 25.2565 22.6971 26.8269 22.7Z" fill="white"/>
</svg>
