<svg width="32" height="32" viewBox="0 0 32 32" fill="none" xmlns="http://www.w3.org/2000/svg">
<rect width="32" height="32" fill="white"/>
<path d="M5.80832 18.3888C5.80832 19.3816 6.02622 20.1438 6.31103 20.6049C6.68445 21.2089 7.24141 21.4647 7.80922 21.4647C8.54159 21.4647 9.21157 21.283 10.5027 19.4973C11.5371 18.066 12.7559 16.057 13.5759 14.7975L14.9647 12.6637C15.9295 11.1817 17.0461 9.53436 18.3264 8.41772C19.3716 7.50633 20.4991 7 21.6338 7C23.5389 7 25.3535 8.10398 26.7423 10.1745C28.2622 12.4421 29 15.2984 29 18.2459C29 19.9982 28.6546 21.2857 28.0669 22.3029C27.4991 23.2866 26.3924 24.2694 24.5307 24.2694V21.4647C26.1248 21.4647 26.5226 20 26.5226 18.3237C26.5226 15.9349 25.9656 13.2839 24.7387 11.3897C23.868 10.0461 22.7396 9.22514 21.4982 9.22514C20.1555 9.22514 19.075 10.2378 17.8608 12.0434C17.2152 13.0027 16.5524 14.1718 15.8083 15.491L14.9892 16.9421C13.3436 19.8599 12.9268 20.5244 12.104 21.6212C10.6618 23.5416 9.43038 24.2694 7.80922 24.2694C5.88608 24.2694 4.66998 23.4367 3.91682 22.1817C3.30199 21.1591 3 19.8174 3 18.2884L5.80832 18.3888Z" fill="#0081FB"/>
<path d="M5.21429 10.3725C6.50182 8.38788 8.35986 7 10.491 7C11.7251 7 12.9521 7.36528 14.2333 8.41139C15.6347 9.55515 17.1284 11.4385 18.9919 14.5425L19.66 15.6564C21.2731 18.3436 22.1908 19.726 22.7279 20.3779C23.4186 21.2152 23.9024 21.4647 24.5308 21.4647C26.1248 21.4647 26.5226 20 26.5226 18.3237L29 18.2459C29 19.9982 28.6546 21.2857 28.0669 22.3029C27.4991 23.2866 26.3924 24.2694 24.5308 24.2694C23.3734 24.2694 22.3481 24.0181 21.2143 22.9485C20.3427 22.1275 19.3237 20.6691 18.5398 19.358L16.208 15.4629C15.038 13.5081 13.9647 12.0506 13.3436 11.3906C12.6754 10.6808 11.8165 9.82369 10.4458 9.82369C9.33636 9.82369 8.39422 10.6022 7.6058 11.7929L5.21429 10.3725Z" fill="url(#paint0_linear_312_2)"/>
<path d="M10.4458 9.82369C9.33635 9.82369 8.39421 10.6022 7.60579 11.7929C6.49096 13.4756 5.80832 15.9819 5.80832 18.3888C5.80832 19.3816 6.02622 20.1438 6.31103 20.6049L3.91682 22.1817C3.30199 21.1591 3 19.8174 3 18.2884C3 15.5081 3.76311 12.6103 5.21429 10.3725C6.50181 8.38788 8.35986 7 10.491 7L10.4458 9.82369Z" fill="url(#paint1_linear_312_2)"/>
<defs>
<linearGradient id="paint0_linear_312_2" x1="8.51538" y1="17.5787" x2="26.4177" y2="18.4828" gradientUnits="userSpaceOnUse">
<stop stop-color="#0064E1"/>
<stop offset="0.4" stop-color="#0064E1"/>
<stop offset="0.83" stop-color="#0073EE"/>
<stop offset="1" stop-color="#0082FB"/>
</linearGradient>
<linearGradient id="paint1_linear_312_2" x1="7.06872" y1="19.5678" x2="7.06872" y2="12.9675" gradientUnits="userSpaceOnUse">
<stop stop-color="#0082FB"/>
<stop offset="1" stop-color="#0064E0"/>
</linearGradient>
</defs>
</svg>
