<svg width="32" height="32" viewBox="0 0 32 32" fill="none" xmlns="http://www.w3.org/2000/svg">
<rect width="32" height="32" fill="white"/>
<path fill-rule="evenodd" clip-rule="evenodd" d="M8.17952 24.958C8.10264 25.0241 8.00277 25.0598 7.90053 25.0598H2.4517C2.27932 25.0598 2.1113 24.9687 2.04037 24.8113C1.95834 24.6302 2.00589 24.419 2.15409 24.2966L12.0975 15.9224C12.319 15.7354 12.3198 15.3942 12.0987 15.2067L2.16915 6.77591C2.04868 6.67328 1.97855 6.51635 2.00589 6.36061C2.04314 6.14623 2.22701 6 2.43466 6H7.67822C7.77887 6 7.87676 6.03567 7.9572 6.10145L18.778 15.204L18.8759 15.2876C19.0423 15.4294 19.0467 15.685 18.8854 15.8329L18.7784 15.9307L8.17952 24.958Z" fill="#A8CB3A"/>
<path fill-rule="evenodd" clip-rule="evenodd" d="M20.4487 13.9886C20.6222 14.1364 20.8778 14.1364 21.0514 13.989L29.7307 6.77591C29.8512 6.67328 29.9209 6.51635 29.894 6.36061C29.8567 6.14623 29.6724 6 29.4652 6H24.2216C24.121 6 24.0231 6.03567 23.9427 6.10145L17.8523 11.0664C17.6319 11.2519 17.6311 11.5907 17.8503 11.7773L20.4487 13.9886Z" fill="#174489"/>
<path fill-rule="evenodd" clip-rule="evenodd" d="M20.4194 17.1422C20.5933 16.9944 20.8485 16.994 21.0225 17.1418L29.831 24.3358C29.9514 24.438 30.0212 24.5954 29.9942 24.7511C29.957 24.9651 29.7727 25.1117 29.5655 25.1117H24.3215C24.2212 25.1117 24.1234 25.0761 24.0429 25.0103L17.9906 19.9708C17.7702 19.7853 17.7694 19.4465 17.9886 19.2599L20.4194 17.1422Z" fill="#174489"/>
</svg>
