<svg width="32" height="32" viewBox="0 0 32 32" fill="none" xmlns="http://www.w3.org/2000/svg">
<rect width="32" height="32" fill="white"/>
<path fill-rule="evenodd" clip-rule="evenodd" d="M29.776 13.9662C29.725 13.2935 29.5521 12.4037 29.2941 11.5479C28.7632 9.7802 27.8402 8.15514 26.5939 6.79379C25.9399 6.08873 25.2008 5.43305 24.0989 4.66072C23.259 4.24619 22.4331 3.80372 21.6227 3.33404C21.0896 3.03175 20.4527 2.66133 19.6105 2.3931C18.612 2.1574 17.5912 2.0281 16.5655 2.00736C15.5692 1.9733 14.5703 2.05845 13.6073 2.24238C12.5922 2.41013 11.7492 2.67836 10.6312 2.94745C8.10213 4.0391 6.14191 5.68511 4.45589 7.86927C-1.42646 16.0823 3.88877 27.5881 13.7103 28.948C15.3273 29.1668 16.9444 29.0825 18.4746 28.73L19.5586 28.4447C19.5926 28.4277 19.6446 28.4107 19.6786 28.4107L20.9176 27.9406C20.9857 27.9066 21.0377 27.8895 21.1066 27.8563L21.6227 27.6213C22.6128 27.1327 23.5422 26.5296 24.3918 25.8246C23.6184 26.5273 22.7773 27.1517 21.8807 27.6886L21.9318 27.7226C22.1046 27.6715 22.2588 27.6213 22.4308 27.5881C22.4308 27.5881 22.4308 27.8563 22.3967 27.8061C22.1217 28.0079 22.5517 27.8231 23.1018 27.537C23.6527 27.2517 24.1858 26.8984 24.6669 26.4956C25.3728 25.908 25.9919 25.2694 26.8689 24.2288C27.763 22.6663 28.8819 21.3055 29.398 19.4747C29.57 18.9877 29.7241 18.4171 29.828 17.8287C29.9302 17.2412 30 16.6366 30 16.015C29.983 15.3934 29.914 14.7547 29.776 13.9662ZM17.0474 27.7729C20.0576 27.302 22.5858 25.6398 24.6499 23.3722C25.2178 22.5488 25.6649 21.7926 26.215 20.97C26.903 19.29 26.8519 17.7955 27.075 16.7379C27.3509 14.822 26.6969 13.2773 26.1468 11.6313C25.3038 9.71624 24.1858 8.28908 22.2247 7.18039C17.2705 4.1234 10.5281 4.97919 7.31191 9.54849C7.29488 9.54849 7.20802 9.666 7.03601 9.90102C7.25997 8.96093 7.82793 8.40659 8.39505 7.86842C10.0811 6.4915 12.0421 5.39899 14.2783 4.86253C16.8073 4.59345 19.3176 4.86253 21.5707 5.95419C24.9428 7.86842 27.1789 10.876 27.746 14.4354V17.7283C27.0409 23.1201 22.3967 27.2185 17.0474 27.7729ZM29.415 15.5109C29.2941 7.61722 21.4336 2.29262 13.7793 3.3681C11.5431 3.92159 9.10012 5.03028 7.363 6.5758C6.51999 7.1293 6.12488 8.15454 5.28187 8.97711C1.90982 13.8989 2.49567 20.1977 6.692 24.0279C7.23028 24.56 7.80503 25.054 8.41208 25.5061C4.90379 23.4054 3.3208 20.23 2.77071 16.3684C2.77071 14.9906 3.04576 13.6299 3.33783 12.2529C5.29975 6.22242 11.4742 1.83876 18.2004 2.94745C19.3184 3.21653 20.4365 3.50179 21.5724 3.77087C22.9826 4.32437 24.3757 5.14779 25.4937 6.2403C26.6118 7.33111 27.4548 8.70888 28.2978 10.0688C28.8649 11.1613 29.1408 12.5382 29.4159 13.6299C29.4669 14.2515 29.4669 14.8901 29.4159 15.5117L29.415 15.5109Z" fill="black"/>
<path fill-rule="evenodd" clip-rule="evenodd" d="M22.4308 15.6284C22.4308 19.0217 19.5756 21.7764 16.0494 21.7764C12.5241 21.7764 9.66809 19.0217 9.66809 15.6284C9.66809 12.2359 12.5233 9.48122 16.0494 9.48122C19.5756 9.48122 22.4308 12.2359 22.4308 15.6292V15.6284Z" fill="white"/>
<path fill-rule="evenodd" clip-rule="evenodd" d="M22.4657 14.587C22.3797 14.1169 22.2417 13.7474 22.1046 13.2271C21.5537 12.0843 20.7456 11.1945 19.6786 10.4383C15.6884 7.802 10.2011 10.3378 9.61699 14.8399C9.39389 16.6204 10.03 18.3337 11.1651 19.6442C10.8211 19.2908 10.443 18.9221 10.185 18.5014L10.1509 18.5355C10.185 18.636 10.3229 18.7033 10.357 18.8037C10.357 18.8037 10.219 18.8037 10.2539 18.7867C10.1509 18.67 10.2369 18.8548 10.391 19.106C10.529 19.3581 10.701 19.594 10.9071 19.8119C11.2 20.1313 11.5091 20.4165 12.0251 20.8031C12.783 21.1889 13.4531 21.693 14.3302 21.928C14.5712 21.9961 14.8462 22.0625 15.1221 22.1128C15.4142 22.1639 15.6892 22.1809 15.9992 22.1809C16.2913 22.1809 16.6012 22.1468 16.9793 22.0787C17.3692 22.0328 17.7545 21.9545 18.1314 21.8445C18.9732 21.5912 19.7487 21.155 20.4024 20.5672C20.7294 20.2658 21.1944 19.8792 21.5546 19.3751C21.8475 18.8046 21.8815 18.5185 22.0195 18.2664C22.1566 18.0144 22.3286 17.7291 22.4495 17.3425C22.5481 16.8839 22.6056 16.4174 22.6215 15.9486C22.6045 15.4785 22.5704 15.0247 22.4665 14.5878L22.4657 14.587ZM18.3715 11.4636C18.9565 11.7991 19.0426 11.8493 18.7326 11.6313C19.1805 11.7318 19.4555 11.9839 19.7306 12.2359C20.4016 12.9921 20.9517 13.8819 21.2267 14.9063C21.3817 16.0652 21.2608 17.2242 20.7626 18.2494C19.8685 19.8111 18.4405 20.8525 16.7375 21.1378C16.5484 21.1378 16.3424 21.1378 16.1525 21.1548C16.6344 21.0705 16.9444 20.7682 17.8215 20.4489C18.7667 20.1134 19.8336 18.5517 20.3505 17.644C21.8637 15.1745 20.0746 12.8907 18.3715 11.4636ZM15.1383 21.171C12.5241 20.9027 10.5111 18.7697 10.2361 16.3002C10.4762 17.678 11.3022 18.7356 12.4202 19.6766C12.8162 19.9286 13.4003 20.2811 13.7963 20.5332C14.4673 20.7852 14.8624 21.0543 15.5164 21.1718H15.1383V21.171ZM22.1728 16.6868C22.0536 17.208 21.9326 17.7112 21.8117 18.2324C21.5537 18.871 21.1756 19.5258 20.6596 20.0461C20.1436 20.5672 19.4896 20.97 18.8365 21.3566C18.3205 21.6248 17.6665 21.7594 17.1334 21.8931C16.8235 21.9271 16.4624 21.7926 16.1525 21.7764C19.9716 21.6751 22.5858 18.1319 22.0186 14.621C21.7427 13.5966 21.1927 12.7059 20.5217 11.8161C20.2466 11.4295 19.7127 11.1945 19.3176 10.8079C16.9265 9.31346 13.7622 9.61575 11.9561 11.5811C11.7029 11.8393 11.4671 12.1141 11.2502 12.4037C12.2142 10.9927 13.7622 10.0023 15.6194 9.71624C16.2734 9.69921 16.9444 9.81757 17.5975 9.93508C20.4876 10.8079 22.6377 13.5966 22.1728 16.6877V16.6868Z" fill="#D7DF23"/>
</svg>
