<svg width="32" height="32" viewBox="0 0 32 32" fill="none" xmlns="http://www.w3.org/2000/svg">
<rect width="32" height="32" fill="black"/>
<path fill-rule="evenodd" clip-rule="evenodd" d="M10.8423 15.9779H16V21.1269C13.1515 21.1269 10.8423 18.8216 10.8423 15.9779ZM16 24.6299C11.2136 24.6299 7.3333 20.7563 7.3333 15.9779C7.3333 11.1996 11.2136 7.326 16 7.326V15.9779H24.6666C24.6666 20.7563 20.7864 24.6299 16 24.6299ZM16 3C8.82026 3 3 8.81042 3 15.9779C3 23.1454 8.82026 28.9559 16 28.9559C23.1797 28.9559 29 23.1454 29 15.9779C29 8.81042 23.1797 3 16 3Z" fill="white"/>
</svg>
