<svg width="32" height="32" viewBox="0 0 32 32" fill="none" xmlns="http://www.w3.org/2000/svg">
<path d="M32 0H0V32H32V0Z" fill="white"/>
<path d="M11.0843 24.7063H21.375C23.6829 24.6464 25.8761 23.6876 27.4872 22.0341C29.0984 20.3806 30 18.1633 30 15.8547C30 13.546 29.0984 11.3287 27.4872 9.67521C25.8761 8.02172 23.6829 7.06286 21.375 7.00298H11.0843C9.90259 6.97232 8.72667 7.17859 7.62592 7.60964C6.52517 8.0407 5.52188 8.6878 4.6752 9.51278C3.82853 10.3378 3.15563 11.3239 2.69617 12.4131C2.23671 13.5023 2 14.6725 2 15.8547C2 17.0368 2.23671 18.207 2.69617 19.2962C3.15563 20.3854 3.82853 21.3715 4.6752 22.1965C5.52188 23.0215 6.52517 23.6686 7.62592 24.0997C8.72667 24.5307 9.90259 24.737 11.0843 24.7063ZM21.1426 21.5899H11.3108C9.82324 21.5419 8.41269 20.9173 7.3774 19.8481C6.34212 18.7789 5.76327 17.3489 5.76327 15.8606C5.76327 14.3723 6.34212 12.9424 7.3774 11.8731C8.41269 10.8039 9.82324 10.1793 11.3108 10.1313H21.1426C21.9106 10.1065 22.6756 10.2364 23.3924 10.5132C24.1091 10.79 24.7629 11.208 25.3149 11.7425C25.8669 12.2769 26.3058 12.9169 26.6055 13.6243C26.9053 14.3318 27.0597 15.0923 27.0597 15.8606C27.0597 16.6289 26.9053 17.3894 26.6055 18.0969C26.3058 18.8043 25.8669 19.4443 25.3149 19.9788C24.7629 20.5132 24.1091 20.9313 23.3924 21.208C22.6756 21.4848 21.9106 21.6147 21.1426 21.5899Z" fill="#C74634"/>
</svg>
