<svg width="32" height="32" viewBox="0 0 32 32" fill="none" xmlns="http://www.w3.org/2000/svg">
<rect width="32" height="32" fill="white"/>
<path d="M11.2603 28.1186L11.7109 25.2564L10.7071 25.2332H5.91414L9.24502 4.11317C9.25536 4.04941 9.28896 3.98996 9.33807 3.94774C9.38718 3.90553 9.45008 3.88226 9.51556 3.88226H17.5972C20.2802 3.88226 22.1317 4.44057 23.0984 5.54253C23.5516 6.05948 23.8402 6.5997 23.9798 7.19419C24.1263 7.81798 24.1289 8.56325 23.9859 9.47222L23.9755 9.53856V10.121L24.4287 10.3777C24.8104 10.5802 25.1137 10.812 25.3463 11.0773C25.734 11.5193 25.9847 12.0811 26.0907 12.7471C26.2001 13.4321 26.1639 14.2471 25.9847 15.1699C25.7779 16.2313 25.4437 17.1558 24.9922 17.9123C24.5769 18.6093 24.0479 19.1874 23.4198 19.6355C22.8201 20.0611 22.1076 20.3842 21.302 20.591C20.5214 20.7943 19.6314 20.8968 18.6552 20.8968H18.0263C17.5765 20.8968 17.1397 21.0588 16.7968 21.3491C16.453 21.6455 16.2256 22.0505 16.1558 22.4933L16.1084 22.7509L15.3123 27.7955L15.2761 27.9808C15.2666 28.0393 15.2503 28.0686 15.2261 28.0885C15.2046 28.1065 15.1736 28.1186 15.1434 28.1186H11.2603Z" fill="#253B80"/>
<path d="M24.8578 9.60574C24.8337 9.75997 24.8061 9.91764 24.7751 10.0796C23.7093 15.5515 20.0631 17.4418 15.4062 17.4418H13.0351C12.4656 17.4418 11.9857 17.8554 11.897 18.4172L10.683 26.1163L10.3392 28.2987C10.2815 28.6674 10.5658 29 10.938 29H15.1434C15.6414 29 16.0645 28.6381 16.1429 28.147L16.1842 27.9333L16.976 22.9086L17.0268 22.6329C17.1044 22.1401 17.5283 21.7782 18.0263 21.7782H18.6552C22.7297 21.7782 25.9192 20.124 26.8515 15.337C27.2409 13.3373 27.0393 11.6675 26.0089 10.4932C25.697 10.1391 25.3101 9.84526 24.8578 9.60574Z" fill="#179BD7"/>
<path d="M23.7429 9.1612C23.58 9.11381 23.412 9.07073 23.2397 9.03196C23.0665 8.99405 22.8891 8.96045 22.7064 8.93116C22.0671 8.82777 21.3666 8.77866 20.6162 8.77866H14.2818C14.1259 8.77866 13.9777 8.81398 13.845 8.87774C13.5529 9.01818 13.3358 9.29474 13.2833 9.63335L11.9357 18.1682L11.897 18.4172C11.9857 17.8554 12.4656 17.4419 13.0351 17.4419H15.4062C20.0631 17.4419 23.7093 15.5507 24.7751 10.0796C24.8069 9.91767 24.8336 9.76 24.8578 9.60578C24.5881 9.46275 24.296 9.34041 23.9815 9.23616C23.904 9.21031 23.8239 9.18532 23.7429 9.1612Z" fill="#222D65"/>
<path d="M13.2833 9.63333C13.3358 9.29473 13.5529 9.01816 13.845 8.87858C13.9786 8.81483 14.1259 8.7795 14.2818 8.7795H20.6162C21.3666 8.7795 22.0671 8.82861 22.7064 8.932C22.8891 8.9613 23.0665 8.9949 23.2397 9.03281C23.412 9.07158 23.58 9.11466 23.7429 9.16205C23.8239 9.18617 23.904 9.21116 23.9824 9.23614C24.2969 9.34039 24.589 9.4636 24.8586 9.60576C25.1757 7.58362 24.8561 6.20681 23.7627 4.9601C22.5573 3.5876 20.3818 3 17.5981 3H9.51642C8.94777 3 8.4627 3.41356 8.37482 3.97617L5.00861 25.3133C4.94227 25.7355 5.26795 26.1163 5.69357 26.1163H10.683L11.9357 18.1682L13.2833 9.63333Z" fill="#253B80"/>
</svg>
