<svg width="32" height="32" viewBox="0 0 32 32" fill="none" xmlns="http://www.w3.org/2000/svg">
<rect width="32" height="32" fill="white"/>
<path d="M30.8988 14.7734C30.6265 13.9948 29.8844 13.4357 29.0127 13.4357H28.9945C28.4278 13.4357 27.9172 13.6716 27.5537 14.0502C27.1895 13.6716 26.6788 13.4357 26.1128 13.4357H26.0946C25.5965 13.4357 25.1412 13.6181 24.7915 13.92V13.7665C24.7796 13.6137 24.6538 13.4936 24.4984 13.4936H23.1614C22.9979 13.4936 22.8658 13.6257 22.8658 13.7898V21.0505C22.8658 21.2146 22.9979 21.3467 23.1614 21.3467H24.4984C24.6475 21.3467 24.7701 21.2354 24.7896 21.0914L24.789 15.879C24.7888 15.8616 24.7897 15.8442 24.7915 15.8268C24.8129 15.5941 24.9833 15.4029 25.2525 15.379H25.499C25.6116 15.3891 25.7065 15.4287 25.7814 15.4885C25.8977 15.5809 25.9625 15.723 25.9625 15.879L25.9675 21.0656C25.9675 21.2297 26.1002 21.3624 26.2631 21.3624H27.6002C27.758 21.3624 27.8863 21.2366 27.8939 21.08L27.8933 15.8721C27.8926 15.701 27.9719 15.5463 28.1109 15.4545C28.1794 15.4105 28.2618 15.3809 28.3568 15.3721H28.6033C28.8926 15.3973 29.0674 15.6168 29.0668 15.8721L29.0718 21.0518C29.0718 21.2159 29.2045 21.348 29.3674 21.348H30.7045C30.8674 21.348 31 21.2159 31 21.0518V15.4809C31 15.1011 30.9573 14.9394 30.8988 14.7734H30.8988ZM21.8472 13.5125H21.0825V12.2698C21.0824 12.1207 20.9617 12 20.8126 12C20.795 12 20.7781 12.0025 20.7617 12.0057C19.9139 12.2383 20.0837 13.4125 18.536 13.5125H18.3857C18.363 13.5125 18.3417 13.5156 18.3209 13.5201H18.3197L18.3209 13.5207C18.1888 13.5503 18.0895 13.6672 18.0895 13.8081V15.1451C18.0895 15.308 18.2222 15.4407 18.3857 15.4407H19.1926L19.1913 21.1103C19.1913 21.2719 19.3221 21.4027 19.4838 21.4027H20.8057C20.9667 21.4027 21.0976 21.2719 21.0976 21.1103L21.0982 15.4407H21.8472C22.0101 15.4407 22.1428 15.308 22.1428 15.1451V13.8081C22.1428 13.6452 22.0101 13.5125 21.8472 13.5125" fill="#00BAF2"/>
<path d="M17.0366 13.5125H15.6996C15.5367 13.5125 15.4046 13.6452 15.4046 13.8081V16.5728C15.4015 16.7439 15.2631 16.881 15.0914 16.881H14.5317C14.3581 16.881 14.2179 16.7413 14.2179 16.5678L14.2128 13.8081C14.2128 13.6452 14.0801 13.5126 13.9172 13.5126H12.5802C12.4167 13.5126 12.2846 13.6452 12.2846 13.8081V16.8382C12.2846 17.9891 13.1053 18.8098 14.2568 18.8098C14.2568 18.8098 15.121 18.8098 15.1474 18.8148C15.3034 18.8325 15.4247 18.9633 15.4247 19.1242C15.4247 19.2834 15.3059 19.4135 15.1518 19.4331C15.1442 19.4343 15.1373 19.4362 15.1291 19.4375L13.1739 19.4444C13.0104 19.4444 12.8783 19.5771 12.8783 19.7399V21.0764C12.8783 21.2399 13.0104 21.372 13.1739 21.372H15.36C16.5121 21.372 17.3322 20.5519 17.3322 19.4004V13.8081C17.3322 13.6452 17.2001 13.5126 17.0366 13.5126V13.5125ZM4.09485 15.9624V16.7876C4.09485 16.9605 3.9546 17.1014 3.78166 17.1014L2.93326 17.102V15.4486H3.78166C3.9546 15.4486 4.09485 15.5882 4.09485 15.7618V15.9624ZM4.21246 13.5122H1.28992C1.12955 13.5122 1 13.6424 1 13.8021V15.1122C1 15.1147 1.00062 15.1172 1.00062 15.1197C1.00062 15.126 1 15.1323 1 15.1379V21.0673C1 21.2283 1.12074 21.3597 1.27044 21.3635H2.63262C2.79551 21.3635 2.9282 21.2314 2.9282 21.0679L2.93324 19.0359H4.21244C5.28282 19.0359 6.02872 18.2932 6.02872 17.2184V15.3323C6.02872 14.2575 5.28282 13.5122 4.21244 13.5122L4.21246 13.5122ZM9.64248 19.1014V19.3102C9.64248 19.3272 9.63999 19.3436 9.63747 19.3593C9.63433 19.374 9.63012 19.3885 9.62489 19.4027C9.58337 19.5197 9.4664 19.6045 9.3274 19.6045H8.77084C8.59725 19.6045 8.45576 19.4725 8.45576 19.3102V19.058C8.45576 19.0549 8.45511 19.0517 8.45511 19.0486L8.45576 18.3776V18.1675L8.45638 18.1656C8.457 18.004 8.59725 17.8732 8.77084 17.8732H9.3274C9.50161 17.8732 9.6425 18.0046 9.6425 18.1675L9.64248 19.1014ZM9.42995 13.5199H7.57466C7.41053 13.5199 7.27784 13.6444 7.27784 13.7972V14.3174C7.27784 14.3205 7.27846 14.3243 7.27846 14.3274C7.27846 14.3312 7.27782 14.3349 7.27782 14.3387V15.0513C7.27782 15.2129 7.41871 15.345 7.59229 15.345H9.35887C9.49849 15.367 9.60918 15.4689 9.6249 15.628V15.8003C9.60918 15.9519 9.49976 16.0625 9.36641 16.0751H8.49162C7.32815 16.0751 6.49925 16.8481 6.49925 17.9336V19.4882C6.49925 20.5674 7.21181 21.3353 8.36708 21.3353H10.7915C11.2267 21.3353 11.5795 21.0058 11.5795 20.6001V15.5267C11.5795 14.2966 10.9456 13.5199 9.42993 13.5199H9.42995Z" fill="#1F336B"/>
</svg>
