<svg width="32" height="32" viewBox="0 0 32 32" fill="none" xmlns="http://www.w3.org/2000/svg">
<rect width="32" height="32" fill="white"/>
<g clip-path="url(#clip0)">
<path d="M27.0879 12.7176L25.5393 12.717C25.3704 12.717 25.2335 12.854 25.2334 13.0229L25.2333 13.2389H25.3407C26.04 13.2389 26.3 13.3542 26.3 13.9912V14.8966L27.0871 14.8969C27.256 14.897 27.3929 14.7601 27.393 14.5912L27.3935 13.0235C27.3935 12.8546 27.2567 12.7177 27.0879 12.7176V12.7176ZM18.6363 15.1515C18.5648 15.0618 18.4297 15.0494 18.2943 15.0494H18.1927C17.8551 15.0494 17.7227 15.1535 17.648 15.4774L16.71 19.3763C16.593 19.8554 16.4284 19.943 16.147 19.943C15.8023 19.943 15.6643 19.8607 15.527 19.3744L14.4646 15.4755C14.3766 15.149 14.2469 15.0494 13.9093 15.0494H13.8188C13.6825 15.0494 13.5468 15.062 13.4771 15.1529C13.4074 15.2439 13.4309 15.3797 13.4669 15.5132L14.5405 19.4458C14.7419 20.1985 14.9813 20.8214 15.8758 20.8214C16.0427 20.8214 16.1971 20.7982 16.3256 20.7549C16.0543 21.6081 15.7783 21.9844 14.9645 22.068C14.7993 22.0818 14.692 22.1054 14.6322 22.1856C14.5701 22.2688 14.5842 22.3879 14.6064 22.4942L14.6288 22.5951C14.6773 22.8283 14.7601 22.9729 15.0219 22.9729C15.0494 22.9729 15.079 22.9714 15.1107 22.9687C16.326 22.8892 16.9771 22.2349 17.3581 20.7105L18.6582 15.5104C18.689 15.377 18.7076 15.2412 18.6363 15.1515V15.1515ZM12.097 18.147V18.9341C12.097 19.5756 11.8592 19.9471 10.6432 19.9471C9.8399 19.9471 9.44939 19.6564 9.44939 19.0584C9.44939 18.4026 9.84116 18.147 10.8467 18.147H12.097ZM10.6432 14.8839C9.98032 14.8839 9.56491 14.9671 9.40732 14.9986C9.12837 15.0592 9.01168 15.1358 9.01168 15.4531V15.5435C9.01168 15.6678 9.03011 15.7539 9.06957 15.8145C9.11551 15.8851 9.18959 15.9209 9.28973 15.9209C9.33854 15.9209 9.39518 15.9127 9.46269 15.8958C9.62208 15.856 10.1313 15.7736 10.6884 15.7736C11.689 15.7736 12.097 16.0508 12.097 16.7301V17.3364H10.8353C9.21341 17.3364 8.45791 17.8835 8.45791 19.0584C8.45791 20.1979 9.23804 20.8255 10.6545 20.8255C12.3379 20.8255 13.0885 20.2527 13.0885 18.9679V16.7301C13.0885 15.4879 12.2887 14.8839 10.6432 14.8839V14.8839ZM7.46356 15.6376C7.46356 16.5732 7.22471 17.0802 5.96453 17.0802H4.02474V14.6657C4.02474 14.3309 4.14924 14.2064 4.48402 14.2064H5.96453C6.91393 14.2064 7.46356 14.4406 7.46356 15.6376V15.6376ZM5.96453 13.2376H4.29182C3.39797 13.2376 2.99937 13.6362 2.99937 14.5301V20.2714C2.99937 20.6167 3.11021 20.7275 3.4556 20.7275H3.5686C3.91389 20.7275 4.02474 20.6167 4.02474 20.2714V18.0377H5.96453C7.68678 18.0377 8.48893 17.275 8.48893 15.6376C8.48893 14.0001 7.68678 13.2376 5.96453 13.2376V13.2376ZM27.2386 11.0996L26.4575 11.0994C26.3723 11.0993 26.3033 11.0302 26.3033 10.945L26.3035 10.1542C26.3036 10.069 26.3728 10 26.4579 10L27.239 10.0003C27.3242 10.0003 27.3933 10.0694 27.3933 10.1545L27.393 10.9454C27.3929 11.0306 27.3239 11.0996 27.2386 11.0996V11.0996ZM28.7712 12.7186L27.6211 12.7181C27.4957 12.7181 27.394 12.6164 27.3941 12.491L27.3944 11.3266C27.3945 11.2011 27.4963 11.0994 27.6217 11.0994L28.7718 11.0999C28.8972 11.0999 28.9989 11.2017 28.9989 11.3271L28.9985 12.4915C28.9985 12.6169 28.8967 12.7186 28.7712 12.7186V12.7186ZM25.5385 14.8964C25.3696 14.8964 25.2328 14.7595 25.2329 14.5906L25.2333 13.2389H25.1206C24.4214 13.2389 24.1613 13.3543 24.1613 13.9912V15.4816C24.1612 15.4848 24.1608 15.4879 24.1608 15.4911V15.8178C24.1607 15.8291 24.1599 15.8396 24.1599 15.8513V17.9338C24.1599 18.1881 24.111 18.3906 24.0098 18.5479C23.8191 18.8417 23.4417 18.9752 22.8377 18.976C22.2341 18.9752 21.8567 18.8418 21.666 18.5483C21.5646 18.3909 21.5155 18.1883 21.5155 17.9338V15.8513C21.5155 15.8396 21.5149 15.8291 21.5147 15.8178V15.4911C21.5147 15.4879 21.5144 15.4848 21.5143 15.4816V13.9912C21.5143 13.3543 21.2542 13.2389 20.555 13.2389H20.3348C19.6355 13.2389 19.3755 13.3543 19.3755 13.9912V17.9338C19.3755 18.568 19.5186 19.1049 19.7949 19.5378C20.3286 20.3765 21.3625 20.8232 22.8323 20.8232C22.8341 20.8232 22.8359 20.8231 22.8377 20.8231C22.8396 20.8231 22.8413 20.8232 22.8432 20.8232C24.313 20.8232 25.3469 20.3765 25.8807 19.5378C26.157 19.1049 26.3 18.568 26.3 17.9338V14.8967L25.5385 14.8964" fill="#A6C307"/>
</g>
<defs>
<clipPath id="clip0">
<rect width="26" height="12.973" fill="white" transform="translate(3 10)"/>
</clipPath>
</defs>
</svg>
