<svg width="32" height="32" viewBox="0 0 32 32" fill="none" xmlns="http://www.w3.org/2000/svg">
<rect width="32" height="32" fill="white"/>
<path d="M16 30C23.732 30 30 23.732 30 16C30 8.26801 23.732 2 16 2C8.26801 2 2 8.26801 2 16C2 23.732 8.26801 30 16 30Z" fill="#5F259F"/>
<path d="M22.3541 12.3464C22.3541 11.7991 21.8848 11.3298 21.3375 11.3298H19.4606L15.1591 6.40258C14.7681 5.93325 14.1424 5.77694 13.5168 5.93325L12.0309 6.40258C11.7962 6.48094 11.7178 6.79355 11.8745 6.94986L16.5671 11.4081H9.44911C9.21444 11.4081 9.05814 11.5644 9.05814 11.7991V12.581C9.05814 13.1283 9.52747 13.5977 10.0748 13.5977H11.1697V17.3519C11.1697 20.1675 12.6557 21.8102 15.1586 21.8102C15.9406 21.8102 16.5666 21.7318 17.3486 21.4192V23.9222C17.3486 24.6262 17.8959 25.1735 18.5999 25.1735H19.6949C19.9295 25.1735 20.1642 24.9388 20.1642 24.7041V13.5197H21.9632C22.1978 13.5197 22.3541 13.3634 22.3541 13.1287V12.3464ZM17.3486 19.0725C16.8793 19.3072 16.2536 19.3856 15.7843 19.3856C14.533 19.3856 13.9074 18.7599 13.9074 17.3519V13.5977H17.3486V19.0725Z" fill="white"/>
</svg>
