<svg width="32" height="32" viewBox="0 0 32 32" fill="none" xmlns="http://www.w3.org/2000/svg">
<rect width="32" height="32" fill="white"/>
<path d="M16.2925 3C10.041 3 5 7.86032 5 14.3468C5 20.8513 10.041 25.6935 16.2925 25.6935C17.3586 25.6935 18.3884 25.549 19.3641 25.278L20.5927 28.4399C20.7192 28.7832 20.9722 29 21.4239 29H23.3752C23.845 29 24.1883 28.6928 23.9715 28.0966L22.3815 23.959C25.5073 21.9896 27.5851 18.5024 27.5851 14.3287C27.5851 7.86032 22.5441 3 16.2925 3ZM21.2071 20.9416L19.7797 17.2377C19.6532 16.9305 19.4002 16.6414 18.8582 16.6414H16.9972C16.5274 16.6414 16.1661 16.9486 16.3829 17.5448L18.262 22.4051C17.6476 22.5678 16.9791 22.64 16.2925 22.64C11.7213 22.64 8.46907 19.0445 8.46907 14.3468C8.46907 9.64906 11.7213 6.05351 16.2925 6.05351C20.8638 6.05351 24.116 9.64906 24.116 14.3468C24.116 17.0931 23.0139 19.442 21.2071 20.9416Z" fill="#3253DC"/>
</svg>
