<svg width="32" height="32" viewBox="0 0 32 32" fill="none" xmlns="http://www.w3.org/2000/svg">
<rect width="32" height="32" fill="white"/>
<path d="M13.4974 15.2738C13.3832 15.3307 13.269 15.3307 13.2121 15.2738C13.1267 15.2169 13.0694 15.1027 13.0694 14.9601C13.041 14.7317 13.0694 14.5037 13.0979 14.3038C13.0979 14.2469 13.1267 14.2184 13.1836 14.1896C13.2121 14.1896 13.269 14.1611 13.3263 14.1611C13.3832 14.1611 13.4405 14.1611 13.4974 14.1896C13.4974 14.3038 13.4974 14.418 13.4974 14.5322V14.7317C13.4974 14.789 13.4974 14.8459 13.4974 14.9028C13.4974 15.017 13.4974 15.1312 13.4974 15.2738ZM17.7483 14.789C17.8625 14.789 17.9767 14.789 18.0909 14.8174C18.1762 14.8174 18.1762 15.017 18.1762 15.0743C18.1762 15.2738 18.1478 15.2738 18.0336 15.3023C17.9478 15.3023 17.834 15.3023 17.7198 15.3023V14.789H17.7483ZM17.9478 13.1057C17.9478 13.1057 17.9194 13.1057 17.8909 13.1057C17.834 13.1057 17.8052 13.1057 17.7483 13.1057V12.7631C17.8052 12.7631 17.8625 12.7631 17.8909 12.7631C17.9194 12.7631 17.9194 12.7631 17.9194 12.7631C17.9194 12.792 17.9478 12.8489 17.9478 12.9915C17.9767 13.0768 17.9478 13.1057 17.9478 13.1057ZM19.8879 13.8189C19.9168 13.7616 19.9737 13.7047 20.0021 13.6474C20.0306 13.619 20.0306 13.5905 20.059 13.5621C20.059 13.6474 20.059 13.7332 20.059 13.8189C20.059 13.8758 20.059 13.9331 20.059 13.9616C20.0021 13.9043 19.9448 13.8474 19.8879 13.8189ZM24.681 15.0743C24.681 15.0454 24.681 15.0454 24.681 15.0743C24.681 15.0454 24.681 15.0454 24.681 15.0743ZM28.076 14.3038C28.076 14.3607 28.076 14.3895 28.1045 14.4464C28.1045 14.4464 28.1045 14.418 28.076 14.418V14.3038ZM4.51072 11.7361C5.22394 11.2798 6.05096 10.9945 6.79304 10.7661C8.50478 10.2239 10.3592 9.82487 12.5273 9.51072C14.0964 9.28273 15.4659 9.14009 16.7498 9.05434C18.5757 8.94014 20.4016 8.8548 22.1703 8.8548C23.0546 8.8548 23.9678 8.91169 24.8521 8.99744C25.1089 8.99744 25.3658 9.02589 25.6226 9.05434C25.8506 9.08278 26.079 9.19698 26.3643 9.53917C26.8207 10.0529 27.1633 10.6803 27.477 11.6219C27.5623 11.8788 27.6481 12.1641 27.7334 12.4494C27.6481 12.3925 27.5623 12.3636 27.477 12.3352L27.3912 12.3067C27.0775 12.2498 26.7349 12.1925 26.3643 12.1925C25.7079 12.1925 25.1658 12.4494 24.7379 12.9058C24.7094 12.9346 24.7094 12.9631 24.681 12.9631L24.6237 12.4209H22.5413V15.0454C22.5413 15.1312 22.5413 15.1885 22.5413 15.2169C22.5124 15.2169 22.4844 15.2454 22.3987 15.2738C22.3414 15.3023 22.2845 15.3023 22.256 15.2738C22.256 15.2454 22.2276 15.2169 22.2276 15.1312V13.2768C22.2276 13.191 22.2276 13.1057 22.2276 13.0484L22.1418 12.4209H20.259C20.2301 12.1925 20.1732 11.993 20.0879 11.793C19.8306 11.2798 19.3743 10.9372 18.7752 10.8803C18.1193 10.7945 17.463 10.8234 16.8351 10.8234C16.5787 10.8234 16.2934 10.8518 16.0081 10.8518H15.637V10.7945H13.4974V12.2783C12.4704 12.1925 11.6714 12.5636 11.1866 13.3621C10.9013 12.8204 10.4734 12.4778 9.90279 12.3067C9.01806 12.0214 8.10529 12.221 7.42051 12.792C7.30632 12.5351 7.07833 12.3352 6.82149 12.3067C6.4793 12.2498 6.16515 12.2783 5.87986 12.3925V12.3067L4.05434 12.4209C4.05434 12.3636 4.08278 12.3067 4.08278 12.2498C4.11123 12.1356 4.16812 11.9357 4.51072 11.7361ZM8.30483 21.8924C8.33369 21.4933 8.53323 21.0938 8.84697 20.8085C9.1607 20.5517 9.53174 20.4095 9.90279 20.4095C9.93123 20.4095 9.98813 20.4095 10.017 20.4095C11.0724 20.4948 11.5288 21.3218 11.5288 22.0923C11.5288 22.4918 11.3577 22.8909 11.0439 23.2051C10.7018 23.5188 10.2734 23.6903 9.84548 23.6614C9.41755 23.633 9.01806 23.433 8.70432 23.1193C8.41903 22.7771 8.27639 22.3492 8.30483 21.8924ZM22.9692 22.7202C22.0561 22.7202 21.3428 22.0355 21.3428 21.0938C21.3428 20.1811 22.0561 19.4678 22.9408 19.4678C23.3687 19.4678 23.7963 19.6389 24.1104 19.9527C24.4241 20.2664 24.5952 20.6659 24.5952 21.0938C24.5952 22.007 23.882 22.7202 22.9692 22.7202ZM28.1618 16.7003C28.1329 17.1567 28.0187 17.6135 27.9334 18.0983C27.9045 18.2694 27.8765 18.412 27.8192 18.5835C27.0491 18.6689 26.2785 18.7542 25.5942 18.8404C24.8236 17.8987 23.6825 17.4135 22.5124 17.5562C21.3717 17.6988 20.3732 18.3836 19.8026 19.4394C19.1463 19.4959 18.4899 19.5816 17.834 19.6674L16.5787 19.81C15.8654 19.8958 15.1807 19.9811 14.4674 20.0669C14.239 20.0953 13.9826 20.1238 13.7542 20.1522C13.4689 20.1811 13.2121 20.2095 12.9268 20.238C12.1567 18.9826 10.9866 18.3551 9.5033 18.4693C8.19105 18.5547 6.93569 19.6389 6.56464 20.9512C6.13671 20.9796 5.68033 21.0365 5.10975 21.1223C4.99555 20.5801 4.8529 20.0669 4.7387 19.5247C4.56761 18.7542 4.39652 17.9841 4.22543 17.214C4.28232 17.2424 4.36807 17.2709 4.45341 17.2709C4.62451 17.2709 4.76715 17.2993 4.93865 17.2993C5.02399 17.2993 5.0813 17.2993 5.16664 17.2993H5.96562V14.5606C5.96562 14.5322 5.96562 14.5037 5.96562 14.4749H5.99406C6.16515 14.4464 6.36511 14.4749 6.56464 14.4749C6.50775 15.0743 6.5935 15.6733 6.87838 16.1581C7.39207 17.0425 8.30483 17.3566 9.1607 17.3566C9.70284 17.3566 10.245 17.2424 10.616 17.0425C10.9013 16.9002 11.0151 16.6149 11.0439 16.3865C11.0439 16.2723 11.0439 16.187 11.0439 16.0728C11.3008 16.6149 11.7287 17.0144 12.242 17.214C12.7557 17.3851 13.3263 17.3566 13.868 17.0998C14.1821 17.3566 14.5816 17.2993 14.7812 17.2993C14.8385 17.2993 14.9238 17.2993 14.9523 17.2993L15.3802 17.3566H15.9796C16.2649 17.3566 16.5218 17.3566 16.8071 17.3278C17.463 17.3278 18.1478 17.2993 18.8041 17.2424C19.3743 17.1851 19.8306 16.8429 20.1159 16.3581C20.3159 16.8714 20.7438 17.214 21.3717 17.3278C21.4859 17.3566 21.6285 17.3566 21.7423 17.3566C22.0276 17.3566 22.2845 17.2993 22.5124 17.1851V17.2993H23.1119C23.1976 17.2993 23.2545 17.2993 23.3403 17.2993C23.4825 17.2993 23.6252 17.2993 23.7678 17.2993C24.0531 17.3278 24.2531 17.2424 24.4241 17.0998L24.4526 17.0713L24.7094 17.1282C24.8236 17.1567 24.9378 17.1851 25.052 17.214C25.3089 17.2709 25.5942 17.3278 25.8795 17.3566C26.0217 17.3851 26.1643 17.3851 26.2785 17.3851C26.8207 17.3851 27.2486 17.2424 27.6481 16.9571C27.8476 16.786 28.0187 16.5861 28.1618 16.3865C28.1618 16.4719 28.1618 16.5861 28.1618 16.7003ZM29.3029 11.3082C29.0172 10.3666 28.5324 9.16854 27.6196 8.19847C27.2486 7.79898 26.6496 7.2857 25.8221 7.2284L25.3942 7.1715C23.9678 7.08575 22.4844 7.00041 21.0295 7.00041C19.6884 7.00041 18.2615 7.05731 16.5218 7.19995C15.1522 7.31415 13.5258 7.45679 11.8998 7.74208C10.245 8.02737 8.56168 8.398 6.99258 8.76905C5.85142 9.05434 4.76715 9.45383 3.79749 9.99596C2.91276 10.4808 2.37063 11.194 2.19954 12.1072C2.08575 12.6778 2 13.2195 2 13.7905C2 15.1027 2.14265 16.5007 2.48483 18.041C2.68478 18.9542 2.91276 19.8958 3.14116 20.8085C3.25536 21.3218 3.398 21.8355 3.5122 22.3207C3.71174 23.1193 4.33922 23.1193 4.59606 23.0624C4.93865 23.0051 5.28084 22.9771 5.62343 22.9198H5.73722C5.99406 22.8909 6.27935 22.8629 6.5362 22.834C6.70729 23.5761 7.10678 24.2036 7.64891 24.6888C8.30483 25.2305 9.07536 25.5162 9.87434 25.5162C9.98813 25.5162 10.1308 25.5162 10.245 25.4874C11.1866 25.3732 12.014 24.9453 12.613 24.2036C13.0979 23.6046 13.3547 22.834 13.3832 22.0355L19.46 21.3507C19.5458 22.235 19.9168 23.034 20.5443 23.633C21.2859 24.3462 22.3129 24.6888 23.3403 24.5458C24.2815 24.432 25.0805 24.0036 25.6511 23.262C26.2785 22.4634 26.5069 21.5502 26.3643 20.5517L26.6496 20.5233C27.277 20.4375 27.9045 20.3806 28.5324 20.3233C29.0461 20.2664 29.2456 19.8958 29.3029 19.7816C29.7024 18.9542 29.902 18.0129 29.9589 16.8145C30.1015 14.9316 29.8735 13.0768 29.3029 11.3082Z" fill="white"/>
<path d="M12.1282 22.0639C12.1282 20.8943 11.3577 19.8958 10.1023 19.81C8.90428 19.7243 7.82001 20.6659 7.76312 21.8355C7.70581 23.0913 8.61899 24.1178 9.84549 24.2036C11.044 24.2893 12.1282 23.2908 12.1282 22.0639ZM22.9693 23.2908C24.1962 23.2908 25.1658 22.3207 25.1658 21.1223C25.1658 19.8958 24.1673 18.9257 22.9408 18.9257C21.7139 18.9257 20.7723 19.8958 20.7723 21.1223C20.7723 22.3207 21.7424 23.2908 22.9693 23.2908ZM3.22692 13.9331C3.34112 14.9885 3.39801 15.9302 3.5691 16.8714C3.85439 18.412 4.25388 19.8958 4.59607 21.436C4.65337 21.7502 4.79602 21.7502 5.05245 21.7213C5.59458 21.636 6.16516 21.5787 6.7073 21.5218C6.9357 21.4933 7.04989 21.436 7.07834 21.208C7.33518 20.0953 8.41904 19.1537 9.53176 19.0684C10.8729 18.9542 11.8425 19.5247 12.4989 20.6659C12.5846 20.8085 12.6415 20.8658 12.8126 20.837C13.3832 20.7801 13.9538 20.7228 14.5248 20.6375C15.4091 20.5233 16.2649 20.4375 17.1493 20.3233C18.0909 20.2095 19.0321 20.0953 20.0022 20.0096C20.1733 19.9811 20.2301 19.9242 20.3159 19.7816C21.2575 17.813 23.8536 17.5277 25.2231 19.2394C25.3369 19.3821 25.4227 19.4105 25.5942 19.4105C26.4216 19.3252 27.2202 19.2106 28.0476 19.1252C28.2187 19.0968 28.3329 19.0395 28.3613 18.8684C28.504 18.1552 28.7035 17.4708 28.7324 16.7287C28.8462 14.9028 28.5897 13.1342 28.0187 11.4224C27.7335 10.595 27.3913 9.82487 26.7918 9.16853C26.4785 8.82594 26.1359 8.54065 25.6795 8.48376C24.5099 8.398 23.3403 8.28422 22.1703 8.28422C20.3443 8.28422 18.5184 8.36956 16.7213 8.48376C15.2949 8.5691 13.868 8.7406 12.4704 8.94014C10.5018 9.22543 8.53324 9.62492 6.65041 10.2239C5.82298 10.4808 4.96711 10.7945 4.22544 11.2798C3.88284 11.5077 3.626 11.7646 3.54066 12.1641C3.39801 12.7631 3.31226 13.391 3.22692 13.9331ZM12.8126 21.5218C13.0125 23.4046 11.7572 24.7457 10.2165 24.9168C9.41756 25.0026 8.67588 24.7457 8.04841 24.232C7.42052 23.7183 7.10679 23.034 7.02104 22.2065C6.56465 22.2634 6.10827 22.2923 5.68034 22.3492C5.28085 22.4061 4.88136 22.4345 4.48187 22.4918C4.19658 22.5487 4.11124 22.4345 4.05434 22.1781C3.71175 20.7516 3.34112 19.3536 3.02697 17.8987C2.74168 16.5292 2.57059 15.1596 2.57059 13.7905C2.57059 13.2768 2.65634 12.7347 2.77013 12.221C2.91277 11.4509 3.39801 10.8803 4.08279 10.5092C5.05245 9.9671 6.07982 9.59647 7.13523 9.33963C8.73278 8.94014 10.3592 8.5691 11.9852 8.31266C13.4974 8.05582 15.038 7.91317 16.5787 7.77053C18.062 7.65633 19.5458 7.57099 21.0295 7.57099C22.6267 7.57099 24.1962 7.68478 25.7937 7.77053C26.3643 7.79898 26.8207 8.14157 27.2202 8.5691C27.9907 9.39652 28.4182 10.3954 28.7608 11.4793C29.303 13.191 29.5309 14.9885 29.4167 16.786C29.3599 17.7277 29.2172 18.6689 28.8181 19.5532C28.7608 19.6958 28.6751 19.7531 28.504 19.7816C27.7054 19.8669 26.9064 19.9527 26.1075 20.0384C25.9933 20.0669 25.8506 20.0669 25.708 20.0953C26.0217 21.1223 25.9075 22.0923 25.2231 22.9198C24.7379 23.5472 24.082 23.8898 23.3114 23.9752C21.6566 24.1751 19.9168 22.8909 20.0591 20.6943C17.6341 20.9796 15.2376 21.2649 12.8126 21.5218Z" fill="#C7565C"/>
<path d="M17.1777 12.221C17.1777 12.7347 17.1777 13.1911 17.1777 13.7047C17.4341 13.7047 17.6625 13.7047 17.9194 13.7047C18.3188 13.7047 18.5184 13.4479 18.5468 13.0769C18.5757 12.592 18.3477 12.2783 17.9767 12.2498C17.6914 12.1925 17.463 12.221 17.1777 12.221ZM17.1777 15.8444C17.4914 15.8444 17.8052 15.8729 18.1193 15.8444C18.5468 15.7875 18.7468 15.5307 18.7468 15.0743C18.7468 14.6175 18.5468 14.2753 18.1478 14.2184C17.834 14.1896 17.4914 14.2184 17.1777 14.2184C17.1777 14.7601 17.1777 15.2738 17.1777 15.8444ZM16.0365 11.394C16.9493 11.394 17.834 11.3082 18.7183 11.4224C19.7737 11.5651 19.8879 12.7347 19.5458 13.3621C19.4031 13.5905 19.1178 13.7332 18.9467 13.9043C19.0605 13.9616 19.2036 14.0185 19.3458 14.1042C19.8306 14.418 20.059 14.8743 19.9168 15.5307C19.8026 16.1297 19.4316 16.5861 18.8325 16.6718C17.9194 16.786 16.9777 16.7576 16.065 16.786C16.0365 14.9028 16.0365 13.1342 16.0365 11.394Z" fill="#C7565C"/>
<path d="M14.0679 14.7317C14.0679 14.5037 14.0679 14.2753 14.0679 14.0754C14.0679 13.99 14.0395 13.9043 14.0111 13.8474C13.6116 13.5048 12.6984 13.5048 12.5562 14.1896C12.4988 14.4464 12.4704 14.7317 12.4988 15.017C12.5562 15.7587 13.1836 16.1012 13.84 15.7587C14.0111 15.6733 14.1253 15.5591 14.0964 15.3596C14.0395 15.1312 14.0679 14.9316 14.0679 14.7317ZM15.0949 16.7003C14.7243 16.6718 14.2963 16.9002 14.0964 16.3581C13.9537 16.415 13.868 16.4719 13.7542 16.5292C12.8983 16.9856 11.9852 16.7003 11.6145 15.816C11.3008 15.1027 11.3008 14.3895 11.6714 13.7047C12.1282 12.9058 12.9552 12.7347 13.8111 12.9058C13.8969 12.9346 13.9537 12.9631 14.0964 12.9915C14.0964 12.6778 14.0964 12.4209 14.0964 12.1641C14.0964 11.9072 14.0964 11.6504 14.0964 11.3651C14.439 11.3651 14.7812 11.3651 15.0949 11.3651C15.0949 13.1342 15.0949 14.9028 15.0949 16.7003Z" fill="#C7565C"/>
<path d="M9.95967 14.5037C10.017 14.0754 9.58904 13.619 9.13225 13.619C8.59052 13.5905 8.21948 13.9331 8.21948 14.5037C8.79006 14.5037 9.38909 14.5037 9.95967 14.5037ZM11.0151 15.017C10.0454 15.017 9.13225 15.017 8.24793 15.017C8.27638 15.5022 8.61897 15.9013 9.13225 15.8729C9.58904 15.8444 10.0454 15.7587 10.5303 15.6733C10.5303 15.8729 10.5303 16.1012 10.5303 16.3581C10.5303 16.415 10.4734 16.5007 10.4449 16.5292C9.61749 16.9287 8.07684 16.9856 7.4205 15.8729C7.02102 15.1596 7.07832 14.1042 7.56315 13.4763C8.07684 12.8204 8.93271 12.5636 9.76013 12.8204C10.3876 13.0199 10.7302 13.5048 10.9013 14.1327C10.9582 14.418 10.9582 14.6748 11.0151 15.017Z" fill="#C7565C"/>
<path d="M23.1119 16.7287C23.0834 16.5861 23.0834 16.4719 23.0834 16.3292C22.9408 16.415 22.7982 16.4719 22.684 16.5292C22.3414 16.7003 21.9707 16.8429 21.5712 16.7576C21.0295 16.6434 20.6869 16.3292 20.6585 15.7587C20.6296 14.8459 20.6585 13.9331 20.6585 12.9915C20.9722 12.9915 21.286 12.9915 21.6566 12.9915C21.6566 13.0769 21.6566 13.1626 21.6566 13.2768C21.6566 13.9043 21.6566 14.5037 21.6566 15.1312C21.6566 15.6733 21.9707 15.9302 22.5125 15.816C22.9692 15.7302 23.1119 15.5307 23.1119 15.0454C23.1119 14.3607 23.1119 13.7047 23.1119 12.9915C23.4541 12.9915 23.7678 12.9915 24.1104 12.9915C24.1104 13.0769 24.1389 13.1911 24.1389 13.2768C24.1389 14.3322 24.1389 15.388 24.1389 16.415C24.1389 16.6434 24.082 16.7287 23.8251 16.7287C23.5683 16.7003 23.3403 16.7287 23.1119 16.7287Z" fill="#C7565C"/>
<path d="M24.8521 16.5576C24.8521 16.187 24.8521 15.9013 24.8521 15.6733C25.3089 15.7587 25.7653 15.8444 26.2216 15.9013C26.3354 15.9302 26.4785 15.9013 26.5638 15.8444C26.678 15.7587 26.8491 15.616 26.878 15.5022C26.878 15.388 26.7349 15.1885 26.5927 15.1596C26.307 15.0743 25.9932 15.0454 25.708 14.9885C24.909 14.8174 24.6237 13.8474 25.1658 13.2479C25.48 12.8773 25.8795 12.7347 26.3643 12.7347C26.7065 12.7347 27.0491 12.792 27.3913 12.8489C27.4481 12.8489 27.5339 12.9631 27.5339 13.02C27.5623 13.2768 27.5339 13.5048 27.5339 13.7616C27.1633 13.7047 26.7918 13.6474 26.4212 13.5905C26.307 13.5905 26.1928 13.5905 26.1074 13.6474C25.9932 13.7047 25.8506 13.8474 25.8795 13.9331C25.8795 14.0185 26.0217 14.1896 26.1359 14.2184C26.3643 14.3038 26.6211 14.3038 26.878 14.3607C27.3628 14.4464 27.7054 14.6748 27.8476 15.1596C27.9907 15.6449 27.7619 16.187 27.3628 16.5007C26.9633 16.8145 26.4785 16.8429 25.9932 16.786C25.5942 16.7287 25.2231 16.6149 24.8521 16.5576Z" fill="#C7565C"/>
<path d="M4.36806 12.9631C4.71024 12.9346 5.05243 12.9058 5.39502 12.8773C5.39502 12.9915 5.42347 13.0768 5.42347 13.2195C5.56612 13.1342 5.68031 13.1057 5.76607 13.02C6.0798 12.8204 6.39354 12.7631 6.76458 12.8204C6.84992 12.8204 6.93567 12.9346 6.93567 13.02C6.96412 13.3337 6.93567 13.6474 6.93567 13.9043C6.59349 13.8758 6.25089 13.8189 5.90871 13.8758C5.48036 13.9331 5.36658 14.1042 5.36658 14.5322C5.36658 15.2454 5.36658 15.9302 5.36658 16.7003C5.05243 16.7003 4.76714 16.7003 4.48185 16.7003C4.42495 16.7003 4.3392 16.5292 4.3392 16.4719C4.3392 15.4734 4.3392 14.5037 4.3392 13.5048C4.36806 13.3337 4.36806 13.1626 4.36806 12.9631Z" fill="#C7565C"/>
</svg>
