<svg width="32" height="32" viewBox="0 0 32 32" fill="none" xmlns="http://www.w3.org/2000/svg">
<rect width="32" height="32" fill="url(#paint0_linear_105:2)"/>
<path d="M24.0413 12.0308C24.0413 10.0348 23.0351 8.38524 21.1547 7H25.5259C27.0599 8.18742 28 10.0019 28 12.0308C28 14.0597 27.0599 15.874 25.5259 17.0618C26.9443 17.6556 27.7526 19.107 27.7526 21.1856V25.1441H23.7939V21.1856C23.7939 19.2061 22.8538 17.8205 21.1547 17.0618C23.0351 15.6763 24.0413 14.0268 24.0413 12.0308ZM15.4639 12.0308C15.4639 10.0348 14.4577 8.38524 12.5774 7H16.9486C18.4824 8.18742 19.4229 10.0019 19.4229 12.0308C19.4229 14.0597 18.4824 15.874 16.9486 17.0618C18.367 17.6556 19.1752 19.107 19.1752 21.1856V25.1441H15.2166V21.1856C15.2166 19.2061 14.2762 17.8205 12.5774 17.0618C14.4577 15.6763 15.4639 14.0268 15.4639 12.0308ZM6.88668 12.0308C6.88668 10.0348 5.88045 8.38524 4 7H8.37102C9.90521 8.18742 10.8453 10.0019 10.8453 12.0308C10.8453 14.0597 9.90521 15.874 8.37102 17.0618C9.78975 17.6556 10.5978 19.107 10.5978 21.1856V25.1441H6.63912V21.1856C6.63912 19.2061 5.69887 17.8205 4 17.0618C5.88045 15.6763 6.88668 14.0268 6.88668 12.0308" fill="#4B2E3F"/>
<defs>
<linearGradient id="paint0_linear_105:2" x1="0" y1="16" x2="32" y2="16" gradientUnits="userSpaceOnUse">
<stop stop-color="#FAA52F"/>
<stop offset="1" stop-color="#FFCC36"/>
</linearGradient>
</defs>
</svg>
