<svg width="32" height="32" viewBox="0 0 32 32" fill="none" xmlns="http://www.w3.org/2000/svg">
<rect width="32" height="32" fill="white"/>
<g clip-path="url(#clip0_122_2)">
<mask id="mask0_122_2" style="mask-type:alpha" maskUnits="userSpaceOnUse" x="1" y="6" width="30" height="21">
<path d="M1.00659 6.05495H30.8967V26.9341H1.00659V6.05495Z" fill="white"/>
</mask>
<g mask="url(#mask0_122_2)">
<path fill-rule="evenodd" clip-rule="evenodd" d="M13.4176 8.34066C14.3824 7.33627 15.7253 6.71429 17.2088 6.71429C19.1868 6.71429 20.9011 7.81319 21.8242 9.45055C22.6436 9.08426 23.5311 8.89515 24.4286 8.89561C27.989 8.89561 30.8791 11.8077 30.8791 15.4011C30.8791 18.9945 27.989 21.9066 24.4286 21.9066C23.9934 21.9066 23.5692 21.8629 23.1539 21.7802C22.3462 23.2198 20.8022 24.1978 19.044 24.1978C18.3281 24.1992 17.6215 24.0368 16.978 23.7231C16.1594 25.6462 14.2528 26.9978 12.033 26.9978C9.7143 26.9978 7.74726 25.5363 6.98902 23.4813C6.65154 23.5526 6.30756 23.5883 5.96265 23.5881C3.2044 23.5881 0.973633 21.3244 0.973633 18.5442C0.973633 16.6761 1.97803 15.0497 3.46814 14.1706C3.15201 13.4423 2.98929 12.6568 2.99012 11.8629C2.99012 8.65407 5.59451 6.06066 8.80331 6.06066C10.6824 6.06066 12.3637 6.95627 13.4187 8.34638" fill="#00A1E0"/>
<path fill-rule="evenodd" clip-rule="evenodd" d="M5.32967 16.9121C5.31088 16.9611 5.33638 16.9713 5.34242 16.98C5.39857 17.0207 5.45561 17.0501 5.51275 17.0832C5.81824 17.2447 6.10616 17.292 6.40725 17.292C7.02044 17.292 7.40176 16.9656 7.40176 16.4403V16.43C7.40176 15.9443 6.97099 15.7674 6.56879 15.641L6.51616 15.624C6.21176 15.5253 5.94912 15.4393 5.94912 15.2393V15.2291C5.94912 15.0577 6.10297 14.9313 6.34033 14.9313C6.60407 14.9313 6.91835 15.0191 7.11945 15.1302C7.11945 15.1302 7.17901 15.1687 7.20066 15.1112C7.21242 15.0801 7.31495 14.8057 7.32594 14.7749C7.33758 14.7427 7.31714 14.7185 7.29616 14.7059C7.06539 14.5653 6.74671 14.4697 6.41703 14.4697L6.35583 14.4699C5.79429 14.4699 5.40198 14.8095 5.40198 15.2952V15.3056C5.40198 15.8177 5.83495 15.9847 6.23934 16.1001L6.3044 16.1203C6.5989 16.2109 6.85385 16.2896 6.85385 16.4962V16.5065C6.85385 16.6966 6.68791 16.8384 6.42198 16.8384C6.31857 16.8384 5.98901 16.8366 5.63187 16.6109C5.58868 16.5857 5.56407 16.5676 5.53077 16.5473C5.51319 16.5366 5.46923 16.5174 5.45011 16.5749L5.32923 16.9112L5.32967 16.9121ZM14.3073 16.9112C14.2885 16.9602 14.314 16.9704 14.3202 16.9791C14.3762 17.0198 14.4334 17.0492 14.4906 17.0823C14.796 17.2438 15.084 17.2911 15.3851 17.2911C15.9982 17.2911 16.3796 16.9647 16.3796 16.4395V16.4291C16.3796 15.9434 15.9499 15.7665 15.5466 15.6401L15.494 15.6231C15.1896 15.5244 14.9269 15.4385 14.9269 15.2385V15.2282C14.9269 15.0568 15.0808 14.9304 15.3181 14.9304C15.5819 14.9304 15.8951 15.0182 16.0973 15.1293C16.0973 15.1293 16.1568 15.1678 16.1786 15.1103C16.1902 15.0792 16.2929 14.8048 16.3027 14.7741C16.3145 14.7419 16.294 14.7176 16.2731 14.7051C16.0423 14.5644 15.7236 14.4688 15.394 14.4688L15.3326 14.469C14.7711 14.469 14.3788 14.8086 14.3788 15.2943V15.3047C14.3788 15.8168 14.8118 15.9838 15.2162 16.0992L15.2811 16.1195C15.5767 16.21 15.8306 16.2887 15.8306 16.4953V16.5056C15.8306 16.6957 15.6646 16.8375 15.3987 16.8375C15.2951 16.8375 14.9646 16.8357 14.6086 16.61C14.5654 16.5848 14.5401 16.5675 14.5074 16.5464C14.4963 16.5393 14.4445 16.5191 14.4268 16.5741L14.3059 16.9103L14.3073 16.9112ZM20.4378 15.8818C20.4378 16.1785 20.3824 16.4125 20.2741 16.5785C20.1659 16.7422 20.0026 16.8224 19.7752 16.8224C19.5477 16.8224 19.3851 16.7429 19.2785 16.5796C19.1711 16.4147 19.1169 16.1796 19.1169 15.8829C19.1169 15.5862 19.1714 15.3532 19.2785 15.1895C19.3848 15.0268 19.5466 14.9488 19.7752 14.9488C20.0037 14.9488 20.1664 15.0276 20.2741 15.1895C20.3831 15.3532 20.4378 15.5862 20.4378 15.8829V15.8818ZM20.9499 15.3323C20.8995 15.162 20.8213 15.0125 20.7169 14.8873C20.6124 14.762 20.4807 14.6609 20.3235 14.5884C20.1675 14.5153 19.9829 14.4785 19.7741 14.4785C19.5653 14.4785 19.3818 14.5155 19.2246 14.5884C19.0686 14.6613 18.9356 14.762 18.8312 14.8873C18.727 15.0125 18.6488 15.162 18.5982 15.3323C18.5482 15.5015 18.5229 15.6862 18.5229 15.8829C18.5229 16.0796 18.5482 16.2642 18.5982 16.4334C18.6485 16.6037 18.7268 16.7532 18.8312 16.8785C18.9357 17.0037 19.0686 17.1037 19.2246 17.1752C19.3818 17.2464 19.5664 17.2826 19.7741 17.2826C19.9818 17.2826 20.1664 17.2464 20.3224 17.1752C20.4785 17.104 20.6114 17.0037 20.7158 16.8785C20.8201 16.7532 20.8982 16.6037 20.9488 16.4334C20.9987 16.2642 21.0241 16.0796 21.0241 15.8829C21.0241 15.6873 20.9987 15.5015 20.9488 15.3323H20.9499ZM25.1576 16.7389C25.1408 16.6891 25.0922 16.7079 25.0922 16.7079C25.0178 16.7364 24.9384 16.7627 24.8537 16.7759C24.7685 16.7893 24.6735 16.796 24.5735 16.796C24.3263 16.796 24.1285 16.7223 23.9878 16.5763C23.846 16.4301 23.7669 16.1949 23.768 15.8763C23.7688 15.5862 23.8389 15.3686 23.9647 15.2015C24.0889 15.0367 24.2801 14.951 24.5329 14.951C24.7438 14.951 24.9054 14.9755 25.0746 15.0285C25.0746 15.0285 25.1147 15.0459 25.134 14.9931C25.1789 14.8689 25.2121 14.7799 25.2603 14.6436C25.274 14.6046 25.2406 14.5881 25.2284 14.5834C25.162 14.5575 25.0053 14.5149 24.8866 14.497C24.7756 14.4801 24.647 14.4713 24.502 14.4713C24.2866 14.4713 24.0954 14.5081 23.9317 14.5811C23.7679 14.654 23.6295 14.7547 23.5196 14.88C23.4097 15.0053 23.3262 15.1547 23.2701 15.3251C23.2146 15.4943 23.1866 15.68 23.1866 15.8767C23.1866 16.3009 23.3009 16.6448 23.5273 16.8965C23.7536 17.1492 24.0943 17.2767 24.5382 17.2767C24.8009 17.2767 25.0701 17.2236 25.2635 17.147C25.2635 17.147 25.3004 17.1292 25.2844 17.0862L25.158 16.7389H25.1576ZM26.0536 15.596C26.0781 15.4312 26.1233 15.2938 26.1943 15.1873C26.3006 15.0246 26.4624 14.9356 26.6899 14.9356C26.9174 14.9356 27.0679 15.0251 27.1756 15.1873C27.247 15.2944 27.2782 15.4367 27.2899 15.596L26.0481 15.5958L26.0536 15.596ZM27.7789 15.2334C27.7353 15.0697 27.6273 14.9037 27.5569 14.8279C27.4448 14.7081 27.336 14.6235 27.2273 14.5774C27.0702 14.5106 26.9012 14.4763 26.7306 14.4766C26.5141 14.4766 26.3174 14.5132 26.158 14.5876C25.9987 14.6625 25.8646 14.7645 25.7591 14.892C25.6537 15.0195 25.5745 15.17 25.524 15.3425C25.4734 15.5129 25.4479 15.6997 25.4479 15.8953C25.4479 16.0953 25.4744 16.281 25.5265 16.4491C25.5791 16.6184 25.6638 16.7667 25.7781 16.8898C25.8924 17.014 26.0386 17.1107 26.2144 17.1788C26.3891 17.2464 26.6012 17.2814 26.8441 17.2807C27.3452 17.279 27.6089 17.1675 27.7166 17.107C27.7358 17.0963 27.754 17.0777 27.7313 17.0242L27.6181 16.7066C27.6008 16.6592 27.5529 16.6764 27.5529 16.6764C27.4287 16.7227 27.2529 16.806 26.8408 16.8049C26.5715 16.8045 26.3726 16.7251 26.2474 16.6006C26.1199 16.4731 26.0562 16.2874 26.0463 16.0236L27.7825 16.0249C27.7825 16.0249 27.8282 16.0245 27.833 15.9799C27.8348 15.9614 27.8924 15.6238 27.7812 15.2337L27.7789 15.2334ZM12.1745 15.596C12.199 15.4312 12.2443 15.2938 12.3152 15.1873C12.4215 15.0246 12.5833 14.9356 12.8108 14.9356C13.0382 14.9356 13.1888 15.0251 13.2965 15.1873C13.3678 15.2944 13.399 15.4367 13.4108 15.596L12.169 15.5958L12.1745 15.596ZM13.8998 15.2334C13.8563 15.0697 13.7481 14.9037 13.6778 14.8279C13.5657 14.7081 13.4569 14.6235 13.3481 14.5774C13.1911 14.5106 13.0221 14.4763 12.8514 14.4766C12.6349 14.4766 12.4382 14.5132 12.2789 14.5876C12.1196 14.6625 11.9855 14.7645 11.88 14.892C11.7748 15.0195 11.6954 15.17 11.6448 15.3425C11.5944 15.5129 11.569 15.6997 11.569 15.8953C11.569 16.0953 11.5953 16.281 11.6477 16.4491C11.7002 16.6184 11.7851 16.7667 11.8982 16.8898C12.0125 17.014 12.1587 17.1107 12.3345 17.1788C12.5092 17.2464 12.7202 17.2814 12.9642 17.2807C13.4653 17.279 13.729 17.1675 13.8367 17.107C13.8558 17.0963 13.8741 17.0777 13.8513 17.0242L13.7381 16.7066C13.7207 16.6592 13.6727 16.6764 13.6727 16.6764C13.5486 16.7227 13.3727 16.806 12.9607 16.8049C12.6925 16.8045 12.4925 16.7251 12.3673 16.6006C12.2398 16.4731 12.176 16.2874 12.1662 16.0236L13.9024 16.0249C13.9024 16.0249 13.9481 16.0245 13.9529 15.9799C13.9547 15.9614 14.0123 15.6238 13.901 15.2337L13.8998 15.2334ZM8.42725 16.7279C8.35923 16.6736 8.34978 16.6603 8.32725 16.6251C8.29286 16.572 8.27528 16.4965 8.27528 16.3998C8.27528 16.2481 8.32583 16.1382 8.43022 16.0646C8.42912 16.0648 8.57967 15.9349 8.93352 15.9393C9.09102 15.9422 9.24815 15.9556 9.40385 15.9795V16.7674H9.40407C9.40407 16.7674 9.18429 16.8147 8.93594 16.8297C8.58319 16.8509 8.42714 16.7281 8.42824 16.7285L8.42725 16.7279ZM9.11736 15.5081C9.04703 15.503 8.95583 15.5004 8.84703 15.5004C8.69868 15.5004 8.55473 15.5189 8.42066 15.5552C8.2855 15.5916 8.16352 15.6481 8.05912 15.7233C7.95444 15.798 7.86834 15.8957 7.80747 16.009C7.74605 16.1233 7.71473 16.2574 7.71473 16.409C7.71473 16.5629 7.74143 16.6958 7.79418 16.8046C7.84586 16.9125 7.92368 17.0058 8.02055 17.076C8.11693 17.1462 8.23594 17.198 8.3733 17.2288C8.50956 17.2599 8.66341 17.2756 8.83264 17.2756C9.01066 17.2756 9.18758 17.2607 9.35901 17.2318C9.50502 17.2066 9.65047 17.1783 9.79528 17.1469C9.85308 17.1336 9.91726 17.1162 9.91726 17.1162C9.96011 17.1053 9.95682 17.0595 9.95682 17.0595L9.95583 15.477C9.95583 15.1298 9.86308 14.8715 9.68 14.7122C9.49758 14.5529 9.23055 14.4726 8.8844 14.4726C8.75473 14.4726 8.54484 14.4902 8.41956 14.5154C8.41956 14.5154 8.04154 14.5888 7.8855 14.711C7.8855 14.711 7.85121 14.7321 7.86989 14.7799L7.99297 15.1096C8.00824 15.1523 8.04989 15.1377 8.04989 15.1377C8.04989 15.1377 8.06297 15.1325 8.07835 15.1234C8.41132 14.9421 8.8333 14.9476 8.8333 14.9476C9.02011 14.9476 9.16517 14.9855 9.26187 15.0597C9.35649 15.1323 9.40473 15.2421 9.40473 15.4729V15.5462C9.25638 15.5246 9.11901 15.5122 9.11901 15.5122L9.11736 15.5081ZM23.0734 14.6147C23.0759 14.6089 23.0772 14.6027 23.0773 14.5964C23.0773 14.5901 23.0761 14.5838 23.0736 14.578C23.0712 14.5722 23.0676 14.5669 23.0631 14.5625C23.0586 14.5581 23.0532 14.5546 23.0474 14.5523C23.0178 14.5411 22.8704 14.51 22.7573 14.503C22.5397 14.4893 22.4188 14.526 22.31 14.5748C22.2025 14.6233 22.0836 14.7012 22.0177 14.7913L22.0175 14.5803C22.0175 14.5513 21.9969 14.5279 21.9677 14.5279H21.5237C21.4949 14.5279 21.4741 14.5513 21.4741 14.5803V17.1627C21.4741 17.1767 21.4797 17.1901 21.4895 17.1999C21.4994 17.2098 21.5128 17.2154 21.5267 17.2154H21.9817C21.9956 17.2154 22.009 17.2098 22.0188 17.1999C22.0286 17.1901 22.0342 17.1767 22.0342 17.1627V15.866C22.0342 15.6924 22.0533 15.5199 22.0914 15.4111C22.129 15.3035 22.1801 15.2177 22.2431 15.1562C22.3032 15.0967 22.3767 15.0526 22.4574 15.0276C22.5331 15.0058 22.6115 14.9948 22.6903 14.9948C22.781 14.9948 22.8804 15.0181 22.8804 15.0181C22.9138 15.0219 22.9324 15.0014 22.9437 14.9713C22.9735 14.8921 23.058 14.6548 23.0745 14.6076" fill="#FFFFFE"/>
<path fill-rule="evenodd" clip-rule="evenodd" d="M18.8243 13.4229C18.768 13.4059 18.7108 13.3923 18.653 13.3822C18.5751 13.3692 18.4963 13.3631 18.4174 13.364C18.1038 13.364 17.8567 13.4525 17.6832 13.6275C17.5109 13.8011 17.3936 14.0656 17.3348 14.4136L17.3136 14.5311H16.9201C16.9201 14.5311 16.8721 14.5291 16.862 14.5815L16.7973 14.942C16.7928 14.9765 16.8077 14.998 16.8538 14.9978H17.2369L16.8482 17.1674C16.8178 17.3421 16.783 17.4858 16.7444 17.5947C16.7064 17.7022 16.6692 17.7828 16.6235 17.8412C16.5792 17.8978 16.5372 17.9395 16.4648 17.9637C16.405 17.9839 16.3362 17.9931 16.2609 17.9931C16.2189 17.9931 16.1631 17.9861 16.1219 17.9778C16.0806 17.9697 16.0592 17.9604 16.0283 17.9475C16.0283 17.9475 15.9834 17.9303 15.9657 17.9754C15.9513 18.0122 15.8492 18.293 15.8371 18.3277C15.8248 18.362 15.8421 18.389 15.8638 18.3968C15.9148 18.4151 15.9527 18.4267 16.0222 18.4431C16.1187 18.4658 16.2 18.4673 16.2761 18.4673C16.4357 18.4673 16.5811 18.4448 16.7016 18.4013C16.823 18.3575 16.9286 18.2811 17.022 18.1777C17.123 18.0662 17.1865 17.9493 17.2472 17.79C17.3074 17.6321 17.3586 17.4361 17.3995 17.2076L17.7901 14.9978H18.3611C18.3611 14.9978 18.4092 14.9996 18.4192 14.9474L18.4838 14.5869C18.4883 14.5524 18.4736 14.5309 18.4272 14.5311H17.8731C17.8758 14.5186 17.901 14.3236 17.9646 14.1401C17.9917 14.0618 18.0428 13.9986 18.0861 13.9552C18.1266 13.9138 18.1764 13.8828 18.2313 13.8648C18.2915 13.8462 18.3543 13.8372 18.4174 13.838C18.4695 13.838 18.5208 13.8443 18.5598 13.8524C18.6135 13.8638 18.6344 13.8699 18.6484 13.8741C18.7049 13.8913 18.7125 13.8746 18.7236 13.8473L18.8561 13.4833C18.8698 13.4442 18.8366 13.4277 18.8243 13.4229V13.4229ZM11.0799 17.172C11.0799 17.201 11.0592 17.2246 11.0302 17.2246H10.5705C10.5414 17.2246 10.5208 17.201 10.5208 17.172V13.4722C10.5208 13.4433 10.5414 13.4199 10.5705 13.4199H11.0302C11.0592 13.4199 11.0799 13.4433 11.0799 13.4722V17.172" fill="#FFFFFE"/>
</g>
</g>
<defs>
<clipPath id="clip0_122_2">
<rect width="30" height="20.989" fill="white" transform="translate(1 6)"/>
</clipPath>
</defs>
</svg>
