<svg width="32" height="32" viewBox="0 0 32 32" fill="none" xmlns="http://www.w3.org/2000/svg">
<rect width="32" height="32" fill="white"/>
<g clip-path="url(#clip0)">
<path fill-rule="evenodd" clip-rule="evenodd" d="M1 23.6739H15.9915L30.6628 9H1V23.6739Z" fill="url(#paint0_linear)"/>
<path fill-rule="evenodd" clip-rule="evenodd" d="M18.6035 11.9348H15.6739L15.6837 18.825L13.1327 11.9325H10.6033L8.42565 17.6889C8.19413 16.2241 6.67978 15.7187 5.48826 15.3401C4.70141 15.0874 3.8663 14.7157 3.87478 14.3048C3.8813 13.9676 4.32152 13.6549 5.19641 13.7015C5.78337 13.7332 6.30185 13.7804 7.33326 14.2787L8.34739 12.5113C7.40695 12.0326 6.10652 11.7303 5.04022 11.7294H5.03369C3.79032 11.7294 2.755 12.1321 2.11326 12.7957C1.66587 13.2587 1.42456 13.8476 1.41478 14.4988C1.39848 15.3949 1.72685 16.0301 2.41685 16.5378C2.99989 16.965 3.74565 17.2422 4.40272 17.4457C5.21304 17.6967 5.875 17.9152 5.86685 18.3802C5.86032 18.5498 5.79641 18.7083 5.67445 18.8361C5.47228 19.0448 5.1625 19.1231 4.73369 19.1315C3.90641 19.1491 3.29337 19.019 2.31641 18.4415L1.41413 20.2317C2.39011 20.7867 3.42609 21.0652 4.60326 21.0652L4.86804 21.0633C5.89261 21.0447 6.72413 20.7991 7.38478 20.2676C7.42261 20.2373 7.45652 20.2066 7.49174 20.1757L7.38087 20.747L9.85261 20.7391L10.2961 19.6037C10.7624 19.7628 11.2926 19.8509 11.8554 19.8509C12.4039 19.8509 12.9198 19.7674 13.3773 19.6174L13.6864 20.7391L18.1212 20.7434L18.132 18.1549H19.0756C21.3566 18.1549 22.705 16.994 22.705 15.0473C22.7043 12.8791 21.3935 11.9348 18.6035 11.9348ZM11.8554 17.8246C11.5147 17.8246 11.1951 17.7652 10.9202 17.6609L11.845 14.7408H11.8629L12.7727 17.669C12.4988 17.7669 12.1867 17.8246 11.8551 17.8246H11.8554ZM18.775 16.1469H18.1313V13.7935H18.7753C19.6329 13.7935 20.3177 14.0791 20.3177 14.955C20.3171 15.8615 19.6329 16.1469 18.7753 16.1469" fill="white"/>
</g>
<defs>
<linearGradient id="paint0_linear" x1="15.8314" y1="9" x2="15.8314" y2="23.6742" gradientUnits="userSpaceOnUse">
<stop stop-color="#00AEEF"/>
<stop offset="0.212" stop-color="#0097DC"/>
<stop offset="0.519" stop-color="#007CC5"/>
<stop offset="0.792" stop-color="#006CB8"/>
<stop offset="1" stop-color="#0066B3"/>
</linearGradient>
<clipPath id="clip0">
<rect width="30" height="14.6739" fill="white" transform="translate(1 9)"/>
</clipPath>
</defs>
</svg>
