<svg width="32" height="32" viewBox="0 0 32 32" fill="none" xmlns="http://www.w3.org/2000/svg">
<rect width="32" height="32" fill="white"/>
<path d="M30 16C30 12.0938 24.3481 5.61235 19.5259 3.0716C18.2469 2.39753 17.037 2 16 2C14.7556 2 13.2346 2.57037 11.6617 3.52099C10.1407 4.43703 8.5679 5.71605 7.15062 7.13333C5.71605 8.5679 4.43704 10.158 3.5037 11.6963C2.57037 13.2346 2 14.7383 2 15.9827C2 20.9259 11.0395 29.9827 16 29.9827C17.2444 29.9827 18.7654 29.4123 20.321 28.4617C21.842 27.5457 23.4321 26.2667 24.8494 24.8494C26.2667 23.4321 27.563 21.8247 28.479 20.3037C29.4296 18.7481 30 17.2444 30 16Z" fill="#494949"/>
<path d="M20.5975 11.4025C19.163 9.88148 17.6247 8.44691 16.0173 7.11605C14.6691 6.00988 13.2864 5.02469 11.9037 4.24691C10.4691 5.11111 8.98272 6.32099 7.65186 7.65185L16 16L20.5975 11.4025Z" fill="#40C9FF"/>
<path d="M19.3358 3.81481C18.1259 3.17531 16.9852 2.81234 16 2.81234C14.8247 2.81234 13.3901 3.36543 11.921 4.24691C13.3037 5.02469 14.6864 6.02716 16.0346 7.11605L19.3358 3.81481Z" fill="#9661BA"/>
<path d="M20.3556 20.3555L16 16L7.65185 7.65185C6.3037 9 5.09382 10.5037 4.21234 11.9556C7.01234 16.7778 12.3185 21.6173 16.0346 24.6593L20.3556 20.3555Z" fill="#FFA233"/>
<path d="M20.079 27.7531C19.7506 27.5111 18.1432 26.3704 16.0346 24.642C12.3185 21.6173 7.01234 16.7778 4.21234 11.9556C3.34815 13.4074 2.79506 14.8247 2.79506 16C2.79506 20.6667 11.3333 29.1877 15.9827 29.1877C17.1926 29.1877 18.6099 28.6519 20.079 27.7531Z" fill="#FF5A7E"/>
<path d="M29.2049 16C29.2049 12.3185 23.8642 6.21728 19.3358 3.81482L16.0346 7.11605C17.642 8.44691 19.163 9.88148 20.5975 11.4025L16 16L20.3556 20.3556L16.0519 24.6593C18.1605 26.3877 19.7506 27.5284 20.0963 27.7704C21.5309 26.9062 23.0173 25.6963 24.3654 24.3654C25.7136 23.0173 26.9235 21.5136 27.8049 20.0617C28.6691 18.5926 29.2049 17.1753 29.2049 16Z" fill="#FFD91D"/>
</svg>
