<svg width="32" height="32" viewBox="0 0 32 32" fill="none" xmlns="http://www.w3.org/2000/svg">
<rect width="32" height="32" fill="white"/>
<path fill-rule="evenodd" clip-rule="evenodd" d="M10.2068 24.7133L5.00244 22.1946C4.9403 22.1647 4.88529 22.1219 4.84111 22.0689C4.79692 22.016 4.7646 21.9542 4.74631 21.8877C4.72802 21.8212 4.72419 21.7516 4.73508 21.6835C4.74597 21.6154 4.77133 21.5505 4.80944 21.493L7.41499 17.633C7.46471 17.5597 7.53333 17.5012 7.61357 17.4637C7.6938 17.4263 7.78268 17.4112 7.87079 17.4201C7.9589 17.429 8.04296 17.4615 8.11409 17.5143C8.18521 17.5671 8.24075 17.6381 8.27482 17.7198L10.8804 24.0947C10.921 24.187 10.9317 24.2897 10.911 24.3884C10.8903 24.487 10.8392 24.5768 10.7649 24.6449C10.6906 24.7131 10.5968 24.7562 10.4967 24.7683C10.3966 24.7804 10.2952 24.7618 10.2068 24.7133ZM28.0895 23.5678V10.5179C28.0889 10.4343 28.0668 10.3522 28.0254 10.2795C27.9839 10.2068 27.9245 10.146 27.8529 10.1029C27.7812 10.0598 27.6996 10.0359 27.616 10.0333C27.5324 10.0308 27.4495 10.0498 27.3754 10.0885L15.8116 16.0368C15.7325 16.0771 15.6661 16.1384 15.6196 16.214C15.5731 16.2896 15.5484 16.3766 15.5481 16.4653V29.5152C15.5487 29.5989 15.5708 29.6809 15.6123 29.7536C15.6537 29.8263 15.7131 29.8871 15.7848 29.9302C15.8565 29.9733 15.938 29.9972 16.0216 29.9998C16.1052 30.0023 16.1881 29.9833 16.2623 29.9446L27.8299 23.9963C27.9083 23.9555 27.9739 23.8939 28.0197 23.8184C28.0654 23.7428 28.0896 23.6562 28.0895 23.5678ZM24.7061 18.5304C24.6638 19.516 24.3771 20.4755 23.8717 21.3227C23.3663 22.1699 22.6582 22.8781 21.8111 23.3835C20.2159 24.2038 18.9218 23.3632 18.9228 21.5017C18.965 20.516 19.2516 19.5562 19.757 18.7089C20.2624 17.8615 20.9706 17.1532 21.8179 16.6477C23.413 15.8274 24.7061 16.6728 24.7061 18.5304ZM15.0753 14.3027L26.5368 8.43539C26.6164 8.39439 26.683 8.33205 26.7292 8.25534C26.7754 8.17863 26.7993 8.09058 26.7983 8.00105C26.7973 7.91151 26.7714 7.82403 26.7235 7.74837C26.6756 7.67271 26.6076 7.61188 26.5271 7.57267L15.1641 2.05181C15.0957 2.01773 15.0204 2 14.944 2C14.8677 2 14.7924 2.01773 14.724 2.05181L3.26252 7.91718C3.18267 7.95808 3.1158 8.02045 3.06943 8.09726C3.02306 8.17407 2.99903 8.26229 3.00003 8.35201C3.00103 8.44173 3.02703 8.52939 3.0751 8.60514C3.12318 8.6809 3.19142 8.74175 3.27217 8.78087L14.6401 14.3008C14.7771 14.3683 14.9383 14.3683 15.0753 14.3008V14.3027ZM15.0405 5.36664L19.883 7.71935C19.9637 7.75855 20.0319 7.81948 20.0799 7.89529C20.1278 7.9711 20.1537 8.05879 20.1546 8.14851C20.1556 8.23822 20.1314 8.32641 20.085 8.40317C20.0385 8.47993 19.9716 8.54222 19.8917 8.58304L15.194 10.9879C15.1255 11.0219 15.05 11.0396 14.9735 11.0396C14.897 11.0396 14.8215 11.0219 14.753 10.9879L9.91052 8.63611C9.82981 8.59691 9.76164 8.53598 9.71365 8.46017C9.66567 8.38436 9.63977 8.29667 9.63887 8.20696C9.63797 8.11724 9.6621 8.02905 9.70855 7.95229C9.755 7.87553 9.82193 7.81324 9.90183 7.77242L14.5995 5.3676C14.668 5.33337 14.7434 5.31547 14.8199 5.3153C14.8964 5.31513 14.972 5.33271 15.0405 5.36664Z" fill="#1F7AE0"/>
</svg>
