<svg width="32" height="32" viewBox="0 0 32 32" fill="none" xmlns="http://www.w3.org/2000/svg">
<rect width="32" height="32" fill="#0A2A53"/>
<path d="M3.81266 18.2646C4.82392 18.2646 5.44559 17.7279 5.44559 17.0193C5.41561 15.5064 3.11605 15.976 3.11605 15.223C3.11605 14.9844 3.3183 14.8285 3.70774 14.8285C4.1197 14.8285 4.37435 15.0446 4.40472 15.3652H5.40839C5.34802 14.5448 4.74151 14.0005 3.73773 14.0005C2.71155 14.0005 2.09733 14.5522 2.09733 15.238C2.09733 16.7514 4.44194 16.2816 4.44194 17.0197C4.44194 17.2583 4.21728 17.4446 3.80519 17.4446C3.38576 17.4446 3.09364 17.206 3.05618 16.8929H2C2.04493 17.6608 2.77166 18.2646 3.81266 18.2646Z" fill="white"/>
<path d="M7.35546 20.1656V17.6085C7.5163 17.8164 7.72406 17.984 7.96211 18.0979C8.20013 18.2118 8.46181 18.2689 8.72614 18.2645C9.7898 18.2645 10.6212 17.4072 10.6212 16.1176C10.6212 14.828 9.7898 14.0005 8.72614 14.0005C8.46071 13.9941 8.19761 14.051 7.95905 14.1665C7.72049 14.282 7.51347 14.4526 7.35546 14.664V14.0676H6.30673V20.1656H7.35546Z" fill="white"/>
<path d="M8.44895 17.3478C7.88713 17.3478 7.35532 16.915 7.35532 16.1326C7.35532 15.3503 7.88713 14.9175 8.44895 14.9175C9.01824 14.9175 9.55006 15.335 9.55006 16.1177C9.55006 16.9005 9.01824 17.3478 8.44895 17.3478Z" fill="#0A2A53"/>
<path d="M13.1983 18.2646C14.2245 18.2646 14.9136 17.6605 15.1383 16.9004H14.0073C13.9363 17.0575 13.8188 17.1895 13.6703 17.2787C13.5217 17.3679 13.3493 17.4102 13.1759 17.3999C12.6515 17.3999 12.2321 17.057 12.1802 16.4457H15.2132C15.2343 16.3125 15.2444 16.1779 15.2432 16.0431C15.2432 14.8131 14.3967 14.0005 13.1983 14.0005C11.9698 14.0005 11.1159 14.828 11.1159 16.1325C11.1159 17.4296 11.9922 18.2646 13.1983 18.2646Z" fill="white"/>
<path d="M14.1568 15.745H12.1868C12.2692 15.1784 12.6663 14.8578 13.1681 14.8578C13.7074 14.8578 14.1419 15.2007 14.1568 15.745Z" fill="#0A2A53"/>
<path d="M17.0556 18.1974V15.9163C17.0556 15.2529 17.4227 14.895 17.992 14.895C18.5463 14.895 18.913 15.2526 18.913 15.9163V18.1974H19.9617V15.7747C19.9618 14.6341 19.2728 14.0079 18.3064 14.0079C18.0674 14.0013 17.83 14.0496 17.613 14.1492C17.3959 14.2488 17.2051 14.3969 17.0556 14.5818V14.0676H16.0069V18.1974H17.0556Z" fill="white"/>
<path d="M22.0065 18.1974V15.9163C22.0065 15.2529 22.3736 14.895 22.9429 14.895C23.4972 14.895 23.8639 15.2526 23.8639 15.9163V18.1974H24.9126V15.7747C24.9127 14.6341 24.2237 14.0079 23.2574 14.0079C23.0183 14.0013 22.7809 14.0496 22.5639 14.1492C22.3468 14.2488 22.1561 14.3969 22.0065 14.5818V14.0676H20.9578V18.1974H22.0065Z" fill="white"/>
<path d="M27.3101 20.1506L29.2931 15.4557L28.6347 14.3706L27.6772 16.9528L26.606 14.0675H25.43L27.0929 18.0931L26.1941 20.1506H27.3101Z" fill="white"/>
<path d="M28.8839 14.1238H30L29.5394 15.2082L28.8839 14.1238Z" fill="#29B473"/>
</svg>
