<svg width="32" height="32" viewBox="0 0 32 32" fill="none" xmlns="http://www.w3.org/2000/svg">
<rect width="32" height="32" fill="white"/>
<path fill-rule="evenodd" clip-rule="evenodd" d="M13.7846 10.3385C13.7846 9.13846 14.7692 8.67692 16.4 8.67692C18.7385 8.67692 21.6923 9.38461 24.0308 10.6462V3.41538C21.4769 2.4 18.9538 2 16.4 2C10.1538 2 6 5.26154 6 10.7077C6 19.2 17.6923 17.8462 17.6923 21.5077C17.6923 22.9231 16.4615 23.3846 14.7385 23.3846C12.1846 23.3846 8.92308 22.3385 6.33846 20.9231V28.2462C9.2 29.4769 12.0923 30 14.7385 30C21.1385 30 25.5385 26.8308 25.5385 21.3231C25.5077 12.1538 13.7846 13.7846 13.7846 10.3385Z" fill="#635BFF"/>
</svg>
