<svg width="32" height="32" viewBox="0 0 32 32" fill="none" xmlns="http://www.w3.org/2000/svg">
<rect width="32" height="32" fill="white"/>
<path d="M15.9939 24.6658C11.2076 24.6658 7.32328 20.7877 7.32328 16.0006C7.32328 11.2048 11.2076 7.32953 15.9939 7.32953C20.7844 7.32953 24.6638 11.2048 24.6638 16.0006C24.6638 20.7877 20.7844 24.6658 15.9939 24.6658ZM15.9939 3C8.81859 3 3 8.82007 3 16.0006C3 23.1756 8.81859 28.9939 15.9939 28.9939C23.1723 28.9939 29 23.1756 29 16.0006C29 8.82007 23.1723 3 15.9939 3Z" fill="#CC0000"/>
<path d="M15.9939 11.5456C13.5344 11.5456 11.5415 13.5336 11.5415 16.0006C11.5415 18.4594 13.5343 20.4533 15.9939 20.4533C18.4557 20.4533 20.4529 18.4594 20.4529 16.0006C20.4529 13.5337 18.4557 11.5456 15.9939 11.5456Z" fill="#CC0000"/>
</svg>
