<svg width="32" height="32" viewBox="0 0 32 32" fill="none" xmlns="http://www.w3.org/2000/svg">
<rect width="32" height="32" fill="#01BFA5"/>
<path d="M2.50062 8.50855C2.16687 8.84743 2 9.2582 2 9.74084C2 10.2248 2.16687 10.6355 2.50062 10.9731C2.83436 11.3133 3.23871 11.4815 3.71494 11.4815H14.2844V22.2846C14.2844 22.7082 14.4513 23.0676 14.785 23.3641C15.1188 23.6606 15.5231 23.8095 15.9994 23.8095C16.4756 23.8095 16.8799 23.6606 17.2137 23.3641C17.5474 23.0689 17.7143 22.7082 17.7143 22.2846V11.4815H28.4288C28.8576 11.434 29.226 11.2466 29.5353 10.9205C29.8447 10.5932 30 10.2017 30 9.74213C30 9.2582 29.8331 8.84743 29.4994 8.50983C29.3441 8.34547 29.1562 8.21526 28.9478 8.12752C28.7394 8.03978 28.515 7.99643 28.2889 8.00023H3.71366C3.23871 8.00023 2.83308 8.17095 2.50062 8.50855Z" fill="white"/>
</svg>
