<svg width="32" height="32" viewBox="0 0 32 32" fill="none" xmlns="http://www.w3.org/2000/svg">
<rect width="32" height="32" fill="white"/>
<path d="M29 8.47629C28.0446 8.89948 27.0169 9.18185 25.933 9.31545C27.035 8.66117 27.8828 7.61764 28.2807 6.38491C27.2495 6.98936 26.107 7.43349 24.8916 7.66747C23.921 6.63839 22.5367 6 21.0028 6C18.0564 6 15.6682 8.36725 15.6682 11.2862C15.6682 11.6993 15.7166 12.1015 15.8075 12.4922C11.3749 12.2698 7.44346 10.1625 4.81335 6.96481C4.35117 7.74619 4.09119 8.66117 4.09119 9.6267C4.09119 11.4617 5.03072 13.0772 6.46349 14.029C5.58895 14.0023 4.76569 13.7589 4.04497 13.3689C4.04497 13.3848 4.04497 13.4087 4.04497 13.431C4.04497 15.9954 5.88431 18.1309 8.32233 18.6169C7.87676 18.7389 7.40591 18.8068 6.92062 18.8068C6.57615 18.8068 6.24034 18.7678 5.91537 18.7093C6.5942 20.805 8.56354 22.3367 10.8968 22.3822C9.07122 23.7977 6.77185 24.6455 4.27173 24.6455C3.83987 24.6455 3.41741 24.6209 3 24.5704C5.36219 26.066 8.16707 26.9427 11.1778 26.9427C20.9883 26.9427 26.3554 18.8863 26.3554 11.8972C26.3554 11.6683 26.3482 11.44 26.3374 11.2147C27.3845 10.4752 28.2872 9.5422 29 8.47629Z" fill="#03A9F4"/>
</svg>
