<svg width="32" height="32" viewBox="0 0 32 32" fill="none" xmlns="http://www.w3.org/2000/svg">
<rect width="32" height="32" fill="black"/>
<path d="M3.61093 17.9421C3.72925 18.2561 3.89307 18.5246 4.10241 18.7475C4.31176 18.9705 4.55976 19.1412 4.84644 19.2595C5.13314 19.3778 5.44486 19.437 5.78161 19.437C6.10928 19.437 6.41643 19.3755 6.70314 19.2527C6.98984 19.1298 7.24012 18.9569 7.45399 18.7339C7.66786 18.5109 7.83397 18.2447 7.9523 17.9352C8.07062 17.6258 8.12977 17.28 8.12977 16.8977V11H9.56323V20.5564H8.14342V19.669C7.82488 20.0058 7.44943 20.2652 7.01712 20.4472C6.58478 20.6292 6.11837 20.7202 5.6178 20.7202C5.1081 20.7202 4.63256 20.6315 4.19113 20.454C3.74974 20.2766 3.36745 20.024 3.04438 19.6963C2.72131 19.3687 2.46644 18.9751 2.27988 18.5155C2.09328 18.0558 2 17.5439 2 16.9796V11H3.43346V16.8977C3.43346 17.28 3.49261 17.6281 3.61093 17.9421Z" fill="white"/>
<path d="M12.0341 11V14.4813C12.3527 14.1627 12.7213 13.9102 13.14 13.7236C13.5586 13.537 14.0137 13.4437 14.5052 13.4437C15.0149 13.4437 15.4926 13.5393 15.9386 13.7304C16.3846 13.9215 16.7714 14.1809 17.099 14.5086C17.4267 14.8362 17.6861 15.223 17.8772 15.669C18.0684 16.115 18.1639 16.5882 18.1639 17.0888C18.1639 17.5894 18.0684 18.0604 17.8772 18.5018C17.6861 18.9432 17.4267 19.3277 17.099 19.6554C16.7714 19.983 16.3846 20.2424 15.9386 20.4335C15.4926 20.6247 15.0148 20.7202 14.5052 20.7202C14.0137 20.7202 13.5564 20.6269 13.1331 20.4403C12.7099 20.2538 12.339 20.0012 12.0205 19.6827V20.5564H10.6553V11H12.0341ZM12.1911 18.0308C12.314 18.3221 12.4847 18.5769 12.7031 18.7953C12.9215 19.0138 13.1764 19.1867 13.4676 19.3141C13.7589 19.4415 14.0729 19.5053 14.4096 19.5053C14.7373 19.5053 15.0467 19.4415 15.3379 19.3141C15.6292 19.1867 15.8817 19.0138 16.0956 18.7953C16.3095 18.5769 16.4802 18.3221 16.6076 18.0308C16.735 17.7396 16.7987 17.4256 16.7987 17.0888C16.7987 16.7521 16.735 16.4358 16.6076 16.14C16.4802 15.8442 16.3095 15.5871 16.0956 15.3687C15.8817 15.1503 15.6292 14.9796 15.3379 14.8567C15.0467 14.7339 14.7373 14.6724 14.4096 14.6724C14.082 14.6724 13.7725 14.7338 13.4813 14.8567C13.1901 14.9796 12.9352 15.1503 12.7168 15.3687C12.4984 15.5871 12.3254 15.8442 12.198 16.14C12.0706 16.4358 12.0069 16.7521 12.0069 17.0888C12.0068 17.4256 12.0683 17.7396 12.1911 18.0308Z" fill="white"/>
<path d="M18.9419 15.6827C19.1239 15.2458 19.3743 14.8613 19.6928 14.5291C20.0113 14.1969 20.3891 13.9352 20.8259 13.7441C21.2628 13.553 21.7361 13.4574 22.2457 13.4574C22.7463 13.4574 23.2105 13.5484 23.6383 13.7304C24.066 13.9125 24.4346 14.165 24.7441 14.4881C25.0535 14.8112 25.2947 15.1935 25.4676 15.6349C25.6405 16.0763 25.727 16.5564 25.727 17.0752V17.5257H20.0614C20.1069 17.8079 20.198 18.0695 20.3345 18.3107C20.471 18.5519 20.6416 18.7612 20.8464 18.9387C21.0512 19.1162 21.2833 19.255 21.5427 19.3551C21.8021 19.4552 22.0773 19.5053 22.3686 19.5053C23.1969 19.5053 23.8658 19.164 24.3755 18.4813L25.3721 19.2185C25.0262 19.6827 24.5985 20.0468 24.0888 20.3107C23.5791 20.5746 23.0057 20.7066 22.3686 20.7066C21.8499 20.7066 21.3652 20.6156 20.9147 20.4336C20.4642 20.2516 20.0728 19.9967 19.7406 19.669C19.4084 19.3414 19.1468 18.9568 18.9557 18.5154C18.7645 18.074 18.6689 17.5939 18.6689 17.0752C18.6689 16.5837 18.7599 16.1195 18.9419 15.6827ZM20.8601 15.1434C20.4732 15.4665 20.2161 15.8965 20.0887 16.4335H24.3345C24.2162 15.8965 23.9636 15.4665 23.5768 15.1434C23.19 14.8203 22.7372 14.6588 22.2184 14.6588C21.6997 14.6588 21.2469 14.8203 20.8601 15.1434Z" fill="white"/>
<path d="M28.3071 15.3004C28.0159 15.6189 27.8703 16.0512 27.8703 16.5973V20.5565H26.4914V13.5939H27.8566V14.454C28.0295 14.1718 28.2548 13.9488 28.5324 13.785C28.81 13.6212 29.1399 13.5393 29.5222 13.5393H30V14.8226H29.4266C28.9715 14.8226 28.5984 14.9818 28.3071 15.3004Z" fill="white"/>
</svg>
