<svg width="32" height="32" viewBox="0 0 32 32" fill="none" xmlns="http://www.w3.org/2000/svg">
<rect width="32" height="32" fill="#41246E"/>
<path fill-rule="evenodd" clip-rule="evenodd" d="M20.0009 10.4595C20.6909 9.57945 21.74 9 23.3212 9C25.97 9 28 11.0297 28 13.8805C28 16.7313 25.97 18.6618 23.3212 18.6618C21.74 18.6618 20.6909 18.0824 20.0009 17.2023V22.3338H18.0793V9.19522H20.0009V10.4595ZM20.0132 13.8805C20.0132 15.591 21.3036 16.942 23.0892 16.942C24.8839 16.942 26.0784 15.5879 26.0815 13.8805C26.0815 12.17 24.887 10.7198 23.0923 10.7198H23.0892C21.2944 10.7229 20.0132 12.17 20.0132 13.8805ZM8.19915 14.1624C8.48075 13.9641 8.74687 13.741 8.99133 13.4962C9.4493 13.0407 9.82992 12.517 10.1208 11.9438V14.4165C10.1208 15.9535 10.9656 16.8397 12.3921 16.8397C13.8589 16.8397 15.0131 15.9535 15.0131 14.4165V9.1921H16.9316V18.4666H15.0007V17.2983C14.6912 17.7725 13.8063 18.6587 12.0889 18.6587C9.54523 18.6587 8.19605 17.0752 8.19605 14.8225L8.19915 14.1624ZM4 15.2253V13.3661C5.12019 13.363 6.19396 12.9229 6.99232 12.1452C7.38222 11.7578 7.69476 11.2992 7.90828 10.7941C8.12179 10.2859 8.23319 9.74365 8.23319 9.19519H10.1177C10.1177 9.98845 9.95988 10.7724 9.65045 11.5037C9.3441 12.235 8.8923 12.8981 8.32602 13.4559C7.1718 14.5901 5.61839 15.2253 4 15.2253Z" fill="white"/>
</svg>
