<svg width="32" height="32" viewBox="0 0 32 32" fill="none" xmlns="http://www.w3.org/2000/svg">
<rect width="32" height="32" fill="white"/>
<path d="M14 20.5691H11.5698L13.0898 11.1704H15.5199L14 20.5691Z" fill="#00579F"/>
<path d="M22.8098 11.4001C22.3304 11.21 21.5701 11 20.6301 11C18.2301 11 16.5401 12.2798 16.5298 14.1094C16.5098 15.4594 17.7397 16.2091 18.6596 16.6592C19.5999 17.1192 19.9195 17.4194 19.9195 17.8294C19.9099 18.459 19.1597 18.7493 18.46 18.7493C17.4898 18.7493 16.9699 18.5996 16.1798 18.2493L15.8598 18.0991L15.5198 20.209C16.0897 20.4686 17.1399 20.6991 18.2301 20.7092C20.7801 20.7092 22.4402 19.4492 22.4599 17.4994C22.4696 16.4295 21.8201 15.6097 20.4199 14.9397C19.57 14.5097 19.0494 14.2197 19.0494 13.7797C19.0594 13.3797 19.4897 12.97 20.4492 12.97C21.2392 12.9499 21.8197 13.1398 22.2595 13.3299L22.4793 13.4297L22.8098 11.4001V11.4001Z" fill="#00579F"/>
<path d="M26.0397 17.2394C26.2398 16.6995 27.0099 14.6098 27.0099 14.6098C26.9998 14.6298 27.2097 14.0599 27.3297 13.7099L27.4995 14.5198C27.4995 14.5198 27.9597 16.7695 28.0596 17.2394C27.6798 17.2394 26.5197 17.2394 26.0397 17.2394ZM29.0395 11.1704H27.1597C26.58 11.1704 26.1396 11.3402 25.8895 11.9502L22.2798 20.5689H24.8297C24.8297 20.5689 25.2495 19.4089 25.3397 19.1591C25.6195 19.1591 28.1 19.1591 28.4599 19.1591C28.5297 19.4891 28.7499 20.5689 28.7499 20.5689H31L29.0395 11.1704V11.1704Z" fill="#00579F"/>
<path d="M9.53997 11.1704L7.15999 17.5794L6.89992 16.2796C6.45991 14.7797 5.07995 13.1502 3.53999 12.34L5.71996 20.5591H8.28985L12.1097 11.1704H9.53997V11.1704Z" fill="#00579F"/>
<path d="M4.94998 11.1704H1.04L1 11.3603C4.05003 12.1402 6.07 14.0203 6.89992 16.28L6.04993 11.9604C5.91 11.3601 5.47996 11.1902 4.94998 11.1704Z" fill="#FAA61A"/>
</svg>
