<svg width="32" height="32" viewBox="0 0 32 32" fill="none" xmlns="http://www.w3.org/2000/svg">
<rect width="32" height="32" fill="white"/>
<g clip-path="url(#clip0)">
<path d="M13.8786 18.3286L12.5714 14.6643C12.55 14.6214 12.5286 14.5571 12.5286 14.4929C12.5286 14.3429 12.6571 14.1714 12.8714 14.1714C13.0214 14.1714 13.15 14.2786 13.2143 14.45L14.2857 17.6L15.3786 14.4286C15.4214 14.2786 15.5286 14.15 15.7 14.15H15.7429C15.9143 14.15 16.0429 14.2571 16.0857 14.4286L17.1571 17.6L18.25 14.4286C18.2929 14.3 18.3786 14.1714 18.5714 14.1714C18.7643 14.1714 18.8928 14.3 18.8928 14.4714C18.8928 14.5357 18.8714 14.6 18.85 14.6429L17.5214 18.3071C17.4571 18.5 17.3286 18.6071 17.1571 18.6071H17.1357C16.9857 18.6071 16.8357 18.5214 16.7714 18.3071L15.7 15.2L14.6286 18.3071C14.5643 18.5 14.4571 18.6071 14.2643 18.6071H14.2429C14.0714 18.6286 13.9429 18.5 13.8786 18.3286Z" fill="#717074"/>
<path d="M23.4357 14.5143C23.4357 14.3429 23.5643 14.1714 23.7571 14.1714C23.9286 14.1714 24.1 14.3 24.1 14.5143V15.2643C24.4214 14.5357 25.1286 14.2143 25.5786 14.2143C25.7714 14.2143 25.9 14.3429 25.9 14.5571C25.9 14.7286 25.7929 14.8571 25.6 14.9C24.7643 14.9857 24.0786 15.6286 24.0786 16.8714V18.3286C24.0786 18.5 23.95 18.6714 23.7571 18.6714C23.5857 18.6714 23.4143 18.5429 23.4143 18.3286V14.5143" fill="#717074"/>
<path d="M27.9786 18.65C26.8214 18.65 25.8786 17.75 25.8786 16.4214V16.4C25.8786 15.1571 26.7357 14.1714 27.9143 14.1714C29.1786 14.1714 29.8857 15.2 29.8857 16.3571C29.8857 16.5286 29.7571 16.6571 29.5857 16.6571H26.5C26.5857 17.5786 27.25 18.1143 28 18.1143C28.5143 18.1143 28.9214 17.9214 29.2214 17.6214C29.2643 17.5786 29.3286 17.5571 29.3929 17.5571C29.5429 17.5571 29.6714 17.6857 29.6714 17.8357C29.6714 17.9 29.65 17.9857 29.5857 18.0286C29.1786 18.3929 28.7071 18.65 27.9786 18.65ZM29.2429 16.1643C29.1786 15.3714 28.7286 14.7071 27.8929 14.7071C27.1429 14.7071 26.5857 15.3286 26.5214 16.1643H29.2429Z" fill="#717074"/>
<path d="M18.8714 17.3214C18.8714 16.4 19.6214 15.9071 20.7143 15.9071C21.2714 15.9071 21.6571 15.9714 22.0429 16.0786V15.9286C22.0429 15.1357 21.5714 14.7714 20.7571 14.7714C20.3286 14.7714 20.0714 14.8143 19.75 14.9643C19.7071 14.9857 19.6643 14.9857 19.6429 14.9857C19.4929 14.9857 19.3429 14.8571 19.3429 14.7071C19.3429 14.5571 19.4071 14.4929 19.5143 14.4286C19.9429 14.2571 20.2643 14.1714 20.8214 14.1714C21.4214 14.1714 21.8929 14.3214 22.2143 14.6429C22.5143 14.9429 22.6643 15.3714 22.6643 15.9071V18.2857C22.6643 18.4571 22.5357 18.6071 22.3429 18.6071C22.1714 18.6071 22.0214 18.4786 22.0214 18.3071V17.8786C21.7214 18.2857 21.2071 18.6286 20.4571 18.6286C19.6857 18.65 18.8714 18.2 18.8714 17.3214ZM22.0429 16.9786V16.55C21.7214 16.4643 21.2929 16.3786 20.7571 16.3786C19.9429 16.3786 19.4929 16.7429 19.4929 17.2786V17.3C19.4929 17.8357 19.9857 18.1571 20.5643 18.1571C21.4 18.1571 22.0429 17.6643 22.0429 16.9786Z" fill="#717074"/>
<path d="M2.17857 14.45C2.05 14.1286 1.68571 14 1.36428 14.1286C1.04285 14.2571 0.914282 14.6429 1.08571 14.9429L2.45714 17.9214C2.67143 18.3929 2.90714 18.65 3.33571 18.65C3.78571 18.65 3.97857 18.3714 4.21428 17.9214C4.21428 17.9214 5.41428 15.3071 5.43571 15.2857C5.45714 15.2643 5.47857 15.1786 5.60714 15.1786C5.71428 15.1786 5.77857 15.2643 5.77857 15.3714V17.9C5.77857 18.2857 5.99285 18.6286 6.4 18.6286C6.82857 18.6286 7.04285 18.3071 7.04285 17.9V15.8429C7.04285 15.4357 7.34285 15.1786 7.70714 15.1786C8.09285 15.1786 8.35 15.4571 8.35 15.8429V17.9214C8.35 18.3071 8.56428 18.65 8.97143 18.65C9.4 18.65 9.61428 18.3286 9.61428 17.9214V15.8429C9.61428 15.4357 9.91428 15.1786 10.2786 15.1786C10.6643 15.1786 10.9214 15.4571 10.9214 15.8429V17.9214C10.9214 18.3071 11.1357 18.65 11.5429 18.65C11.9714 18.65 12.1857 18.3286 12.1857 17.9214V15.5643C12.1857 14.6857 11.5 14.0857 10.6429 14.0857C9.78571 14.0857 9.27143 14.6643 9.27143 14.6643C8.97143 14.3 8.60714 14.0857 7.94285 14.0857C7.25714 14.0857 6.63571 14.6643 6.63571 14.6643C6.35714 14.3 5.86428 14.0857 5.5 14.0857C4.9 14.0857 4.40714 14.3643 4.10714 15.0286L3.22857 17.0857L2.17857 14.45Z" fill="#717074"/>
<path d="M29.9071 14.7071C29.9071 14.4071 30.1643 14.1714 30.4429 14.1714C30.7429 14.1714 30.9786 14.4286 30.9786 14.7071C30.9786 15.0071 30.7214 15.2429 30.4429 15.2429C30.1429 15.2429 29.9071 15.0071 29.9071 14.7071ZM30.8714 14.7071C30.8714 14.45 30.7 14.2786 30.4429 14.2786C30.1857 14.2786 30.0143 14.4714 30.0143 14.7071C30.0143 14.9643 30.1857 15.1357 30.4429 15.1357C30.7 15.1357 30.8714 14.9429 30.8714 14.7071Z" fill="#717074"/>
<path d="M30.6571 14.7286C30.6357 14.75 30.5929 14.7714 30.55 14.7929L30.6786 14.9857H30.5714L30.4429 14.7929H30.3571V14.9857H30.25V14.4286H30.4857C30.5286 14.4286 30.55 14.4286 30.5929 14.45C30.6143 14.4714 30.6571 14.4929 30.6571 14.5143C30.6786 14.5357 30.6786 14.5786 30.6786 14.6C30.7 14.6643 30.6786 14.7071 30.6571 14.7286ZM30.3571 14.7071H30.4857C30.5286 14.7071 30.55 14.7071 30.5714 14.6857C30.5929 14.6643 30.5929 14.6429 30.5929 14.6214C30.5929 14.6 30.5714 14.5786 30.5714 14.5571C30.55 14.5357 30.5286 14.5357 30.4857 14.5357H30.3571V14.7071Z" fill="#717074"/>
</g>
<defs>
<clipPath id="clip0">
<rect width="30" height="4.71429" fill="white" transform="translate(1 14)"/>
</clipPath>
</defs>
</svg>
