<svg width="300" height="300" viewBox="0 0 300 300" fill="none" xmlns="http://www.w3.org/2000/svg">
<path d="M150 300C232.843 300 300 232.843 300 150C300 67.1573 232.843 0 150 0C67.1573 0 0 67.1573 0 150C0 232.843 67.1573 300 150 300Z" fill="#276EF1"/>
<path d="M152.5 230.643C136.405 230.643 122.357 227.358 110.357 220.786C98.3571 214.215 89.0951 204.977 82.5713 193.072C76.0951 181.12 72.8571 167.405 72.8571 151.929C72.8571 135.31 76.3094 120.81 83.2142 108.429C90.1666 96.0481 99.7142 86.5481 111.857 79.929C123.952 73.3099 137.571 70.0004 152.714 70.0004C168.667 70.0004 182.333 73.1671 193.714 79.5004C205.095 85.7861 213.714 94.1671 219.571 104.643C225.381 115.119 228.286 126.358 228.286 138.358C228.286 150.12 226.524 159.858 223 167.572C219.476 175.334 214.857 181.048 209.143 184.715C203.428 188.334 197.238 190.143 190.571 190.143C184 190.143 178.809 188.715 175 185.858C171.143 183.048 168.905 179.096 168.286 174H167.928C161.214 184.762 151.976 190.143 140.214 190.143C131.833 190.143 125.071 187.239 119.928 181.429C114.786 175.62 112.214 167.643 112.214 157.5C112.214 148.929 113.857 140.953 117.143 133.572C120.428 126.239 125.024 120.358 130.928 115.929C136.881 111.548 143.69 109.358 151.357 109.358C157.071 109.358 162.024 110.667 166.214 113.286C170.452 115.858 173.238 119.262 174.571 123.5H175L177 111.429H191.286L182.786 159.858C182.262 163.572 182 165.929 182 166.929C182 171.024 182.905 173.977 184.714 175.786C186.524 177.548 189.333 178.429 193.143 178.429C196.381 178.429 199.643 177.12 202.928 174.5C206.214 171.834 208.976 167.5 211.214 161.5C213.405 155.453 214.5 147.739 214.5 138.358C214.5 128.453 212.19 119.286 207.571 110.858C202.905 102.429 195.928 95.6433 186.643 90.5004C177.357 85.3576 166.048 82.7861 152.714 82.7861C140.19 82.7861 128.976 85.5481 119.071 91.0719C109.167 96.5957 101.405 104.596 95.7856 115.072C90.119 125.5 87.2856 137.786 87.2856 151.929C87.2856 165.167 89.9047 176.739 95.1428 186.643C100.333 196.548 107.857 204.191 117.714 209.572C127.524 214.953 139.119 217.643 152.5 217.643C162.548 217.643 171.214 216.286 178.5 213.572C185.786 210.858 191.357 207.024 195.214 202.072H214.143C208.952 210.834 201.024 217.786 190.357 222.929C179.738 228.072 167.119 230.643 152.5 230.643ZM143.428 178.429C149.238 178.429 154.238 176.667 158.428 173.143C162.667 169.62 165.857 165.024 168 159.358C170.19 153.643 171.286 147.691 171.286 141.5C171.286 134.929 169.69 129.905 166.5 126.429C163.357 123 159.071 121.286 153.643 121.286C148.071 121.286 143.238 123 139.143 126.429C135.048 129.905 131.952 134.405 129.857 139.929C127.762 145.453 126.714 151.167 126.714 157.072C126.714 163.881 128.262 169.143 131.357 172.858C134.452 176.572 138.476 178.429 143.428 178.429Z" fill="white"/>
</svg>
